<?xml version="1.0" encoding="utf-8"?>
<!-- Generator: Adobe Illustrator 19.1.0, SVG Export Plug-In . SVG Version: 6.00 Build 0)  -->
<svg version="1.1" id="Layer_1" xmlns="http://www.w3.org/2000/svg" xmlns:xlink="http://www.w3.org/1999/xlink" x="0px" y="0px"
	 viewBox="0 0 1280 720" style="enable-background:new 0 0 1280 720;" xml:space="preserve">
<style type="text/css">
	.st0{fill:#F8FCF2;}
	.st1{fill:none;stroke:#25937E;stroke-width:8;stroke-miterlimit:10;}
	.st2{fill:#FC8738;}
	.st3{fill:none;stroke:#FC8738;stroke-width:8;stroke-miterlimit:10;stroke-dasharray:12.242;}
	.st4{fill:#D2F7E1;}
	.st5{fill:#F2D4B3;}
	.st6{fill:#79DBC8;}
	.st7{fill:#32AD95;}
	.st8{fill:#919191;}
	.st9{fill:#272938;}
	.st10{fill:#B59DCB;}
	.st11{fill:#424143;}
	.st12{fill:none;}
	.st13{opacity:0.21;clip-path:url(#SVGID_2_);fill:#081110;}
	.st14{fill:#E5E6E7;}
	.st15{fill:#705F9B;}
	.st16{fill:#A19C9B;}
	.st17{fill:#D9CFE5;}
	.st18{opacity:0.21;clip-path:url(#SVGID_4_);fill:#081110;}
	.st19{fill:#95C6C2;}
	.st20{fill:none;stroke:#80B7B2;stroke-width:4.7716;stroke-miterlimit:10;}
	.st21{fill:none;stroke:#80B7B2;stroke-width:4.073;stroke-miterlimit:10;}
	.st22{fill:#FFFFFF;}
	.st23{fill:#5D5D5D;}
	.st24{fill:#BC783B;}
	.st25{fill:#CC8E5A;}
	.st26{fill:none;stroke:#65BBD6;stroke-width:8;stroke-miterlimit:10;}
	.st27{fill:#65BBD6;}
	.st28{fill:#848484;}
	.st29{fill:none;stroke:#3F414F;stroke-width:17.6432;stroke-linecap:round;stroke-miterlimit:10;}
	.st30{fill:#F7F8F9;}
	.st31{fill:#D3D3D3;}
	.st32{fill:#E6E7E8;}
	.st33{fill:#A29D9C;}
	.st34{fill:#59595C;}
	.st35{fill:#3ACCB3;}
	.st36{opacity:0.24;}
	.st37{opacity:0.38;fill:#FFFFFF;}
	.st38{opacity:0.41;}
	.st39{fill:none;stroke:#FC8738;stroke-width:8;stroke-miterlimit:10;}
	.st40{fill:none;stroke:#FC8738;stroke-width:8;stroke-miterlimit:10;stroke-dasharray:12.5689,12.5689;}
	.st41{fill:none;stroke:#FC8738;stroke-width:8;stroke-miterlimit:10;stroke-dasharray:13.1382,13.1382;}
	.st42{fill:none;stroke:#2B9E90;stroke-width:8;stroke-miterlimit:10;}
	.st43{fill:none;stroke:#2B9E90;stroke-width:8;stroke-miterlimit:10;stroke-dasharray:13.1382,13.1382;}
	.st44{fill:#7BC7D9;}
	.st45{fill:#89C8DB;}
	.st46{fill:#A1D6E5;}
	.st47{fill:#B7E3F2;}
	.st48{fill:#A3CC39;}
	.st49{fill:#D8EDF7;}
	.st50{fill:#869190;}
	.st51{fill:#5C6060;}
	.st52{fill:#F88538;}
	.st53{clip-path:url(#SVGID_6_);}
	.st54{fill:#D3F2F4;}
	.st55{fill:#E5B5D8;}
	.st56{fill:#C185B3;}
	.st57{fill:none;stroke:#848484;stroke-width:4.5128;stroke-miterlimit:10;}
	.st58{fill:none;stroke:#848484;stroke-width:4.1729;stroke-miterlimit:10;}
	.st59{fill:#F5F5F6;}
	.st60{fill:none;stroke:#C7EFEF;stroke-width:16.0374;stroke-linecap:round;stroke-miterlimit:10;}
	.st61{fill:none;stroke:#C7EFEF;stroke-width:8.0187;stroke-linecap:round;stroke-miterlimit:10;}
	.st62{fill:none;stroke:#C7EFEF;stroke-width:9.1642;stroke-linecap:round;stroke-miterlimit:10;}
	.st63{fill:none;stroke:#C7EFEF;stroke-width:13.7464;stroke-linecap:round;stroke-miterlimit:10;}
	.st64{fill:none;stroke:#C7EFEF;stroke-width:5.7276;stroke-linecap:round;stroke-miterlimit:10;}
	.st65{fill:none;stroke:#C7EFEF;stroke-width:10.3098;stroke-linecap:round;stroke-miterlimit:10;}
	.st66{fill:#8E8B8B;}
	.st67{fill:#AAAAAA;}
	.st68{fill:#C1A6DD;}
	.st69{fill:#282828;}
	.st70{fill:#B56193;}
	.st71{fill:#F7F4F0;}
	.st72{fill:#8EBC71;}
	.st73{opacity:0.4;fill:#B2E293;}
	.st74{fill:#C66F34;}
	.st75{fill:#DB8952;}
	.st76{fill:#FFE7DE;}
	.st77{fill:#374C29;}
	.st78{opacity:0.65;fill:#B2E293;}
	.st79{fill:#B2E293;}
	.st80{fill:#7A637F;}
	.st81{clip-path:url(#SVGID_8_);}
	.st82{fill:#A5E5DF;}
	.st83{opacity:0.37;clip-path:url(#SVGID_10_);}
	.st84{fill:#231F20;}
</style>
<rect class="st0" width="1280" height="720"/>
<g>
	<path class="st10" d="M482.5,466.2l67.7-26.4c4.9-1.1,8-5.9,6.9-10.8l0,0c-1.1-4.9-5.9-8-10.8-6.9l-67.7,26.4
		c-4.9,1.1-8,5.9-6.9,10.8l0,0C472.8,464.2,477.6,467.3,482.5,466.2z"/>
	<path class="st10" d="M463.5,461.5l-47.3-55.2c-3.8-3.3-4.2-9-1-12.7v0c3.3-3.8,9-4.2,12.7-1l47.3,55.2c3.8,3.3,4.2,9,1,12.7l0,0
		C473,464.3,467.3,464.7,463.5,461.5z"/>
	<path class="st10" d="M437.6,431.3c13.3-25,33.6-39.9,52.1-35.4c18.5,4.5,29.8,27,30.2,55.3c0.1,9.6-1,19.9-3.5,30.3
		c-2.8,11.6-7,22.2-12.2,31.4c-12.4,3-27.2,3-42.5-0.7c-15.3-3.7-28.5-10.5-38.2-18.8c-0.5-10.5,0.6-21.9,3.4-33.5
		C429.4,449.4,433.1,439.8,437.6,431.3z"/>
	<path class="st11" d="M455.4,407.5c10.7-9.8,22.9-14.5,34.3-11.7c11.4,2.8,20.1,12.4,25.2,26c-8.9,7.6-21.1,11-33.4,8
		C469.2,427,459.8,418.4,455.4,407.5z"/>
	<circle class="st10" cx="490.3" cy="393.3" r="33.2"/>
</g>
<line class="st12" x1="433.7" y1="465.5" x2="329" y2="493.7"/>
<g>
	<defs>
		<path id="SVGID_1_" d="M437.6,431.3c13.3-25,33.6-39.9,52.1-35.4c18.5,4.5,29.8,27,30.2,55.3c0.1,9.6-1,19.9-3.5,30.3
			c-2.8,11.6-7,22.2-12.2,31.4c-12.4,3-27.2,3-42.5-0.7c-15.3-3.7-28.5-10.5-38.2-18.8c-0.5-10.5,0.6-21.9,3.4-33.5
			C429.4,449.4,433.1,439.8,437.6,431.3z"/>
	</defs>
	<clipPath id="SVGID_2_">
		<use xlink:href="#SVGID_1_"  style="overflow:visible;"/>
	</clipPath>
	<path class="st13" d="M317.6,491.8c-2.1-12,7.6-33.5,19.2-36.1c8.6-1.9,17.1,2.4,24.8,6.6c-0.8-15.9,10.4-31.7,25.3-35.6
		c14.9-3.9,31.8,4.4,38.2,18.9c11.4-10.9,27.4-18.3,42.1-13.9s24.4,24.6,15.2,37.5c15.6-5.4,33.6-2,46.3,8.6
		c8,6.7,14,16.9,12.6,27.5c-1.4,10.6-12.6,19.7-22.1,15.9c16.2,8.2,27.1,26.3,27.2,45c0,5-0.7,10.2-3.3,14.5
		c-7.4,12.7-25.1,11.8-39,9.4c9.8,6.2,13.5,20.2,9.6,31.4c-3.9,11.3-14.4,19.4-25.7,21.7c-11.3,2.3-23.2-0.7-33.1-6.7
		c-1.7,18.9-18.4,35.1-36.7,35.7c-18.2,0.5-35.5-14.7-37.8-33.4c-15.2,12.5-40.3,7.1-50.1-10c-3.7-6.5-3.4-14.3-2.9-21.9
		c0.7-10.1,6.5-15.3,9.4-17.7c-15-2-24,1.2-32.7-11.5c-6.8-9.9-6.5-24.1-0.6-34.7s13.9-24.6,25.5-26.9
		C329.2,515.9,319.7,503.8,317.6,491.8z"/>
</g>
<path class="st14" d="M332.4,607.9H91.6c-6.4,0-11.7-5.2-11.7-11.7V391.4c0-6.4,5.2-11.7,11.7-11.7h240.9c6.4,0,11.7,5.2,11.7,11.7
	v204.8C344.1,602.6,338.9,607.9,332.4,607.9z"/>
<rect x="79.9" y="418.7" class="st10" width="264.2" height="176.8"/>
<rect x="79.9" y="401.5" class="st15" width="264.2" height="17"/>
<g>
	<circle class="st16" cx="92.4" cy="390.7" r="3.5"/>
	<circle class="st16" cx="105" cy="390.7" r="3.5"/>
	<circle class="st16" cx="117.6" cy="390.7" r="3.5"/>
</g>
<polyline class="st17" points="184.4,436.1 98.2,436.1 98.2,576.7 184.4,576.7 184.4,436.1 "/>
<polyline class="st17" points="325.1,436.3 201.8,436.3 201.8,576.4 325.1,576.4 325.1,436.3 "/>
<g>
	<defs>
		<path id="SVGID_3_" d="M332.4,607.9H91.6c-6.4,0-11.7-5.2-11.7-11.7V391.4c0-6.4,5.2-11.7,11.7-11.7h240.9
			c6.4,0,11.7,5.2,11.7,11.7v204.8C344.1,602.6,338.9,607.9,332.4,607.9z"/>
	</defs>
	<clipPath id="SVGID_4_">
		<use xlink:href="#SVGID_3_"  style="overflow:visible;"/>
	</clipPath>
	<path class="st18" d="M312.2,495.2c-2.1-12.2,7.7-33.9,19.4-36.5c8.7-1.9,17.3,2.4,25.1,6.6c-0.8-16.1,10.6-32.1,25.7-36.1
		c15.1-4,32.2,4.5,38.6,19.1c11.5-11,27.8-18.6,42.7-14s24.7,24.9,15.4,38c15.8-5.4,34.1-2.1,46.9,8.7c8.1,6.7,14.2,17.2,12.8,27.9
		c-1.4,10.7-12.7,20-22.4,16.1c16.4,8.3,27.5,26.6,27.5,45.6c0,5.1-0.7,10.3-3.3,14.7c-7.5,12.8-25.4,12-39.5,9.5
		c9.9,6.3,13.7,20.4,9.7,31.8s-14.6,19.6-26,22s-23.5-0.7-33.5-6.7c-1.7,19.1-18.7,35.6-37.1,36.1c-18.5,0.6-35.9-14.9-38.3-33.9
		c-15.4,12.6-40.8,7.1-50.7-10.2c-3.8-6.6-3.5-14.4-3-22.1c0.7-10.2,6.6-15.5,9.6-17.9c-15.1-2-24.3,1.2-33.1-11.7
		c-6.8-10.1-6.6-24.4-0.6-35.2c6-10.8,14.1-24.9,25.8-27.2C323.9,519.6,314.3,507.4,312.2,495.2z"/>
</g>
<g>
	<path class="st19" d="M391.8,444.8c4.7-21.7,9.5-43.8,9.9-66.6c0.4-22.8-4.2-46.7-15.7-62.4c24.1,1.4,48.2,0.6,72.1-2.5
		c-6.8-1-11.8,8.9-14.5,17.9c-10.9,36-9.6,79.1,3.4,113.6c-13.5-6-25.1,21.2-39.1,18.4"/>
	<path class="st20" d="M407.3,447.3c2.9-26,5.3-52.1,3.8-78c-0.8-14.1-2-38.1-5.2-51.7"/>
	<path class="st21" d="M421,465.5c-0.7-58-0.9-115.9-0.8-173.9"/>
	<path class="st20" d="M435.6,459.9c-4.2-25.2-7.5-50.9-7.5-76.7s3.7-52.1,12.6-74.8"/>
	<g>
		<path class="st19" d="M380.8,329.8c0,0-0.1,0.1-0.2,0.3c-0.1,0.2-0.3,0.5-0.6,0.8c-0.3,0.3-0.5,0.8-0.9,1.2
			c-0.4,0.4-0.8,1-1.2,1.5c-0.9,1.1-2,2.2-3.2,3.4c-0.6,0.6-1.3,1.2-1.9,1.8c-0.7,0.6-1.4,1.1-2.1,1.7c-0.7,0.5-1.4,1.1-2.2,1.6
			c-0.7,0.5-1.5,1-2.2,1.5c-1.4,0.9-2.9,1.7-4.1,2.3c-1.3,0.6-2.4,1-3.2,1.3c-0.8,0.3-1.3,0.4-1.3,0.4s0.2-0.5,0.6-1.2
			c0.4-0.8,1-1.8,1.8-3c0.8-1.2,1.9-2.4,3.1-3.7c0.6-0.6,1.2-1.3,1.9-1.9c0.7-0.6,1.4-1.2,2.1-1.8c0.7-0.6,1.5-1.1,2.2-1.6
			c0.7-0.5,1.5-1,2.3-1.4c1.5-0.9,3-1.6,4.4-2.1c1.3-0.5,2.5-0.8,3.4-1c0.4-0.1,0.8-0.1,1-0.2C380.6,329.8,380.8,329.8,380.8,329.8z
			"/>
	</g>
	<g>
		<path class="st19" d="M388.3,346.1c0,0,0,0.1,0.1,0.2c0.1,0.1,0.2,0.4,0.3,0.6c0.3,0.5,0.6,1.3,0.8,2.3c0.2,0.9,0.4,2,0.4,3.2
			c0,0.6,0,1.2-0.1,1.8c-0.1,0.6-0.1,1.2-0.3,1.8c-0.1,0.6-0.3,1.2-0.5,1.8c-0.2,0.6-0.4,1.1-0.7,1.7c-0.5,1.1-1.1,2-1.7,2.8
			c-1.2,1.5-2.6,2.3-2.6,2.3s-0.1-0.4-0.2-1c0-0.3-0.1-0.7-0.2-1c0-0.4-0.1-0.8-0.1-1.3c-0.1-0.9-0.1-2,0-3c0-0.5,0.1-1.1,0.2-1.6
			c0.1-0.6,0.2-1.1,0.3-1.7c0.1-0.6,0.3-1.1,0.4-1.7c0.1-0.5,0.3-1.1,0.5-1.6c0.4-1,0.8-2,1.3-2.8c0.5-0.8,0.9-1.5,1.3-2
			c0.2-0.2,0.3-0.4,0.4-0.6C388.3,346.2,388.3,346.1,388.3,346.1z"/>
	</g>
	<g>
		<path class="st19" d="M449.8,343.1c0,0,0.1,0.1,0.2,0.2c0.1,0.2,0.3,0.4,0.4,0.7c0.2,0.3,0.4,0.6,0.6,1c0.2,0.4,0.4,0.8,0.7,1.3
			c0.5,0.9,0.9,2,1.3,3.2c0.2,0.6,0.4,1.2,0.5,1.9c0.2,0.6,0.3,1.3,0.4,2c0.1,0.7,0.2,1.3,0.3,2c0.1,0.7,0.1,1.3,0.1,2
			c0,1.3-0.1,2.5-0.4,3.6c-0.2,1.1-0.6,2-0.8,2.6c-0.3,0.6-0.5,0.9-0.5,0.9s-0.3-0.3-0.6-0.9c-0.2-0.3-0.4-0.6-0.6-1
			c-0.2-0.4-0.4-0.8-0.7-1.3c-0.9-1.9-1.8-4.4-2.3-7c-0.1-0.7-0.2-1.3-0.3-2c-0.1-0.7-0.1-1.3-0.1-2c0-1.3,0.1-2.5,0.4-3.6
			c0.1-0.5,0.2-1,0.4-1.5c0.1-0.4,0.3-0.8,0.4-1.1c0.1-0.3,0.3-0.5,0.4-0.7C449.8,343.2,449.8,343.1,449.8,343.1z"/>
	</g>
	<g>
		<path class="st19" d="M463.8,329.9c0,0,0.1-0.1,0.2-0.2c0.2-0.1,0.4-0.3,0.7-0.4c0.6-0.3,1.5-0.7,2.6-1c0.6-0.1,1.2-0.2,1.8-0.3
			c0.6-0.1,1.3-0.1,2-0.1c1.4,0,2.9,0.3,4.3,0.7c0.7,0.2,1.4,0.5,2.1,0.8c0.7,0.3,1.3,0.6,1.9,1c0.6,0.4,1.1,0.8,1.7,1.2
			c0.5,0.4,0.9,0.8,1.3,1.3c0.4,0.4,0.7,0.8,1,1.2c0.3,0.4,0.5,0.8,0.7,1c0.3,0.6,0.5,1,0.5,1s-0.4,0-1.1-0.1
			c-0.7-0.1-1.6-0.2-2.6-0.4c-0.5-0.1-1.1-0.2-1.6-0.3c-0.6-0.1-1.1-0.2-1.7-0.4c-0.6-0.1-1.2-0.3-1.8-0.5c-0.6-0.2-1.2-0.3-1.8-0.5
			c-0.6-0.2-1.2-0.4-1.8-0.6c-0.3-0.1-0.6-0.2-0.9-0.3c-0.3-0.1-0.6-0.2-0.9-0.3c-1.2-0.4-2.2-0.9-3.2-1.3c-1-0.4-1.8-0.8-2.4-1.1
			C464.1,330.1,463.8,329.9,463.8,329.9z"/>
	</g>
</g>
<g>
	<polygon class="st12" points="373,66 362.7,91.7 375.1,91.7 385.4,66 	"/>
	<circle class="st12" cx="493.1" cy="78.9" r="8.6"/>
	<polygon class="st12" points="382.9,91.7 395.3,91.7 405.6,66 393.2,66 	"/>
	<polygon class="st12" points="312.5,66 302.2,91.7 314.6,91.7 324.9,66 	"/>
	<polygon class="st12" points="352.8,66 342.5,91.7 355,91.7 365.3,66 	"/>
	<polygon class="st12" points="332.6,66 322.3,91.7 334.8,91.7 345.1,66 	"/>
	<polygon class="st12" points="312.5,205.6 302.2,231.4 314.6,231.4 324.9,205.6 	"/>
	<circle class="st12" cx="493.1" cy="218.5" r="8.6"/>
	<polygon class="st12" points="352.8,205.6 342.5,231.4 355,231.4 365.3,205.6 	"/>
	<polygon class="st12" points="373,205.6 362.7,231.4 375.1,231.4 385.4,205.6 	"/>
	<polygon class="st12" points="382.9,231.4 395.3,231.4 405.6,205.6 393.2,205.6 	"/>
	<polygon class="st12" points="332.6,205.6 322.3,231.4 334.8,231.4 345.1,205.6 	"/>
	<polygon class="st12" points="312.5,275.4 302.2,301.2 314.6,301.2 324.9,275.4 	"/>
	<circle class="st12" cx="493.1" cy="288.3" r="8.6"/>
	<polygon class="st12" points="352.8,275.4 342.5,301.2 355,301.2 365.3,275.4 	"/>
	<polygon class="st12" points="373,275.4 362.7,301.2 375.1,301.2 385.4,275.4 	"/>
	<polygon class="st12" points="382.9,301.2 395.3,301.2 405.6,275.4 393.2,275.4 	"/>
	<polygon class="st12" points="332.6,275.4 322.3,301.2 334.8,301.2 345.1,275.4 	"/>
	<polygon class="st12" points="312.5,135.8 302.2,161.6 314.6,161.6 324.9,135.8 	"/>
	<polygon class="st12" points="382.9,161.6 395.3,161.6 405.6,135.8 393.2,135.8 	"/>
	<polygon class="st12" points="352.8,135.8 342.5,161.6 355,161.6 365.3,135.8 	"/>
	<polygon class="st12" points="373,135.8 362.7,161.6 375.1,161.6 385.4,135.8 	"/>
	<polygon class="st12" points="332.6,135.8 322.3,161.6 334.8,161.6 345.1,135.8 	"/>
	<circle class="st12" cx="493.1" cy="148.7" r="8.6"/>
	<polygon class="st44" points="302.2,231.4 314.6,231.4 324.9,205.6 312.5,205.6 	"/>
	<g>
		<polygon class="st44" points="302.2,91.7 314.6,91.7 324.9,66 312.5,66 		"/>
		<polygon class="st44" points="302.2,301.2 314.6,301.2 324.9,275.4 312.5,275.4 		"/>
		<polygon class="st44" points="302.2,161.6 314.6,161.6 324.9,135.8 312.5,135.8 		"/>
	</g>
	<g>
		<polygon class="st45" points="345.1,66 332.6,66 322.3,91.7 334.8,91.7 		"/>
		<polygon class="st45" points="345.1,205.6 332.6,205.6 322.3,231.4 334.8,231.4 		"/>
		<polygon class="st45" points="345.1,275.4 332.6,275.4 322.3,301.2 334.8,301.2 		"/>
		<polygon class="st45" points="345.1,135.8 332.6,135.8 322.3,161.6 334.8,161.6 		"/>
	</g>
	<g>
		<polygon class="st46" points="365.3,66 352.8,66 342.5,91.7 355,91.7 		"/>
		<polygon class="st46" points="365.3,205.6 352.8,205.6 342.5,231.4 355,231.4 		"/>
		<polygon class="st46" points="365.3,275.4 352.8,275.4 342.5,301.2 355,301.2 		"/>
		<polygon class="st46" points="365.3,135.8 352.8,135.8 342.5,161.6 355,161.6 		"/>
	</g>
	<g>
		<polygon class="st47" points="385.4,66 373,66 362.7,91.7 375.1,91.7 		"/>
		<polygon class="st47" points="385.4,205.6 373,205.6 362.7,231.4 375.1,231.4 		"/>
		<polygon class="st47" points="385.4,275.4 373,275.4 362.7,301.2 375.1,301.2 		"/>
		<polygon class="st47" points="385.4,135.8 373,135.8 362.7,161.6 375.1,161.6 		"/>
	</g>
	<g>
		<rect x="469.8" y="60.8" class="st48" width="37" height="34"/>
		<rect x="469.1" y="206.3" class="st48" width="40" height="31"/>
		<rect x="469.1" y="276.1" class="st48" width="40" height="31"/>
		<rect x="472.1" y="129.7" class="st48" width="34" height="37.8"/>
	</g>
	<g>
		<polygon class="st49" points="405.6,66 393.2,66 382.9,91.7 395.3,91.7 		"/>
		<polygon class="st49" points="405.6,205.6 393.2,205.6 382.9,231.4 395.3,231.4 		"/>
		<polygon class="st49" points="405.6,275.4 393.2,275.4 382.9,301.2 395.3,301.2 		"/>
		<polygon class="st49" points="405.6,135.8 393.2,135.8 382.9,161.6 395.3,161.6 		"/>
	</g>
	<rect x="286.6" y="242.6" class="st50" width="234.3" height="22.4"/>
	<rect x="286.6" y="104" class="st50" width="234.3" height="22.4"/>
	<rect x="286.6" y="171" class="st50" width="234.3" height="22.4"/>
	<path class="st51" d="M520.9,49.5H286.6v58.7h234.3L520.9,49.5L520.9,49.5z M302.2,91.7L312.5,66h12.4l-10.3,25.8H302.2z
		 M322.3,91.7L332.6,66h12.4l-10.3,25.8H322.3z M342.5,91.7L352.8,66h12.4L355,91.7H342.5z M362.7,91.7L373,66h12.4l-10.3,25.8
		H362.7z M395.3,91.7h-12.4L393.2,66h12.4L395.3,91.7z M493.1,87.5c-4.7,0-8.6-3.9-8.6-8.6c0-4.7,3.9-8.6,8.6-8.6
		c4.8,0,8.6,3.9,8.6,8.6C501.7,83.6,497.8,87.5,493.1,87.5z"/>
	<path class="st51" d="M286.6,189.1v58.7h234.3v-58.7H286.6z M302.2,231.4l10.3-25.8h12.4l-10.3,25.8H302.2z M322.3,231.4l10.3-25.8
		h12.4l-10.3,25.8H322.3z M342.5,231.4l10.3-25.8h12.4L355,231.4H342.5z M362.7,231.4l10.3-25.8h12.4l-10.3,25.8H362.7z
		 M395.3,231.4h-12.4l10.3-25.8h12.4L395.3,231.4z"/>
	<path class="st51" d="M286.6,259v58.7h234.3V259h0H286.6z M302.2,301.2l10.3-25.8h12.4l-10.3,25.8H302.2z M322.3,301.2l10.3-25.8
		h12.4l-10.3,25.8H322.3z M342.5,301.2l10.3-25.8h12.4L355,301.2H342.5z M362.7,301.2l10.3-25.8h12.4l-10.3,25.8H362.7z
		 M395.3,301.2h-12.4l10.3-25.8h12.4L395.3,301.2z M493.1,296.9c-4.7,0-8.6-3.8-8.6-8.6c0-4.8,3.9-8.6,8.6-8.6
		c4.8,0,8.6,3.8,8.6,8.6C501.7,293.1,497.8,296.9,493.1,296.9z"/>
	<path class="st51" d="M286.6,119.3V178h209.3v-58.7H286.6z M302.2,161.6l10.3-25.8h12.4l-10.3,25.8H302.2z M322.3,161.6l10.3-25.8
		h12.4l-10.3,25.8H322.3z M342.5,161.6l10.3-25.8h12.4L355,161.6H342.5z M362.7,161.6l10.3-25.8h12.4l-10.3,25.8H362.7z
		 M395.3,161.6h-12.4l10.3-25.8h12.4L395.3,161.6z"/>
	<circle class="st51" cx="493" cy="183.6" r="64.3"/>
	<circle class="st22" cx="493" cy="183.6" r="51.4"/>
	<g>
		<g>
			<path class="st52" d="M506.5,206.7l4,4l-6,6l5.2,5.2l2.8-2.8l-0.1-0.1c-1.1-1.1-1-2.9,0.1-3.9l1.7-1.7c1-1,2.7-1,3.8,0l0.1,0.1
				l1.6-1.6l0.8,0.8c1.1,1.1,2.9,1.1,4,0c1.1-1.1,1.1-2.9,0-4l-38-38c4.5-6.2,4.4-14.5-0.7-19.6c-5.7-5.7-15.5-5.2-21.8,1.1
				c-6.3,6.3-6.8,16.1-1.1,21.8c5.1,5.1,13.4,5.2,19.7,0.7l22.5,22.5l-1.6,1.6c1.1,1.3,0.7,2.5-0.3,3.4l-1.7,1.7
				c-0.9,0.9-2.1,1.3-3.4,0.3l-2.9,2.9l5.6,5.6L506.5,206.7z M482.2,163.7c-1.5,1.5-3.5,2-5.4,1.7c0.3,1.9-0.2,3.9-1.7,5.4
				c-2.4,2.4-6.3,2.4-8.7,0c-2.4-2.4-2.4-6.3,0-8.7c1.5-1.5,3.5-2,5.4-1.7c-0.3-1.9,0.2-3.9,1.7-5.4c2.4-2.4,6.3-2.4,8.7,0
				C484.6,157.4,484.6,161.3,482.2,163.7z"/>
		</g>
	</g>
</g>
<path class="st82" d="M322.1,498.3c-2-11.2,7.1-31.2,17.9-33.7c8-1.8,15.9,2.2,23.1,6.1c-0.8-14.8,9.7-29.6,23.6-33.2
	c13.9-3.7,29.7,4.1,35.6,17.6c10.6-10.2,25.6-17.1,39.3-12.9s22.7,22.9,14.2,35c14.6-5,31.4-1.9,43.2,8c7.4,6.2,13.1,15.8,11.8,25.7
	c-1.3,9.9-11.7,18.4-20.7,14.8c15.1,7.6,25.3,24.5,25.4,42c0,4.7-0.7,9.5-3,13.5c-6.9,11.8-23.4,11-36.4,8.7
	c9.1,5.8,12.6,18.8,9,29.3c-3.7,10.5-13.4,18.1-24,20.2c-10.5,2.2-21.6-0.7-30.8-6.2c-1.6,17.6-17.2,32.8-34.2,33.3
	c-17,0.5-33.1-13.7-35.3-31.2c-14.2,11.6-37.6,6.6-46.7-9.4c-3.5-6.1-3.2-13.3-2.7-20.4c0.6-9.4,6.1-14.3,8.8-16.5
	c-14-1.9-22.4,1.1-30.5-10.8c-6.3-9.3-6.1-22.5-0.5-32.4s13-22.9,23.8-25.1C332.9,520.8,324,509.5,322.1,498.3z"/>
<g>
	<circle class="st74" cx="434.1" cy="562.3" r="55.8"/>
	<circle class="st75" cx="434" cy="562.2" r="43.6"/>
	<path class="st76" d="M432.6,561.5h3.1l25.3,25.3v-4.5l-26.4-26.4c2.6-6.2,1.4-13.6-3.6-18.6c-6.6-6.6-17.4-6.6-24,0
		c-6.6,6.6-6.6,17.4,0,24c5,5,12.4,6.2,18.6,3.6l3.8,3.8l4.5-0.8l1.2,1.2l1.2,1.2l-0.8,4.5l2.9,2.9l2.5-0.5l0.9,0.9l0.9,0.9
		l-0.5,2.5l2.1,2.1l3.6-0.7l0.9,0.9l0.9,0.9l-0.7,3.6l1.6,1.6h7.1l1.7-1.7L432.6,561.5L432.6,561.5z M410.8,546.8
		c-1.6-1.6-1.6-4.1,0-5.7c1.6-1.6,4.1-1.6,5.7,0c1.6,1.6,1.6,4.1,0,5.7C414.9,548.4,412.3,548.4,410.8,546.8z"/>
</g>
<path class="st76" d="M410.8,546.8c-1.6-1.6-1.6-4.1,0-5.7c1.6-1.6,4.1-1.6,5.7,0c1.6,1.6,1.6,4.1,0,5.7
	C414.9,548.4,412.3,548.4,410.8,546.8z"/>
<g>
	<defs>
		<circle id="SVGID_9_" cx="434.1" cy="562.3" r="55.8"/>
	</defs>
	<clipPath id="SVGID_6_">
		<use xlink:href="#SVGID_9_"  style="overflow:visible;"/>
	</clipPath>
	<g style="opacity:0.37;clip-path:url(#SVGID_6_);">
		<circle class="st84" cx="401.5" cy="528.3" r="61.1"/>
	</g>
</g>
<g>
	<circle class="st66" cx="401.2" cy="527.4" r="55.8"/>
	<circle class="st67" cx="401.1" cy="527.3" r="43.6"/>
	<path id="refresh-icon_4_" class="st71" d="M369.1,527.4h-7.3l13.6,13.5l13.4-13.5h-6.9c0-10.6,8.5-19.2,19.1-19.3
		c10.6-0.1,19.2,8.5,19.3,19.1c0.1,17.1-20.6,25.7-32.7,13.8l-9,9.1c20.1,19.8,54.6,5.6,54.5-23c-0.1-17.7-14.5-31.9-32.2-31.8
		C383.2,495.5,369,509.8,369.1,527.4z"/>
</g>
</svg>
