<?xml version="1.0" encoding="utf-8"?>
<!-- Generator: Adobe Illustrator 19.1.0, SVG Export Plug-In . SVG Version: 6.00 Build 0)  -->
<svg version="1.1" id="Layer_1" xmlns="http://www.w3.org/2000/svg" xmlns:xlink="http://www.w3.org/1999/xlink" x="0px" y="0px"
	 viewBox="0 0 1280 720" style="enable-background:new 0 0 1280 720;" xml:space="preserve">
<style type="text/css">
	.st0{fill:#F8FCF2;}
	.st1{fill:none;stroke:#25937E;stroke-width:8;stroke-miterlimit:10;}
	.st2{fill:#FC8738;}
	.st3{fill:none;stroke:#FC8738;stroke-width:8;stroke-miterlimit:10;stroke-dasharray:12.242;}
	.st4{fill:#D2F7E1;}
	.st5{fill:#F2D4B3;}
	.st6{fill:#79DBC8;}
	.st7{fill:#32AD95;}
	.st8{fill:#919191;}
	.st9{fill:#272938;}
	.st10{fill:#B59DCB;}
	.st11{fill:#424143;}
	.st12{fill:none;}
	.st13{opacity:0.21;clip-path:url(#SVGID_2_);fill:#081110;}
	.st14{fill:#E5E6E7;}
	.st15{fill:#705F9B;}
	.st16{fill:#A19C9B;}
	.st17{fill:#D9CFE5;}
	.st18{opacity:0.21;clip-path:url(#SVGID_4_);fill:#081110;}
	.st19{fill:#95C6C2;}
	.st20{fill:none;stroke:#80B7B2;stroke-width:4.7716;stroke-miterlimit:10;}
	.st21{fill:none;stroke:#80B7B2;stroke-width:4.073;stroke-miterlimit:10;}
	.st22{fill:#FFFFFF;}
	.st23{fill:#5D5D5D;}
	.st24{fill:#BC783B;}
	.st25{fill:#CC8E5A;}
	.st26{fill:none;stroke:#65BBD6;stroke-width:8;stroke-miterlimit:10;}
	.st27{fill:#65BBD6;}
	.st28{fill:#848484;}
	.st29{fill:none;stroke:#3F414F;stroke-width:17.6432;stroke-linecap:round;stroke-miterlimit:10;}
	.st30{fill:#F7F8F9;}
	.st31{fill:#D3D3D3;}
	.st32{fill:#E6E7E8;}
	.st33{fill:#A29D9C;}
	.st34{fill:#59595C;}
	.st35{fill:#3ACCB3;}
	.st36{opacity:0.24;}
	.st37{opacity:0.38;fill:#FFFFFF;}
	.st38{opacity:0.41;}
	.st39{fill:none;stroke:#FC8738;stroke-width:8;stroke-miterlimit:10;}
	.st40{fill:none;stroke:#FC8738;stroke-width:8;stroke-miterlimit:10;stroke-dasharray:12.5689,12.5689;}
	.st41{fill:none;stroke:#FC8738;stroke-width:8;stroke-miterlimit:10;stroke-dasharray:13.1382,13.1382;}
	.st42{fill:none;stroke:#2B9E90;stroke-width:8;stroke-miterlimit:10;}
	.st43{fill:none;stroke:#2B9E90;stroke-width:8;stroke-miterlimit:10;stroke-dasharray:13.1382,13.1382;}
	.st44{fill:#7BC7D9;}
	.st45{fill:#89C8DB;}
	.st46{fill:#A1D6E5;}
	.st47{fill:#B7E3F2;}
	.st48{fill:#A3CC39;}
	.st49{fill:#D8EDF7;}
	.st50{fill:#869190;}
	.st51{fill:#5C6060;}
	.st52{fill:#F88538;}
	.st53{clip-path:url(#SVGID_6_);}
	.st54{fill:#D3F2F4;}
	.st55{fill:#E5B5D8;}
	.st56{fill:#C185B3;}
	.st57{fill:none;stroke:#848484;stroke-width:4.5128;stroke-miterlimit:10;}
	.st58{fill:none;stroke:#848484;stroke-width:4.1729;stroke-miterlimit:10;}
	.st59{fill:#F5F5F6;}
	.st60{fill:none;stroke:#C7EFEF;stroke-width:16.0374;stroke-linecap:round;stroke-miterlimit:10;}
	.st61{fill:none;stroke:#C7EFEF;stroke-width:8.0187;stroke-linecap:round;stroke-miterlimit:10;}
	.st62{fill:none;stroke:#C7EFEF;stroke-width:9.1642;stroke-linecap:round;stroke-miterlimit:10;}
	.st63{fill:none;stroke:#C7EFEF;stroke-width:13.7464;stroke-linecap:round;stroke-miterlimit:10;}
	.st64{fill:none;stroke:#C7EFEF;stroke-width:5.7276;stroke-linecap:round;stroke-miterlimit:10;}
	.st65{fill:none;stroke:#C7EFEF;stroke-width:10.3098;stroke-linecap:round;stroke-miterlimit:10;}
	.st66{fill:#8E8B8B;}
	.st67{fill:#AAAAAA;}
	.st68{fill:#C1A6DD;}
	.st69{fill:#282828;}
	.st70{fill:#B56193;}
	.st71{fill:#F7F4F0;}
	.st72{fill:#8EBC71;}
	.st73{opacity:0.4;fill:#B2E293;}
	.st74{fill:#C66F34;}
	.st75{fill:#DB8952;}
	.st76{fill:#FFE7DE;}
	.st77{fill:#374C29;}
	.st78{opacity:0.65;fill:#B2E293;}
	.st79{fill:#B2E293;}
	.st80{fill:#7A637F;}
	.st81{clip-path:url(#SVGID_8_);}
	.st82{fill:#A5E5DF;}
	.st83{opacity:0.37;clip-path:url(#SVGID_10_);}
	.st84{fill:#231F20;}
</style>
<rect class="st0" width="1280" height="567.7"/>
<line class="st1" x1="76.1" y1="0" x2="76.1" y2="64.3"/>
<line class="st1" x1="412" y1="0" x2="412" y2="64.3"/>
<rect y="567.7" class="st6" width="1280" height="152.3"/>
<g>
	<path class="st7" d="M435.5,166.9c-127.3,26.9-254.8-26.4-382.5,0c0-39.8,0-79.5,0-119.3c127.6-26.4,255.2,26.9,382.5,0
		C435.5,87.4,435.5,127.2,435.5,166.9z"/>
</g>
<path class="st8" d="M339.5,539.2h-22.4l-4.7-13.2c-1.8-5.4-6.9-9.1-12.6-9.1h-15.6v-22.4h18.3c12.9,0,24.4,8.2,28.5,20.4
	L339.5,539.2z"/>
<path class="st9" d="M286.8,483c-8.8,0-14-3.9-13.9-12.6c0.4-52.3-4.6-106-15.3-133.9c-24-24.7-156-24.7-180.1,0
	c-21.4,56-20,215.8,1.6,259.4c28.9,32.4,148,32.5,176.9,0c5.5-11.2,9.7-30,12.6-52.7c1.4-10.9,9.7-14.9,18.3-14.9L286.8,483
	L286.8,483z"/>
<g>
	<g>
		<path class="st22" d="M86.3,111.5c4.8-0.8,7.3-1.2,12.1-1.8c-0.5,2.2-0.7,3.3-1.2,5.5c-1.3,5.9,5.9,6.7,12.2,6.1
			c8.7-0.8,14.7-6.7,14.1-12c-1.5-13.8-31.9-6.6-30.9-26.7c0.7-14.5,14.9-24.4,28.7-25c7.9-0.4,22.3,1.5,20.8,12.8
			c-0.7,3.4-1,5.1-1.7,8.6c-4.9,0.1-7.3,0.1-12.2,0.4c0.4-2,0.6-3,1.1-5c0.9-4.3-4.9-5.3-9.7-5c-7.5,0.5-14,5.4-13.4,10.7
			c1.6,13.7,30.8,7.5,30.9,28c0.1,15.1-16.7,23.9-29.5,25.1c-9.2,0.9-24.8-0.8-22.9-13.9C85.4,116.1,85.7,114.6,86.3,111.5z"/>
		<path class="st22" d="M158.6,120.2c3.5,0.1,5.2,0.1,8.6,0.3c3.5-17,7-34,10.5-51.1c-5.5-0.3-8.2-0.4-13.7-0.6
			c-0.8,4.3-1.3,6.5-2.1,10.8c-4.6-0.1-6.8-0.2-11.4-0.2c1.7-8.6,2.6-12.9,4.3-21.5c21.2,0.5,42.2,2,63.3,3.9
			c-1.7,8.5-2.6,12.7-4.3,21.2c-4.5-0.4-6.8-0.6-11.4-1c0.9-4.3,1.3-6.4,2.2-10.7c-5.4-0.5-8.2-0.7-13.6-1.1
			c-3.5,17-7,33.9-10.5,50.9c3.5,0.2,5.2,0.3,8.6,0.6c-0.8,3.9-1.2,5.9-2,9.8c-10.2-0.7-20.4-1.2-30.6-1.4
			C157.4,126.2,157.8,124.2,158.6,120.2z"/>
		<path class="st22" d="M204.7,122.9c2.6,0.2,3.9,0.3,6.5,0.6c11.4-19.7,22.8-39.3,34.2-58.9c6,0.6,9,0.9,15,1.5
			c3.1,21,6.1,42.1,9.2,63.1c2.6,0.2,3.9,0.4,6.5,0.6c-0.8,3.9-1.2,5.9-2,9.8c-10.6-0.9-16-1.5-26.6-2.5c0.8-3.9,1.2-5.9,2-9.8
			c2.8,0.3,4.3,0.4,7.1,0.7c-0.7-5.5-1-8.2-1.7-13.7c-9.1-0.9-13.6-1.4-22.7-2.3c-2.9,5.1-4.3,7.7-7.2,12.8c2.8,0.3,4.3,0.4,7.1,0.7
			c-0.8,3.9-1.3,5.9-2.1,9.8c-10.9-1.1-16.3-1.6-27.2-2.5C203.5,128.8,203.9,126.8,204.7,122.9z M253.9,103.7
			c-1-8.3-1.5-12.4-2.6-20.7c-0.4-3.6-0.2-6.3-0.2-6.3c-0.1,0-0.2,0-0.3,0c0,0-0.8,2.7-2.5,6.1c-4.4,7.7-6.6,11.6-11,19.3
			C243.9,102.7,247.3,103.1,253.9,103.7z"/>
		<path class="st22" d="M282.6,130.3c3.4,0.3,5.1,0.4,8.5,0.7c3.5-17.2,7.1-34.3,10.6-51.5c-3.5-0.2-5.2-0.3-8.6-0.6
			c0.8-4,1.2-6,2-9.9c10.2,0.7,20.5,1.2,30.7,1.5c-0.8,4-1.2,6-2,10c-3.5-0.1-5.2-0.1-8.7-0.3c-3.5,17.2-7,34.4-10.6,51.6
			c3.5,0.2,5.2,0.3,8.6,0.4c-0.8,4-1.2,5.9-2,9.9c-10.2-0.5-20.3-1.2-30.5-2C281.4,136.2,281.8,134.2,282.6,130.3z"/>
		<path class="st22" d="M323.8,132.6c3.4,0.1,5.1,0.1,8.5,0.1c3.5-17.4,7.1-34.8,10.6-52.2c-3.5,0-5.2,0.1-8.6,0c0.8-4,1.2-6,2-10.1
			c10,0.1,20.1-0.3,30.1-1c6.5-0.5,11.4-0.3,16.2,0.9c11.3,2.4,17.1,12.9,16.8,23.9c-0.5,16.6-9.9,35.9-25.6,43.5
			c-5.6,2.9-11.2,4.2-17.9,4.5c-11.4,0.4-22.6,0.4-33.9,0.2C322.6,138.5,323,136.6,323.8,132.6z M355.3,131.6
			c5.4-0.2,9.9-1.5,14.1-3.8c10.4-6.4,16.4-18.4,16.5-30.4c0.1-8.9-3.3-14.1-9.4-16.3c-3.1-1-6.6-1.2-10.9-0.9
			c-3.8,0.3-5.7,0.4-9.6,0.6c-3.4,17-6.8,34.1-10.3,51.1C349.6,131.9,351.5,131.8,355.3,131.6z"/>
	</g>
</g>
<path class="st9" d="M105,577.8c-7-31-17.6-121.4-3.4-195.8c7.8,1.8,11.8,2.6,19,3.3c-9.9,70.9-8.7,134.4,4.3,199.8
	C112.1,583.4,105,577.8,105,577.8z"/>
<path class="st8" d="M306.7,494.4h-11.8l-6.3-46c-1-7.2,4.7-13.7,12-13.7c7.3,0,12.9,6.4,12,13.6L306.7,494.4z"/>
<path class="st24" d="M638.6,589v-74.8c6.5-3.5,10.9-10.3,10.9-18.2c0-11-8.6-20-19.4-20.6c-4.5-6.3-12-10.7-20.9-10.7
	c-5.7,0-11.4,1.9-16.1,5.6c-2.3-0.7-4.6-1.1-7.1-1.1c-5.7,0-11.1,2.1-15.2,5.8c-1.1-0.2-2.1-0.3-3.2-0.3c-11.4,0-20.6,9.2-20.6,20.6
	c0,8.2,4.8,15.3,11.7,18.6V589c0,3.9-3.2,7-7,7v9.2h94v-9.2C641.8,596.1,638.6,592.9,638.6,589z"/>
<path class="st25" d="M587.7,589.3h-10.3v-76.2c0.7,0.4,5,2,10.3,1.6V589.3z"/>
<path class="st22" d="M628.9,507.4c-3.7,0-6.9-1.7-9-4.4c0,0-2.6,1.9-2.6,1.9c-8.9,6.9-0.7,19.3,0,25.3c0.6,5.7-3,10-8.5,10
	c-5.4,0-8.6-4.6-8.2-10c0.5-5.7,9.1-17.1-0.5-26c-1.4-1.3-2.2-1.9-3.6-3.3c-2.5,2.9-6.2,4.8-10.3,4.8c-3.5,0-6.8-1.4-9.2-3.6
	c-2.1,2.9-5.4,4.7-9.2,4.7c-6.3,0-11.4-5.1-11.4-11.4c0-6.3,5.1-11.4,11.4-11.4c2.3,0,4.5,0.7,6.3,1.9c2.2-4.4,6.8-7.4,12.1-7.4
	c3.5,0,6.6,1.3,9,3.4c2.9-4.8,8.1-8,14.1-8c7.4,0,13.6,4.8,15.7,11.4c1.3-0.5,2.6-0.7,4-0.7c6.3,0,11.4,5.1,11.4,11.4
	C640.3,502.3,635.2,507.4,628.9,507.4z"/>
<path class="st24" d="M638.7,580.4v-12.7c18.5-10.7,22.7-36.8,8.6-36.8h-8.6v-11.6h10.7C678.5,519.4,671.7,567.9,638.7,580.4z"/>
<path class="st24" d="M390.8,651v10.7h108.7V651c-4.5,0-8.1-3.6-8.1-8.1V556c8-3.9,13.5-12,13.5-21.5c0-13.1-10.7-23.8-23.8-23.8
	c-1.3,0-2.5,0.1-3.7,0.3c-4.7-4.2-10.9-6.7-17.5-6.7c-2.8,0-5.6,0.4-8.2,1.3c-5.4-4.3-12-6.5-18.6-6.5c-10.3,0-19,5.2-24.2,12.4
	c-12.5,0.7-22.5,11.1-22.5,23.8c0,9.1,5.1,17,12.6,21v86.5C399,647.3,395.3,651,390.8,651z"/>
<path class="st25" d="M457.9,557c6.1,0.5,11.1-1.4,11.9-1.9v88h-11.9V557z"/>
<path class="st22" d="M397.1,535.3c0-7.3,5.9-13.2,13.2-13.2c1.6,0,3.2,0.3,4.7,0.9c2.5-7.7,9.7-13.2,18.2-13.2
	c6.9,0,13,3.7,16.3,9.2c2.8-2.5,6.4-4,10.4-4c6.1,0,11.4,3.5,14,8.6c2.1-1.4,4.6-2.2,7.3-2.2c7.3,0,13.2,5.9,13.2,13.2
	s-5.9,13.2-13.2,13.2c-4.4,0-8.3-2.1-10.7-5.4c-2.8,2.6-6.5,4.1-10.6,4.1c-4.8,0-9.1-2.1-11.9-5.5c-1.7,1.7-2.6,2.3-4.2,3.8
	c-11.1,10.3-1.1,23.4-0.6,30c0.5,6.3-3.2,11.6-9.5,11.6c-6.5,0-10.6-5-9.9-11.6c0.7-6.9,10.2-21.3-0.1-29.3c0,0-3.1-2.1-3.1-2.1
	c-2.4,3.1-6.2,5.1-10.4,5.1C402.9,548.5,397.1,542.6,397.1,535.3z"/>
<path class="st24" d="M386.6,562.3h12.3v13.4H389c-16.4,0-11.5,30.1,9.9,42.5v14.6C360.8,618.4,352.9,562.3,386.6,562.3z"/>
<path class="st24" d="M212.8,357c-7.5,1.5-10.7,6.7-10.5,13.3c0.2,11.9,9.2,28.3,10,36.5c1.3,12.3-6.4,21.6-18.4,21.6
	c-11.7,0-18.6-9.9-17.6-21.6c0.7-8.7,11.1-23.6,9.6-36.6c-1.3-11.6-9.8-10.7-17.5-10.7c-36.6,0-66.3-4.5-66.3-10s29.7-10,66.3-10
	s66.3,4.5,66.3,10C234.7,352.5,226.1,354.3,212.8,357z"/>
<line class="st26" x1="497.9" y1="-5" x2="497.9" y2="202.5"/>
<g>
	<circle class="st27" cx="396" cy="204" r="15"/>
	<path id="globe-2-icon" class="st27" d="M497.9,202.5c-51.3,0-92.9,41.6-92.9,92.9c0,51.3,41.6,92.9,92.9,92.9
		c51.3,0,92.9-41.6,92.9-92.9C590.8,244.1,549.2,202.5,497.9,202.5z M558.8,253.1h-19.3c-3.2-9.5-7.6-18.3-13.1-26.1
		C539.5,232.4,550.8,241.6,558.8,253.1z M546.1,288.3c-0.4-7.1-1.3-14.1-2.7-21h23.2c2.7,6.6,4.5,13.6,5.2,21H546.1z M571.7,302.6
		c-0.7,7.4-2.5,14.5-5.2,21.1h-23.1c1.4-6.9,2.3-14,2.7-21.1H571.7z M505,253.1v-28.9c8.5,7.5,15,17.6,19.4,28.9L505,253.1
		L505,253.1z M528.8,267.3c1.6,6.9,2.6,14,3,21H505v-21H528.8z M490.8,223.7v29.3h-19.8C475.4,241.6,482,231.3,490.8,223.7z
		 M490.8,267.3v21h-27.3c0.4-7.1,1.4-14.1,3-21H490.8z M490.8,302.6v21.1h-24.3c-1.6-6.9-2.6-14-3-21.1H490.8z M490.8,337.9v29.6
		c-8.8-7.6-15.4-18-20-29.6H490.8z M505,367.1v-29.2h19.5C520.1,349.3,513.6,359.6,505,367.1z M505,323.7v-21.1h26.9
		c-0.4,7.1-1.4,14.2-3,21.1H505z M468.7,227.2c-5.4,7.7-9.7,16.5-12.9,25.8H437C444.9,241.8,455.8,232.7,468.7,227.2z M449.2,288.3
		H424c0.7-7.4,2.5-14.4,5.2-21h22.7C450.5,274.2,449.6,281.3,449.2,288.3z M451.9,323.7h-22.6c-2.7-6.6-4.5-13.7-5.2-21.1h25.2
		C449.5,309.7,450.4,316.8,451.9,323.7z M437,337.9h18.7c3.1,9.3,7.3,18,12.6,25.6C455.7,358,444.8,349.1,437,337.9z M526.8,363.8
		c5.4-7.8,9.7-16.5,12.8-25.9h19.1C550.8,349.3,539.7,358.4,526.8,363.8z"/>
	<path class="st27" d="M625.2,185.9c-16.4,0-29.8,13.4-29.8,29.8c0-16.4-13.3-29.8-29.8-29.8c16.4,0,29.8-13.4,29.8-29.8
		C595.5,172.5,608.8,185.9,625.2,185.9z"/>
	<path class="st27" d="M400.7,363.8c-16.4,0-29.8,13.4-29.8,29.8c0-16.4-13.3-29.8-29.8-29.8c16.4,0,29.8-13.4,29.8-29.8
		C370.9,350.5,384.2,363.8,400.7,363.8z"/>
	<path class="st27" d="M614.1,380c-12.9,0-23.3,10.5-23.3,23.3c0-12.9-10.4-23.3-23.3-23.3c12.9,0,23.3-10.5,23.3-23.3
		C590.8,369.5,601.2,380,614.1,380z"/>
	<circle class="st27" cx="354.8" cy="275.2" r="7.8"/>
	<circle class="st27" cx="613.6" cy="243.6" r="11.6"/>
	<circle class="st27" cx="453.5" cy="414.5" r="15.5"/>
	<circle class="st27" cx="476.7" cy="163.8" r="7.7"/>
	<circle class="st27" cx="638" cy="329.7" r="6"/>
	<circle class="st27" cx="546.2" cy="440.2" r="7.2"/>
</g>
<g>
	<polygon class="st28" points="922.1,645.9 758.4,645.9 741.2,530.3 904.9,530.3 	"/>
	<polygon class="st22" points="879.6,656.5 716,656.5 733.7,530.3 897.4,530.3 	"/>
	<g>
		<path d="M748.1,632.3h2.4l2.1-14.7h-2.4l0.4-2.8h14.5l-0.7,5.3h-3.2l0.3-2.1h-5.1l-0.8,5.8h6.6l-0.4,3h-6.6l-0.8,5.5h2.7l-0.4,2.8
			h-8.9L748.1,632.3z"/>
		<path d="M765,632.3h2.4l2.1-14.7H767l0.4-2.8h9c1.5,0,2.7,0.1,3.8,0.4c2.2,0.7,3.4,2.6,3,5.4c-0.4,2.8-2.2,4.8-4.6,5.6l0,0.1
			c0,0,0.6,0.3,0.9,1.1l1.8,4.2c0.2,0.5,0.6,0.7,1.3,0.7h0.7l-0.4,2.8h-2.4c-1.7,0-2.2-0.3-2.6-1.5l-2.2-5.2c-0.3-0.8-0.7-1-1.8-1
			h-1.9l-0.7,5h2.3l-0.4,2.8h-8.5L765,632.3z M775.7,624.3c2,0,3.4-1.2,3.7-3.3c0.2-1.3-0.2-2.3-1.2-2.8c-0.5-0.3-1.3-0.4-2.2-0.4
			h-2.8l-0.9,6.5H775.7z"/>
		<path d="M785.4,632.3h2.4l2.1-14.7h-2.4l0.4-2.8h8.7l-0.4,2.8h-2.5l-2.1,14.7h2.5l-0.4,2.8H785L785.4,632.3z"/>
		<path d="M796.9,632.3h2.4l2.1-14.7H799l0.4-2.8h8.8c1.6,0,2.9,0.1,4.2,0.5c3.8,1.2,5.9,4.7,5.2,9.7c-0.7,4.8-3.6,8.3-7.6,9.6
			c-1.4,0.5-2.9,0.6-4.6,0.6h-8.8L796.9,632.3z M805.6,632.1c1.3,0,2.3-0.1,3.4-0.5c2.5-0.9,4.2-3.3,4.7-6.6c0.5-3.4-0.7-5.8-3-6.7
			c-1-0.4-1.9-0.5-3.1-0.5h-2.5l-2,14.3H805.6z"/>
		<path d="M817.8,632.3h1.9l8.6-17.5h4.3l3.6,17.5h1.9l-0.4,2.8H830l0.4-2.8h2l-0.7-3.8h-6.4l-1.8,3.8h2l-0.4,2.8h-7.6L817.8,632.3z
			 M831.2,625.6l-1.1-5.8c-0.2-1-0.1-1.8-0.1-1.8h-0.1c0,0-0.2,0.8-0.6,1.8l-2.8,5.8H831.2z"/>
		<path d="M842,632.3h2.5l0.8-5.7l-4.1-9h-1.9l0.4-2.8h7.6l-0.4,2.8h-2l2.3,5.3c0.2,0.5,0.3,0.9,0.3,0.9h0.1c0,0,0.2-0.4,0.6-0.9
			l3.8-5.3H850l0.4-2.8h7.5l-0.4,2.8h-1.8l-6.7,9l-0.8,5.7h2.4l-0.4,2.8h-8.7L842,632.3z"/>
	</g>
	<g>
		<path d="M790.6,573.9c2.1-14.6,12.2-29.9,28.9-29.9c6.3,0,10.3,2.2,10.3,2.2l-3.9,8c0,0-3.1-1.7-7.3-1.7
			c-8.3,0-13.9,7.1-16.3,14.4h0.1c2.3-2.2,6.7-3.7,10.9-3.7c10.3,0,15.9,8.1,14.6,17.5c-1.4,9.9-10,17.9-20.5,17.9
			C796.2,598.6,788.5,589.4,790.6,573.9z M808.7,590c5.1,0,8.7-3.9,9.5-9.4c0.7-5.2-1.9-9.6-9-9.6c-4.7,0-8.6,2.8-9.1,6.7
			C799.3,583.3,802.7,590,808.7,590z"/>
	</g>
	<line class="st29" x1="733.2" y1="524.8" x2="905.7" y2="524.8"/>
</g>
</svg>
