<?xml version="1.0" encoding="utf-8"?>
<!-- Generator: Adobe Illustrator 19.1.0, SVG Export Plug-In . SVG Version: 6.00 Build 0)  -->
<svg version="1.1" id="Layer_1" xmlns="http://www.w3.org/2000/svg" xmlns:xlink="http://www.w3.org/1999/xlink" x="0px" y="0px"
	 viewBox="0 0 1280 720" style="enable-background:new 0 0 1280 720;" xml:space="preserve">
<style type="text/css">
	.st0{fill:#F8FCF2;}
	.st1{fill:none;stroke:#25937E;stroke-width:8;stroke-miterlimit:10;}
	.st2{fill:#FC8738;}
	.st3{fill:none;stroke:#FC8738;stroke-width:8;stroke-miterlimit:10;stroke-dasharray:12.242;}
	.st4{fill:#D2F7E1;}
	.st5{fill:#F2D4B3;}
	.st6{fill:#79DBC8;}
	.st7{fill:#32AD95;}
	.st8{fill:#919191;}
	.st9{fill:#272938;}
	.st10{fill:#B59DCB;}
	.st11{fill:#424143;}
	.st12{fill:none;}
	.st13{opacity:0.21;clip-path:url(#SVGID_2_);fill:#081110;}
	.st14{fill:#E5E6E7;}
	.st15{fill:#705F9B;}
	.st16{fill:#A19C9B;}
	.st17{fill:#D9CFE5;}
	.st18{opacity:0.21;clip-path:url(#SVGID_4_);fill:#081110;}
	.st19{fill:#95C6C2;}
	.st20{fill:none;stroke:#80B7B2;stroke-width:4.7716;stroke-miterlimit:10;}
	.st21{fill:none;stroke:#80B7B2;stroke-width:4.073;stroke-miterlimit:10;}
	.st22{fill:#FFFFFF;}
	.st23{fill:#5D5D5D;}
	.st24{fill:#BC783B;}
	.st25{fill:#CC8E5A;}
	.st26{fill:none;stroke:#65BBD6;stroke-width:8;stroke-miterlimit:10;}
	.st27{fill:#65BBD6;}
	.st28{fill:#848484;}
	.st29{fill:none;stroke:#3F414F;stroke-width:17.6432;stroke-linecap:round;stroke-miterlimit:10;}
	.st30{fill:#F7F8F9;}
	.st31{fill:#D3D3D3;}
	.st32{fill:#E6E7E8;}
	.st33{fill:#A29D9C;}
	.st34{fill:#59595C;}
	.st35{fill:#3ACCB3;}
	.st36{opacity:0.24;}
	.st37{opacity:0.38;fill:#FFFFFF;}
	.st38{opacity:0.41;}
	.st39{fill:none;stroke:#FC8738;stroke-width:8;stroke-miterlimit:10;}
	.st40{fill:none;stroke:#FC8738;stroke-width:8;stroke-miterlimit:10;stroke-dasharray:12.5689,12.5689;}
	.st41{fill:none;stroke:#FC8738;stroke-width:8;stroke-miterlimit:10;stroke-dasharray:13.1382,13.1382;}
	.st42{fill:none;stroke:#2B9E90;stroke-width:8;stroke-miterlimit:10;}
	.st43{fill:none;stroke:#2B9E90;stroke-width:8;stroke-miterlimit:10;stroke-dasharray:13.1382,13.1382;}
	.st44{fill:#7BC7D9;}
	.st45{fill:#89C8DB;}
	.st46{fill:#A1D6E5;}
	.st47{fill:#B7E3F2;}
	.st48{fill:#A3CC39;}
	.st49{fill:#D8EDF7;}
	.st50{fill:#869190;}
	.st51{fill:#5C6060;}
	.st52{fill:#F88538;}
	.st53{clip-path:url(#SVGID_6_);}
	.st54{fill:#D3F2F4;}
	.st55{fill:#E5B5D8;}
	.st56{fill:#C185B3;}
	.st57{fill:none;stroke:#848484;stroke-width:4.5128;stroke-miterlimit:10;}
	.st58{fill:none;stroke:#848484;stroke-width:4.1729;stroke-miterlimit:10;}
	.st59{fill:#F5F5F6;}
	.st60{fill:none;stroke:#C7EFEF;stroke-width:16.0374;stroke-linecap:round;stroke-miterlimit:10;}
	.st61{fill:none;stroke:#C7EFEF;stroke-width:8.0187;stroke-linecap:round;stroke-miterlimit:10;}
	.st62{fill:none;stroke:#C7EFEF;stroke-width:9.1642;stroke-linecap:round;stroke-miterlimit:10;}
	.st63{fill:none;stroke:#C7EFEF;stroke-width:13.7464;stroke-linecap:round;stroke-miterlimit:10;}
	.st64{fill:none;stroke:#C7EFEF;stroke-width:5.7276;stroke-linecap:round;stroke-miterlimit:10;}
	.st65{fill:none;stroke:#C7EFEF;stroke-width:10.3098;stroke-linecap:round;stroke-miterlimit:10;}
	.st66{fill:#8E8B8B;}
	.st67{fill:#AAAAAA;}
	.st68{fill:#C1A6DD;}
	.st69{fill:#282828;}
	.st70{fill:#B56193;}
	.st71{fill:#F7F4F0;}
	.st72{fill:#8EBC71;}
	.st73{opacity:0.4;fill:#B2E293;}
	.st74{fill:#C66F34;}
	.st75{fill:#DB8952;}
	.st76{fill:#FFE7DE;}
	.st77{fill:#374C29;}
	.st78{opacity:0.65;fill:#B2E293;}
	.st79{fill:#B2E293;}
	.st80{fill:#7A637F;}
	.st81{clip-path:url(#SVGID_8_);}
	.st82{fill:#A5E5DF;}
	.st83{opacity:0.37;clip-path:url(#SVGID_10_);}
	.st84{fill:#231F20;}
</style>
<rect class="st5" width="1280" height="720"/>
<g>
	<path class="st11" d="M522.5,240.1c-10.4-130.4-182-173.4-252.2-61.7c-45.5-25.7-103.6,4.5-107.2,57.7
		c-49.9,6.1-88.6,48.6-88.6,100.2c0,55.8,45.2,101,101,101h316.4c55.8,0,101-45.2,101-101C592.8,291.3,563.2,253.1,522.5,240.1z"/>
	<path id="code-9-icon_3_" class="st11" d="M589.8,311.9c-3,58.8-63.2,125.4-148.6,76.6c0,0-48.8,48.8-131.5,8.9
		c-48.8,23.3-108.5,20.6-134.2-8.9c-81.6,7.2-87.1-32.6-98-76.5c-2,7.8-3,16-3,24.4c0,55.7,45.2,100.9,101,100.9h316.4
		c55.7,0,100.9-45.2,100.9-100.9C592.8,327.9,591.7,319.7,589.8,311.9z"/>
</g>
<g>
	<path class="st11" d="M126.6,459.4h-2c-0.3-0.2-0.5-0.3-0.5-0.5s0.2-0.3,0.5-0.5h13.2c0.1,0,0.3,0,0.3,0.1c0.1,0.1,0.1,0.2,0.1,0.3
		s0,0.3-0.1,0.3c-0.1,0.1-0.2,0.1-0.3,0.1h-2.3l4,37.5l4.2-34.1l-0.4-3.4h-2.1c-0.1,0-0.3,0-0.4-0.1c-0.1-0.1-0.1-0.2-0.1-0.3
		s0-0.3,0.1-0.3c0.1-0.1,0.2-0.1,0.4-0.1h13.4c0.3,0.2,0.5,0.3,0.5,0.5s-0.2,0.3-0.5,0.5H152l4.1,37.5l4.2-33.3c0-0.4,0-0.7,0-1
		c0-0.9-0.1-1.5-0.4-2.1c-0.3-0.5-0.7-0.9-1.2-1l-1.3-0.1c-0.2-0.1-0.3-0.2-0.3-0.4c0-0.2,0.2-0.3,0.5-0.5h7.1
		c0.3,0.2,0.5,0.3,0.5,0.5c0,0.1,0,0.2-0.1,0.3c-0.1,0.1-0.2,0.1-0.4,0.2c-0.7,0.1-1.4,0.4-2,1.1c-0.8,0.9-1.3,2.1-1.5,3.5
		l-5.7,46.2c-0.3,2.2-0.5,3.4-0.8,3.7c-0.1,0.2-0.4,0.3-0.8,0.3H151c-0.4,0-0.7-0.1-1-0.4l-0.5-4.1l-5.4-42.6l-5.1,43.1
		c-0.3,2.4-0.5,3.6-0.6,3.7c-0.2,0.2-0.5,0.4-1.1,0.4h-3.1c-0.3,0-0.6-0.1-0.7-0.3c-0.1-0.1-0.3-1.2-0.6-3.3L126.6,459.4z"/>
	<path class="st11" d="M169.3,459.4h-2.6c-0.1,0-0.3,0-0.3-0.1c-0.1-0.1-0.1-0.2-0.1-0.3c0-0.1,0-0.3,0.1-0.4
		c0.1-0.1,0.2-0.1,0.3-0.1h13.9c0.1,0,0.3,0,0.4,0.1c0.1,0.1,0.1,0.2,0.1,0.3c0,0.1-0.1,0.3-0.1,0.4c-0.1,0.1-0.2,0.1-0.4,0.1H178
		v54h2.6c0.3,0.2,0.4,0.3,0.4,0.5c0,0.2-0.1,0.3-0.4,0.5h-14.2c-0.3-0.2-0.5-0.3-0.5-0.5s0.2-0.3,0.5-0.5h2.9V459.4z"/>
	<path class="st11" d="M193.1,459.4h-0.9c-0.6,0-1.2,0.2-1.6,0.5c-0.7,0.5-1.4,1.7-2,3.4c-1.1,2.8-1.9,6.2-2.7,10.2
		c-0.7,4-1.1,6.5-1.1,7.5v0.9c0,0.2-0.1,0.4-0.2,0.5s-0.2,0.2-0.4,0.2c-0.2,0-0.3,0-0.4-0.1c-0.1-0.1-0.2-0.3-0.2-0.5v-23.5h27.7
		V482c0,0.2-0.1,0.3-0.2,0.4c-0.1,0.1-0.3,0.2-0.4,0.2c-0.1,0-0.3-0.1-0.4-0.2c-0.1-0.1-0.2-0.3-0.2-0.4v-1.4c0-1.4-0.4-4-1.2-7.9
		c-0.8-3.8-1.7-7.1-2.8-9.7c-0.7-1.7-1.2-2.7-1.7-3c-0.4-0.3-0.9-0.5-1.3-0.5h-1.4v53.9h3.3c0.3,0.2,0.5,0.3,0.5,0.5
		s-0.2,0.3-0.5,0.5h-15.8c-0.1,0-0.3,0-0.3-0.1c-0.1-0.1-0.1-0.2-0.1-0.3s0-0.3,0.1-0.3c0.1-0.1,0.2-0.1,0.3-0.1h3.7V459.4z"/>
	<path class="st11" d="M227.9,459.4h-2c-0.3-0.2-0.5-0.3-0.5-0.5s0.2-0.3,0.5-0.5h13.2c0.1,0,0.3,0,0.3,0.1c0.1,0.1,0.1,0.2,0.1,0.3
		s0,0.3-0.1,0.3c-0.1,0.1-0.2,0.1-0.3,0.1h-2.3l4,37.5l4.2-34.1l-0.4-3.4h-2.1c-0.1,0-0.3,0-0.4-0.1c-0.1-0.1-0.1-0.2-0.1-0.3
		s0-0.3,0.1-0.3c0.1-0.1,0.2-0.1,0.4-0.1h13.4c0.3,0.2,0.5,0.3,0.5,0.5s-0.2,0.3-0.5,0.5h-2.4l4.1,37.5l4.2-33.3c0-0.4,0-0.7,0-1
		c0-0.9-0.1-1.5-0.4-2.1c-0.3-0.5-0.7-0.9-1.2-1l-1.3-0.1c-0.2-0.1-0.3-0.2-0.3-0.4c0-0.2,0.2-0.3,0.5-0.5h7.1
		c0.3,0.2,0.5,0.3,0.5,0.5c0,0.1,0,0.2-0.1,0.3c-0.1,0.1-0.2,0.1-0.4,0.2c-0.7,0.1-1.4,0.4-2,1.1c-0.8,0.9-1.3,2.1-1.5,3.5
		l-5.7,46.2c-0.3,2.2-0.5,3.4-0.8,3.7c-0.1,0.2-0.4,0.3-0.8,0.3h-3.1c-0.4,0-0.7-0.1-1-0.4l-0.5-4.1l-5.4-42.6l-5.1,43.1
		c-0.3,2.4-0.5,3.6-0.6,3.7c-0.2,0.2-0.5,0.4-1.1,0.4h-3.1c-0.3,0-0.6-0.1-0.7-0.3c-0.1-0.1-0.3-1.2-0.6-3.3L227.9,459.4z"/>
	<path class="st11" d="M270.6,459.4h-2.6c-0.1,0-0.3,0-0.3-0.1c-0.1-0.1-0.1-0.2-0.1-0.3c0-0.1,0-0.3,0.1-0.4
		c0.1-0.1,0.2-0.1,0.3-0.1H282c0.1,0,0.3,0,0.4,0.1c0.1,0.1,0.1,0.2,0.1,0.3c0,0.1-0.1,0.3-0.1,0.4c-0.1,0.1-0.2,0.1-0.4,0.1h-2.6
		v54h2.6c0.3,0.2,0.4,0.3,0.4,0.5c0,0.2-0.1,0.3-0.4,0.5h-14.2c-0.3-0.2-0.5-0.3-0.5-0.5s0.2-0.3,0.5-0.5h2.9V459.4z"/>
	<path class="st11" d="M287.4,459.4h-2.6c-0.3-0.2-0.5-0.3-0.5-0.4c0-0.1,0.2-0.3,0.5-0.5H299c0.1,0,0.3,0,0.4,0.1
		c0.1,0.1,0.1,0.2,0.1,0.3c0,0.1,0,0.3-0.1,0.4c-0.1,0.1-0.2,0.1-0.4,0.1h-2.8v53.9h1.8c1.3,0,2.4-0.3,3.4-0.9
		c1-0.6,1.9-1.9,2.8-3.9c1.3-2.9,2.3-6.1,2.9-9.6s0.9-5.7,1-6.6c0-0.3,0.1-0.6,0.2-0.7l0.3-0.1l0.3,0.1c0.1,0.1,0.2,0.2,0.2,0.3
		l-0.3,22.3h-24c-0.1,0-0.3,0-0.4-0.1c-0.1-0.1-0.1-0.2-0.1-0.3s0-0.3,0.2-0.3c0.1-0.1,0.2-0.1,0.4-0.1h2.7V459.4z"/>
	<path class="st11" d="M314,459.4h-2.6c-0.3-0.2-0.5-0.3-0.5-0.4c0-0.1,0.2-0.3,0.5-0.5h14.2c0.1,0,0.3,0,0.4,0.1
		c0.1,0.1,0.1,0.2,0.1,0.3c0,0.1,0,0.3-0.1,0.4c-0.1,0.1-0.2,0.1-0.4,0.1h-2.8v53.9h1.8c1.3,0,2.4-0.3,3.4-0.9
		c1-0.6,1.9-1.9,2.8-3.9c1.3-2.9,2.3-6.1,2.9-9.6s0.9-5.7,1-6.6c0-0.3,0.1-0.6,0.2-0.7l0.3-0.1l0.3,0.1c0.1,0.1,0.2,0.2,0.2,0.3
		l-0.3,22.3h-24c-0.1,0-0.3,0-0.4-0.1c-0.1-0.1-0.1-0.2-0.1-0.3s0-0.3,0.2-0.3c0.1-0.1,0.2-0.1,0.4-0.1h2.7V459.4z"/>
	<path class="st11" d="M352.8,513.4v-54h-2.8c-0.3-0.2-0.5-0.3-0.5-0.5c0-0.1,0.2-0.3,0.5-0.4h12.6c3.9,0,7,1.2,9.5,3.5
		c2.5,2.3,3.7,5.6,3.7,9.8c0,2.6-0.4,4.8-1.3,6.7c-0.8,1.9-2.1,3.4-3.9,4.7c-1.1,0.8-2.8,1.5-5,2.3c2.3,0.7,4.1,1.5,5.2,2.3
		c1.8,1.3,3.1,2.8,4,4.6c0.9,1.8,1.4,4,1.4,6.6c0,3.4-0.7,6.4-2,9c-0.9,1.8-2.4,3.4-4.5,4.6c-2.1,1.2-4.6,1.8-7.5,1.8h-12.2
		c-0.3-0.2-0.5-0.3-0.5-0.5s0.2-0.3,0.5-0.5H352.8z M361.5,459.4v25.5h2.3c1,0,1.8-0.2,2.3-0.7c0.5-0.4,0.8-1.2,0.8-2.2v-19.3
		c0-1.3-0.3-2.1-0.8-2.6c-0.5-0.5-1.5-0.7-3-0.7H361.5z M361.5,485.9v27.4h1.4c1.2,0,2.2-0.3,2.9-0.9c0.7-0.6,1.1-1.4,1.1-2.4v-21.6
		c0-0.9-0.2-1.6-0.6-2c-0.4-0.4-1.1-0.6-2-0.6H361.5z"/>
	<path class="st11" d="M381.5,459.4h-2.8c-0.3-0.2-0.4-0.3-0.4-0.4c0-0.2,0.1-0.3,0.4-0.5H403v20.7c-0.2,0.2-0.3,0.4-0.5,0.4
		c-0.2,0-0.3,0-0.3-0.1c-0.1-0.1-0.1-0.4-0.1-1.1c-0.2-4.1-0.9-7.9-2.2-11.4c-1.3-3.5-2.5-5.8-3.7-6.7c-0.6-0.5-1.7-0.7-3.2-0.7
		h-2.7v26.1c1.6-0.1,2.9-0.9,4-2.2c1.4-1.8,2-4.6,2-8.3v-2.9c0-0.1,0-0.2,0.1-0.3c0.1-0.1,0.2-0.1,0.4-0.1c0.1,0,0.3,0,0.3,0.1
		c0.1,0.1,0.1,0.2,0.1,0.3v27.6c0,0.1,0,0.2-0.1,0.3c-0.1,0.1-0.2,0.1-0.3,0.1c-0.1,0-0.3,0-0.4-0.1c-0.1-0.1-0.1-0.2-0.1-0.3V497
		c0-3.7-0.8-6.6-2.3-8.7c-0.9-1.2-1.9-1.9-2.9-1.9c-0.3,0-0.5,0.1-0.6,0.2c-0.2,0.2-0.3,0.4-0.3,0.8v25.9h1.4c1.2,0,2.3-0.4,3.5-1.1
		c1.1-0.8,2.2-2.1,3.2-3.9c1-1.9,1.8-3.9,2.3-6.1c0.9-3.6,1.3-6.3,1.3-8.3v-2.4c0.2-0.3,0.4-0.4,0.6-0.4s0.3,0,0.4,0.1
		c0.1,0.1,0.1,0.2,0.1,0.3v22.9h-24.2c-0.2,0-0.4,0-0.5-0.1c-0.1-0.1-0.2-0.2-0.2-0.3c0-0.1,0.1-0.3,0.2-0.3
		c0.1-0.1,0.3-0.1,0.5-0.1h2.7V459.4z"/>
	<path class="st11" d="M428.1,459.3h4.7l7.6,54.1h1.9c0.3,0.2,0.5,0.3,0.5,0.5s-0.2,0.3-0.5,0.5h-12.8c-0.1,0-0.3,0-0.3-0.1
		c-0.1-0.1-0.1-0.2-0.1-0.3s0-0.3,0.1-0.3c0.1-0.1,0.2-0.1,0.3-0.1h2l-1.1-10.6h-7.8l-0.9,6c0,0.3,0,0.7,0,1c0,1.1,0.2,1.9,0.7,2.5
		c0.5,0.6,1.1,0.9,2,1l0.7,0.2c0.1,0.1,0.2,0.2,0.2,0.4s0,0.3-0.1,0.4c-0.1,0.1-0.2,0.1-0.4,0.1h-7.3c-0.1,0-0.3,0-0.4-0.1
		c-0.1-0.1-0.1-0.2-0.1-0.4s0-0.3,0.1-0.4l0.5-0.1c0.8-0.1,1.5-0.4,1.9-1c0.7-0.9,1.2-2.3,1.5-4.3L428.1,459.3z M426.9,473.1
		l-4.3,28.7h7.5L426.9,473.1z"/>
	<path class="st11" d="M459.8,513.4v-54H457c-0.3-0.2-0.5-0.3-0.5-0.5c0-0.1,0.2-0.3,0.5-0.4h12.9c0.3,0.2,0.5,0.3,0.5,0.4
		c0,0.1-0.2,0.3-0.5,0.5h-1.4v25.4h5.5v-25.4h-1.8c-0.3-0.2-0.5-0.3-0.5-0.5s0.2-0.3,0.5-0.4h13.2c0.3,0.2,0.5,0.3,0.5,0.4
		c0,0.1-0.2,0.3-0.5,0.5h-2.6v54h2.6c0.1,0,0.3,0,0.4,0.1c0.1,0.1,0.2,0.2,0.2,0.3s-0.1,0.3-0.2,0.3c-0.1,0.1-0.2,0.1-0.4,0.1h-12.8
		c-0.1,0-0.3,0-0.4-0.1c-0.1-0.1-0.1-0.2-0.1-0.3s0.1-0.3,0.2-0.3c0.1-0.1,0.2-0.1,0.4-0.1h1.4v-27.7h-5.5v27.7h1.7
		c0.1,0,0.3,0,0.4,0.1c0.1,0.1,0.1,0.2,0.1,0.3s-0.1,0.3-0.1,0.3c-0.1,0.1-0.2,0.1-0.4,0.1H457c-0.3-0.2-0.5-0.3-0.5-0.5
		s0.2-0.3,0.5-0.5H459.8z"/>
	<path class="st11" d="M490.5,459.4H488c-0.1,0-0.3,0-0.3-0.1c-0.1-0.1-0.1-0.2-0.1-0.3c0-0.1,0-0.3,0.1-0.4
		c0.1-0.1,0.2-0.1,0.3-0.1h13.9c0.1,0,0.3,0,0.4,0.1c0.1,0.1,0.1,0.2,0.1,0.3c0,0.1-0.1,0.3-0.1,0.4c-0.1,0.1-0.2,0.1-0.4,0.1h-2.6
		v54h2.6c0.3,0.2,0.4,0.3,0.4,0.5c0,0.2-0.1,0.3-0.4,0.5h-14.2c-0.3-0.2-0.5-0.3-0.5-0.5s0.2-0.3,0.5-0.5h2.9V459.4z"/>
	<path class="st11" d="M514.3,459.4h-0.9c-0.6,0-1.2,0.2-1.6,0.5c-0.7,0.5-1.4,1.7-2,3.4c-1.1,2.8-1.9,6.2-2.7,10.2
		c-0.7,4-1.1,6.5-1.1,7.5v0.9c0,0.2-0.1,0.4-0.2,0.5s-0.2,0.2-0.4,0.2c-0.2,0-0.3,0-0.4-0.1c-0.1-0.1-0.2-0.3-0.2-0.5v-23.5h27.7
		V482c0,0.2-0.1,0.3-0.2,0.4c-0.1,0.1-0.3,0.2-0.4,0.2c-0.1,0-0.3-0.1-0.4-0.2c-0.1-0.1-0.2-0.3-0.2-0.4v-1.4c0-1.4-0.4-4-1.2-7.9
		c-0.8-3.8-1.7-7.1-2.8-9.7c-0.7-1.7-1.2-2.7-1.7-3c-0.4-0.3-0.9-0.5-1.3-0.5h-1.4v53.9h3.3c0.3,0.2,0.5,0.3,0.5,0.5
		s-0.2,0.3-0.5,0.5h-15.8c-0.1,0-0.3,0-0.3-0.1c-0.1-0.1-0.1-0.2-0.1-0.3s0-0.3,0.1-0.3c0.1-0.1,0.2-0.1,0.3-0.1h3.7V459.4z"/>
	<path class="st11" d="M539.8,499.6l-4.2-33.1c-0.2-1.7-0.3-2.6-0.3-2.8c0-1.9,0.5-3.3,1.5-4.2c1-1,2.2-1.4,3.6-1.4
		c1.4,0,2.6,0.5,3.6,1.4c1,1,1.5,2.3,1.5,4.1c0,0.5-0.1,1.5-0.3,2.9l-4.2,33.1c0,0.2-0.1,0.4-0.3,0.5l-0.3,0.1c-0.1,0-0.3,0-0.3-0.1
		C539.9,500,539.8,499.8,539.8,499.6z M540.2,505.9c1.1,0,2,0.4,2.8,1.2s1.2,1.9,1.2,3.2c0,1.4-0.4,2.5-1.2,3.3
		c-0.8,0.8-1.7,1.2-2.8,1.2c-1.1,0-1.9-0.4-2.7-1.1c-0.7-0.7-1.1-1.8-1.1-3.1c0-1.6,0.4-2.7,1.1-3.5
		C538.2,506.3,539.1,505.9,540.2,505.9z"/>
</g>
<g>
	<g>
		<path class="st22" d="M248,302c-2.1,11.9-8.1,27.5-18,46.8c-2.7,5.5-5.1,10.3-7.2,14.5c-2.1,4.2-4.2,7.7-6.1,10.5
			c-2,2.8-3.9,4.9-5.9,6.4c-2,1.4-4.2,2.1-6.6,2.1c-1.6,0-3-0.4-4.2-1.2c-1.2-0.8-2.2-2.3-3-4.6c-0.8-2.3-1.6-5.5-2.1-9.6
			c-0.6-4.1-1.1-9.5-1.5-16.2l-14.8,21.7c-1.3,2-2.6,3.6-3.8,5c-1.2,1.4-2.3,2.4-3.5,3.3c-1.1,0.8-2.3,1.4-3.5,1.8
			c-1.2,0.4-2.5,0.5-3.8,0.5c-1.9,0-3.5-0.6-4.8-1.7c-1.3-1.1-1.9-2.7-1.9-4.9c0-3.1,0-6.6,0-10.4c0-3.8,0.1-8,0.3-12.7
			c0.2-4.7,0.5-9.8,0.8-15.5c0.4-5.7,0.9-11.9,1.6-18.9c-1.6,1.8-2.9,3.1-3.9,3.9c-1.1,0.8-1.9,1.2-2.6,1.2c-0.6,0-1-0.2-1.3-0.7
			c-0.3-0.5-0.4-1.2-0.4-2c0-1.5,0.4-3.3,1.1-5.6c0.8-2.3,1.8-4.7,3.3-7.2c1.4-2.6,3.2-5.1,5.3-7.7c2.1-2.5,4.5-4.8,7.3-6.8
			c0.5-0.4,1.1-0.5,1.8-0.5c0.8,0,1.6,0.3,2.3,0.9c0.7,0.6,1.4,1.3,1.9,2.3c0.6,0.9,1,2,1.3,3.1c0.3,1.2,0.5,2.3,0.5,3.4
			c0,1.1-0.1,2-0.2,2.7c-0.2,1-0.4,1.8-0.6,2.6c-0.2,0.8-0.4,1.7-0.6,2.7c-0.2,1.1-0.5,2.5-0.7,4.2c-0.3,1.7-0.6,4-0.9,6.9
			c-0.4,3.6-0.8,7.3-1,11c-0.2,3.7-0.5,7.4-0.6,11.1c-0.2,3.7-0.3,7.5-0.5,11.3c-0.2,3.8-0.3,7.7-0.5,11.6c1-1.2,2.1-2.7,3.4-4.6
			c1.3-1.9,2.6-3.9,4-6c1.4-2.1,2.7-4.2,4.1-6.4c1.3-2.1,2.5-4.1,3.6-5.8c1.1-1.7,2-3.1,2.6-4.1l0.9-1.7c1.6-4.2,3.3-8.3,5-12.3
			c1.7-4,3.3-8,5-12c1.6-3.9,3.3-6.9,5.1-9c1.8-2.1,3.7-3.2,5.8-3.2c1.7,0,3,0.3,4.1,0.9c1,0.6,1.5,1.4,1.5,2.3
			c0,1.6-0.4,3.4-1.2,5.5c-0.8,2.1-1.7,4.4-2.7,6.8c-1,2.4-2,4.9-3,7.4s-1.7,4.9-2.2,7.2c-0.2,3.9-0.4,7.1-0.5,9.8
			c-0.1,2.7-0.2,5.2-0.2,7.4c0,2.8,0,5.7,0.1,8.8c0,3.1,0.2,6,0.6,8.8c1.8-2.6,3.6-5.4,5.6-8.3c1.9-3,3.8-6.1,5.8-9.3
			c1.9-3.2,3.7-6.5,5.5-9.8c1.8-3.3,3.4-6.7,4.9-10c1.5-3.3,2.8-6.6,3.9-9.8c1.1-3.2,2-6.3,2.5-9.2l0.9-5c0-0.2,0-0.4,0.1-0.5
			c0-0.2,0.1-0.4,0.1-0.5c0.3-1.3,0.6-2.5,0.9-3.6c0.3-1.1,0.7-2,1.2-2.7c0.5-0.7,1.2-1.3,1.9-1.7c0.8-0.4,1.7-0.6,2.9-0.6
			c1.9,0,3.3,0.2,4.2,0.6c0.9,0.4,1.3,1.3,1.3,2.7c0,0.4,0,0.9-0.1,1.3S248.1,301.3,248,302z"/>
		<path class="st22" d="M245.7,338.6c0.8-1.2,1.6-2.1,2.6-2.7c1-0.5,2-0.8,3-0.8c1.7,0,3.1,0.5,4.4,1.6c1.2,1.1,1.8,2.5,1.8,4.2
			c0,0.4-0.1,0.8-0.2,1.2c-0.1,0.4-0.2,0.8-0.4,1.2c-0.6,1.2-1.1,2.1-1.5,2.9c-0.4,0.8-0.8,1.5-1.1,2.2c-0.3,0.7-0.7,1.4-1,2
			c-0.3,0.7-0.7,1.5-1.1,2.4c-0.5,1.1-1.1,2.3-1.8,3.6c-0.7,1.3-1.3,2.6-1.9,4c-0.6,1.4-1.1,2.7-1.5,4.1c-0.4,1.3-0.6,2.5-0.6,3.7
			c0,1.2,0.3,2,0.9,2.4c0.6,0.4,1.5,0.6,2.6,0.6c1.2,0,2.5-0.3,3.9-0.8c1.4-0.5,2.7-1.2,4.1-2.1c1.4-0.8,2.7-1.8,4.1-2.9
			c1.3-1.1,2.6-2.2,3.8-3.3c1.2-1.1,2.3-2.2,3.3-3.2c1-1,1.8-1.9,2.5-2.7c0.9-0.8,1.8-1.3,2.7-1.3c0.8,0,1.5,0.4,2,1.1
			c0.5,0.7,0.8,1.6,0.8,2.7c0,1-0.3,2.1-0.8,3.3c-0.5,1.2-1.3,2.2-2.5,3.3c-2.3,2.3-4.6,4.5-6.9,6.6c-2.4,2.1-4.8,4-7.2,5.6
			c-2.5,1.6-4.9,2.9-7.4,3.9c-2.5,1-5,1.5-7.5,1.5c-3.6,0-6.4-0.9-8.5-2.8c-2.1-1.8-3.1-4.7-3.1-8.6c0-2,0.3-4,0.9-6
			c0.6-2,1.3-3.8,2.1-5.7c0.8-1.8,1.6-3.6,2.5-5.3c0.9-1.7,1.6-3.3,2.3-4.9c0.2-0.6,0.6-1.5,1.2-2.7c0.6-1.2,1.1-2.4,1.8-3.7
			C244.1,341.8,244.9,340.2,245.7,338.6z M253,323.6c0-1,0.2-2.1,0.6-3.2c0.4-1.1,0.9-2.1,1.7-3c0.8-0.9,1.7-1.6,2.8-2.2
			c1.1-0.6,2.5-0.9,4-0.9c2.6,0,4.4,0.5,5.4,1.5c1,1,1.5,2.3,1.5,3.8c0,0.8-0.2,1.8-0.5,2.8c-0.3,1-0.8,2-1.5,2.8s-1.5,1.6-2.6,2.2
			c-1.1,0.6-2.3,0.9-3.8,0.9c-2.7,0-4.7-0.4-5.8-1.3C253.7,326.2,253.1,325.1,253,323.6z"/>
		<path class="st22" d="M288.7,344.2c-1.6,3.2-3.2,6.3-4.7,9.3c-1.5,3-2.8,5.8-4.1,8.4c-0.5,1.1-1.1,2.3-1.6,3.7
			c-0.5,1.4-0.8,2.6-0.8,3.7c0,0.6,0.1,1.1,0.4,1.5c0.3,0.4,0.8,0.5,1.4,0.5c0.9,0,2.1-0.3,3.5-0.8c1.4-0.6,2.9-1.3,4.6-2.2
			c1.6-0.9,3.4-2,5.2-3.1c1.8-1.2,3.6-2.4,5.4-3.7c1.8-1.3,3.4-2.5,5-3.8s3-2.4,4.3-3.5c0.7-0.5,1.4-0.7,2-0.7c0.8,0,1.4,0.3,1.9,1
			c0.5,0.7,0.7,1.5,0.7,2.5c0,1-0.2,2.1-0.7,3.1c-0.5,1.1-1.4,2.1-2.7,3.1c-2.9,2.6-5.8,5.1-8.7,7.4c-2.9,2.4-5.9,4.4-8.8,6.2
			c-2.9,1.8-5.8,3.2-8.6,4.3c-2.8,1.1-5.6,1.6-8.2,1.6c-1.8,0-3.3-0.2-4.5-0.7c-1.2-0.5-2.2-1.1-2.9-1.9s-1.3-1.8-1.6-2.9
			c-0.3-1.1-0.5-2.2-0.5-3.5c0-2.2,0.4-4.5,1.1-6.9c0.8-2.4,1.6-4.5,2.5-6.5c1.3-2.7,2.6-5.5,4-8.2c1.3-2.7,2.6-5.3,3.8-7.8h-2.9
			c-2.5,0-4.2-0.4-5.1-1.2s-1.4-1.7-1.4-2.7c0-0.4,0.1-1,0.4-1.6c0.3-0.6,0.7-1.2,1.3-1.8c0.6-0.6,1.2-1,2-1.4
			c0.8-0.4,1.7-0.6,2.7-0.6h7.2l14-27.9c0.9-1.7,2-2.9,3.3-3.6c1.3-0.7,2.7-1.1,4.1-1.1c1.3,0,2.5,0.4,3.7,1.1
			c1.1,0.7,1.7,1.9,1.7,3.5c0,0.8-0.2,1.7-0.6,2.6c-0.4,0.9-0.9,1.9-1.5,3c-0.4,0.8-0.9,1.7-1.5,2.7c-0.6,1-1.2,2.2-1.8,3.3
			c-0.6,1.2-1.3,2.4-2,3.7c-0.7,1.3-1.4,2.5-2,3.7c-1.5,2.8-3.1,5.8-4.8,9h21.7c1.1,0,2,0.1,2.9,0.2c0.9,0.1,1.7,0.3,2.3,0.7
			c0.6,0.3,1.1,0.8,1.5,1.4c0.4,0.6,0.5,1.4,0.5,2.3c0,0.5-0.1,1-0.2,1.5c-0.2,0.5-0.4,0.9-0.9,1.3c-0.4,0.4-1,0.7-1.7,1
			c-0.7,0.3-1.7,0.4-2.8,0.5L288.7,344.2z"/>
		<path class="st22" d="M390.2,354.2c-0.2,0-0.4,0-0.6,0c-0.2,0-0.3,0-0.5,0c-2.2,4.9-4.1,9.2-5.8,12.8c-1.7,3.7-2.9,6.3-3.8,8
			c-0.8,1.4-1.6,2.6-2.6,3.6c-1,1-2,1.9-3,2.6c-1.1,0.7-2.1,1.2-3.2,1.5c-1.1,0.3-2.1,0.5-3,0.5c-1.4,0-2.5-0.3-3.5-1
			s-1.4-1.7-1.4-3c0-1.2,0.4-2.5,1.1-4.1l9.6-20.3c-4.8,0.2-9.5,0.3-13.9,0.5c-4.5,0.1-8.7,0.2-12.9,0.3c-2.1,4.3-4.3,8.3-6.7,12
			c-2.4,3.7-4.9,7-7.6,9.8c-2.7,2.8-5.4,5-8.3,6.6c-2.9,1.6-5.9,2.4-9,2.4c-2.4,0-4.6-0.6-6.7-1.9c-0.6-0.3-1.3-0.8-2-1.5
			s-1.4-1.6-2-2.6c-0.6-1-1.1-2.1-1.6-3.3c-0.4-1.2-0.6-2.4-0.6-3.7c0-0.9,0.2-1.7,0.5-2.6c0.3-0.8,0.8-1.6,1.3-2.4
			c0.3-0.3,0.6-0.7,0.9-1.2c0.4-0.5,0.8-1,1.3-1.4c0.5-0.5,1-0.9,1.6-1.2c0.6-0.3,1.2-0.5,1.8-0.5c0.3,0,0.5,0,0.8,0.1
			s0.5,0.2,0.7,0.4c0.4,0.3,0.9,0.9,1.3,1.8c0.4,0.9,0.9,1.9,1.4,2.9c0.5,1,1.1,1.9,1.7,2.7c0.6,0.8,1.4,1.2,2.2,1.2
			c1.2,0,2.4-0.5,3.6-1.4c1.2-0.9,2.5-2.2,3.7-3.8c1.3-1.6,2.5-3.6,3.8-5.8c1.3-2.3,2.6-4.7,3.9-7.4c-1.4-0.4-2.4-1.1-3-1.9
			c-0.6-0.8-0.9-1.7-0.9-2.6c0-0.5,0.2-1.1,0.6-1.6c0.4-0.5,1-1,1.7-1.4c0.7-0.4,1.5-0.8,2.5-1.1c1-0.3,2-0.5,3.2-0.5
			c1.6-3.9,3.1-8,4.6-12.2c1.5-4.2,2.9-8.3,4.2-12.4c1.3-4,2.5-7.9,3.7-11.6c1.1-3.7,2.1-7,2.9-9.9c0.8-2.9,1.5-5.3,2.1-7.2
			c0.5-1.9,0.9-3.1,1-3.6c0.4-1.4,1-2.4,2-3c1-0.6,2.1-0.9,3.2-0.9c1.7,0,3,0.6,4,1.7c0.9,1.1,1.4,3.2,1.4,6.2c0,0.4,0,0.7,0,1.1
			c0,0.4,0,0.8-0.1,1.2c-0.1,1.2-0.3,2.7-0.7,4.7c-0.4,2-0.8,4.2-1.4,6.8c-0.6,2.6-1.3,5.4-2.1,8.5c-0.8,3.1-1.8,6.3-2.8,9.6
			c-1,3.3-2.2,6.8-3.5,10.3c-1.3,3.5-2.6,7.1-4.1,10.6c1.4,0,2.9,0,4.5,0c1.6,0,3.5,0,5.6,0c2.1,0,4.4,0.1,7,0.1
			c2.6,0.1,5.6,0.1,9,0.2c0,0,0.1,0,0.1,0c0,0,0.1,0,0.1,0c3.9-8.2,7.6-15.9,11.1-23.2c3.5-7.2,6.7-13.6,9.6-19
			c2.9-5.4,5.5-9.7,7.8-12.9c2.3-3.1,4.1-4.7,5.6-4.7c1.6,0,2.7,0.4,3.5,1.1c0.8,0.7,1.2,1.7,1.2,3c0,0.7-0.1,1.3-0.2,1.8
			c-0.2,0.5-0.4,1.1-0.6,1.7c-1.2,2.8-2.6,6.2-4.4,10.3c-1.8,4.1-3.7,8.5-5.8,13.2c-2.1,4.7-4.2,9.6-6.5,14.7
			c-2.2,5.1-4.4,10-6.5,14.7c1.3,0.3,2.4,0.6,3.3,1.1c0.9,0.5,1.3,1.1,1.3,1.8c0,1-0.5,1.9-1.5,2.8
			C394.3,353.6,392.6,354.1,390.2,354.2z"/>
		<path class="st22" d="M472.4,365.3c-2,2.2-4.2,4.4-6.8,6.5c-2.6,2.1-5.3,4-8,5.6c-2.7,1.6-5.5,3-8.1,4c-2.7,1-5.1,1.5-7.2,1.5
			c-2.1,0-3.9-0.6-5.2-1.8s-2-3.2-2-6.1c0-2,0.4-4.4,1.1-7.1c-1.2,1.7-2.6,3.5-4.3,5.3c-1.7,1.8-3.7,3.4-5.9,4.9
			c-2.2,1.5-4.7,2.6-7.4,3.6c-2.7,0.9-5.7,1.4-9,1.4c-1.5,0-2.9-0.2-4.2-0.5c-1.4-0.3-2.5-0.8-3.6-1.6c-1-0.8-1.8-1.8-2.5-3
			c-0.6-1.3-0.9-2.8-0.9-4.8c0,0,0.1-0.7,0.3-2c0.2-1.3,0.7-3.4,1.7-6.2c1-2.8,2.4-6.5,4.4-10.9c2-4.5,4.8-9.9,8.4-16.3
			c0.9-1.7,2-2.9,3.2-3.6c1.2-0.7,2.5-1.1,4-1.1c0.6,0,1.3,0.1,1.9,0.2s1.3,0.4,1.9,0.7c0.6,0.3,1,0.8,1.4,1.3
			c0.4,0.5,0.5,1.1,0.5,1.8c0,0.4-0.1,0.9-0.2,1.3c-0.2,0.8-0.7,1.7-1.4,3c-0.7,1.2-1.6,2.6-2.6,4.2c-1,1.6-2,3.3-3.1,5.1
			c-1.1,1.8-2.1,3.7-3,5.7c-0.9,2-1.7,3.9-2.4,6c-0.7,2-1,4-1.1,5.9c0,0.8,0.2,1.5,0.7,2.2c0.4,0.7,1.2,1,2.2,1
			c2.9,0,5.6-0.8,8.2-2.4c2.6-1.6,5-3.6,7.2-6c2.2-2.4,4.2-4.9,6-7.6c1.8-2.7,3.3-5.2,4.5-7.5c0.8-1.5,1.6-3.1,2.2-4.9
			c0.6-1.7,1.3-3.3,2.1-4.8c0.8-1.5,1.6-2.7,2.6-3.7c1-1,2.2-1.5,3.7-1.5c1.6,0,2.9,0.5,3.8,1.5s1.4,2.2,1.4,3.7
			c0,0.8-0.3,1.9-0.9,3.3c-0.6,1.4-1.4,3-2.3,4.8c-0.9,1.8-1.9,3.7-3,5.8c-1.1,2-2.1,4.1-3,6.2c-0.9,2.1-1.7,4.2-2.3,6.2
			c-0.6,2-0.9,3.9-0.9,5.6c0,1.6,1,2.4,2.9,2.4c1.4,0,3.1-0.4,5.1-1.2c2-0.8,4.2-1.9,6.4-3.4c2.2-1.4,4.5-3.1,6.7-5.1
			c2.2-2,4.2-4.1,6-6.3L472.4,365.3z"/>
		<path class="st22" d="M502.2,370.7c-3.8,4.5-7.8,7.8-12,9.9c-4.2,2.1-8.8,3.2-13.7,3.2c-2.7,0-5-0.4-6.9-1.2
			c-1.9-0.8-3.4-1.8-4.5-3.2c-1.2-1.3-2-2.9-2.5-4.7c-0.5-1.8-0.8-3.7-0.8-5.7c0-2.3,0.3-4.6,0.9-7c0.6-2.4,1.3-4.8,2.3-7
			c0.6-1.5,1.1-2.7,1.5-3.7c0.4-1,0.7-1.8,1-2.5s0.5-1.3,0.7-1.8c0.2-0.5,0.4-1,0.6-1.6c0.2-0.6,0.5-1.2,0.8-1.9
			c0.3-0.7,0.7-1.7,1.3-2.8l19.4-43.2c0.3-0.6,0.7-1.1,1.2-1.7c0.5-0.5,1.1-1,1.8-1.4c0.7-0.4,1.4-0.8,2.2-1
			c0.8-0.2,1.6-0.4,2.4-0.4c2,0,3.5,0.4,4.3,1.2c0.8,0.8,1.2,1.8,1.2,2.9c0,0.9-0.2,1.9-0.7,2.9c-0.4,1-0.9,2-1.5,2.9
			c-3.3,6.3-6.4,12.7-9.3,19.2c-2.9,6.5-6,12.9-9.3,19.3c1.4-1.1,2.9-2.2,4.5-3.2c1.6-1,3.3-2,5-2.8c1.7-0.8,3.5-1.5,5.4-2
			c1.9-0.5,3.8-0.8,5.7-0.8c1.4,0,2.8,0.3,4.2,0.8c1.4,0.5,2.7,1.3,3.9,2.3c1.2,1,2.1,2.3,2.9,3.8s1.1,3.2,1.1,5.2
			c0,0.4-0.1,1.3-0.4,2.7s-0.7,2.8-1.2,4.5c-0.5,1.7-1.1,3.4-1.9,5.1c-0.7,1.8-1.5,3.3-2.4,4.6c0.3,0.5,0.7,0.8,1.2,0.9
			c0.5,0.1,1,0.2,1.7,0.2c2,0,4.1-0.3,6.1-0.8c2-0.5,3.9-1.2,5.7-2c1.8-0.8,3.4-1.6,5-2.4c1.5-0.8,2.8-1.6,3.8-2.2
			c0.5-0.6,1.1-0.9,1.7-0.9c0.8,0,1.4,0.3,2,1c0.6,0.7,0.8,1.5,0.8,2.6c0,1-0.2,2-0.6,3c-0.4,1-1.2,2.1-2.3,3.3c-2,1.2-4,2.3-6,3.4
			c-2,1.1-4.1,2-6.2,2.8c-2.1,0.8-4.2,1.4-6.4,1.9c-2.2,0.5-4.3,0.7-6.6,0.7c-1.4,0-2.7-0.2-3.9-0.6
			C504.2,372.1,503.1,371.5,502.2,370.7z M496.6,343.9c-2.5,0-5.1,0.6-7.6,1.8c-2.5,1.2-4.8,2.8-6.8,4.8c-2,2-3.7,4.2-5,6.8
			c-1.3,2.5-1.9,5-1.9,7.6c0,0.7,0.1,1.4,0.2,2.2s0.4,1.4,0.8,2c0.4,0.6,1,1.1,1.8,1.5c0.8,0.4,1.9,0.6,3.2,0.6
			c2.6,0,5.1-0.6,7.5-1.8c2.4-1.2,4.6-2.8,6.5-4.8c1.9-2,3.4-4.2,4.6-6.8c1.2-2.5,1.7-5,1.7-7.5c0-0.7-0.1-1.4-0.2-2.1
			c-0.1-0.8-0.3-1.4-0.7-2.1c-0.4-0.6-0.9-1.1-1.5-1.6C498.6,344.1,497.7,343.9,496.6,343.9z"/>
	</g>
</g>
</svg>
