<?xml version="1.0" encoding="utf-8"?>
<!-- Generator: Adobe Illustrator 19.1.0, SVG Export Plug-In . SVG Version: 6.00 Build 0)  -->
<svg version="1.1" id="Layer_1" xmlns="http://www.w3.org/2000/svg" xmlns:xlink="http://www.w3.org/1999/xlink" x="0px" y="0px"
	 viewBox="0 0 1280 720" style="enable-background:new 0 0 1280 720;" xml:space="preserve">
<style type="text/css">
	.st0{fill:#F8FCF2;}
	.st1{fill:none;stroke:#25937E;stroke-width:8;stroke-miterlimit:10;}
	.st2{fill:#FC8738;}
	.st3{fill:none;stroke:#FC8738;stroke-width:8;stroke-miterlimit:10;stroke-dasharray:12.242;}
	.st4{fill:#D2F7E1;}
	.st5{fill:#F2D4B3;}
	.st6{fill:#79DBC8;}
	.st7{fill:#32AD95;}
	.st8{fill:#919191;}
	.st9{fill:#272938;}
	.st10{fill:#B59DCB;}
	.st11{fill:#424143;}
	.st12{fill:none;}
	.st13{opacity:0.21;clip-path:url(#SVGID_2_);fill:#081110;}
	.st14{fill:#E5E6E7;}
	.st15{fill:#705F9B;}
	.st16{fill:#A19C9B;}
	.st17{fill:#D9CFE5;}
	.st18{opacity:0.21;clip-path:url(#SVGID_4_);fill:#081110;}
	.st19{fill:#95C6C2;}
	.st20{fill:none;stroke:#80B7B2;stroke-width:4.7716;stroke-miterlimit:10;}
	.st21{fill:none;stroke:#80B7B2;stroke-width:4.073;stroke-miterlimit:10;}
	.st22{fill:#FFFFFF;}
	.st23{fill:#5D5D5D;}
	.st24{fill:#BC783B;}
	.st25{fill:#CC8E5A;}
	.st26{fill:none;stroke:#65BBD6;stroke-width:8;stroke-miterlimit:10;}
	.st27{fill:#65BBD6;}
	.st28{fill:#848484;}
	.st29{fill:none;stroke:#3F414F;stroke-width:17.6432;stroke-linecap:round;stroke-miterlimit:10;}
	.st30{fill:#F7F8F9;}
	.st31{fill:#D3D3D3;}
	.st32{fill:#E6E7E8;}
	.st33{fill:#A29D9C;}
	.st34{fill:#59595C;}
	.st35{fill:#3ACCB3;}
	.st36{opacity:0.24;}
	.st37{opacity:0.38;fill:#FFFFFF;}
	.st38{opacity:0.41;}
	.st39{fill:none;stroke:#FC8738;stroke-width:8;stroke-miterlimit:10;}
	.st40{fill:none;stroke:#FC8738;stroke-width:8;stroke-miterlimit:10;stroke-dasharray:12.5689,12.5689;}
	.st41{fill:none;stroke:#FC8738;stroke-width:8;stroke-miterlimit:10;stroke-dasharray:13.1382,13.1382;}
	.st42{fill:none;stroke:#2B9E90;stroke-width:8;stroke-miterlimit:10;}
	.st43{fill:none;stroke:#2B9E90;stroke-width:8;stroke-miterlimit:10;stroke-dasharray:13.1382,13.1382;}
	.st44{fill:#7BC7D9;}
	.st45{fill:#89C8DB;}
	.st46{fill:#A1D6E5;}
	.st47{fill:#B7E3F2;}
	.st48{fill:#A3CC39;}
	.st49{fill:#D8EDF7;}
	.st50{fill:#869190;}
	.st51{fill:#5C6060;}
	.st52{fill:#F88538;}
	.st53{clip-path:url(#SVGID_6_);}
	.st54{fill:#D3F2F4;}
	.st55{fill:#E5B5D8;}
	.st56{fill:#C185B3;}
	.st57{fill:none;stroke:#848484;stroke-width:4.5128;stroke-miterlimit:10;}
	.st58{fill:none;stroke:#848484;stroke-width:4.1729;stroke-miterlimit:10;}
	.st59{fill:#F5F5F6;}
	.st60{fill:none;stroke:#C7EFEF;stroke-width:16.0374;stroke-linecap:round;stroke-miterlimit:10;}
	.st61{fill:none;stroke:#C7EFEF;stroke-width:8.0187;stroke-linecap:round;stroke-miterlimit:10;}
	.st62{fill:none;stroke:#C7EFEF;stroke-width:9.1642;stroke-linecap:round;stroke-miterlimit:10;}
	.st63{fill:none;stroke:#C7EFEF;stroke-width:13.7464;stroke-linecap:round;stroke-miterlimit:10;}
	.st64{fill:none;stroke:#C7EFEF;stroke-width:5.7276;stroke-linecap:round;stroke-miterlimit:10;}
	.st65{fill:none;stroke:#C7EFEF;stroke-width:10.3098;stroke-linecap:round;stroke-miterlimit:10;}
	.st66{fill:#8E8B8B;}
	.st67{fill:#AAAAAA;}
	.st68{fill:#C1A6DD;}
	.st69{fill:#282828;}
	.st70{fill:#B56193;}
	.st71{fill:#F7F4F0;}
	.st72{fill:#8EBC71;}
	.st73{opacity:0.4;fill:#B2E293;}
	.st74{fill:#C66F34;}
	.st75{fill:#DB8952;}
	.st76{fill:#FFE7DE;}
	.st77{fill:#374C29;}
	.st78{opacity:0.65;fill:#B2E293;}
	.st79{fill:#B2E293;}
	.st80{fill:#7A637F;}
	.st81{clip-path:url(#SVGID_8_);}
	.st82{fill:#A5E5DF;}
	.st83{opacity:0.37;clip-path:url(#SVGID_10_);}
	.st84{fill:#231F20;}
</style>
<rect class="st4" width="1280" height="720"/>
<rect x="77.9" y="278.1" class="st30" width="424.8" height="275.7"/>
<g>
	<path class="st31" d="M357.7,501H109.8c-5.9,0-10.6-4.8-10.6-10.6v-185c0-5.9,4.8-10.6,10.6-10.6h247.8c5.9,0,10.6,4.8,10.6,10.6
		v185C368.3,496.3,363.5,501,357.7,501z"/>
	<rect x="99.2" y="326.8" class="st32" width="269.1" height="162.9"/>
	<rect x="99.2" y="314.6" class="st32" width="269.1" height="15.6"/>
	<g>
		<circle class="st33" cx="110.6" cy="304.7" r="3.2"/>
		<circle class="st33" cx="122.1" cy="304.7" r="3.2"/>
		<circle class="st33" cx="133.6" cy="304.7" r="3.2"/>
	</g>
</g>
<path class="st11" d="M373.1,658H211.3c-1.4,0-2.6-1.2-2.6-2.6v-38c0-1.4,1.2-2.6,2.6-2.6h161.8c1.4,0,2.6,1.2,2.6,2.6v38
	C375.7,656.8,374.5,658,373.1,658z"/>
<g>
	<path class="st34" d="M260.7,553.7v87.5h62.2v-87.5H260.7z M300.4,592.4c0,4.8-3.9,8.6-8.6,8.6s-8.6-3.9-8.6-8.6v-31.1h17.2V592.4z
		"/>
	<path class="st11" d="M498.9,563.1H84.6c-7.3,0-13.2-5.9-13.2-13.2v-267c0-7.3,5.9-13.2,13.2-13.2h414.3c7.3,0,13.2,5.9,13.2,13.2
		v267C512.1,557.2,506.2,563.1,498.9,563.1z M88.2,546.3h407V286.6h-407V546.3z"/>
	<rect x="220.7" y="629.8" class="st11" width="142.1" height="21.5"/>
</g>
<g>
	<path class="st35" d="M460.7,347.2h-89.9c-8.4,0-15.1-6.8-15.1-15.1V317c0-8.4,6.8-15.1,15.1-15.1h89.9c8.4,0,15.1,6.8,15.1,15.1
		v15.1C475.8,340.5,469.1,347.2,460.7,347.2z"/>
</g>
<rect x="369.1" y="313" class="st36" width="93.2" height="5"/>
<rect x="369.6" y="322.2" class="st36" width="93.8" height="5.1"/>
<rect x="368.9" y="332.4" class="st36" width="73.2" height="5.1"/>
<g>
	<g>
		<path class="st31" d="M465.2,533.2h-144c-5.9,0-10.6-4.8-10.6-10.6V367.2c0-5.9,4.8-10.6,10.6-10.6h144c5.9,0,10.6,4.8,10.6,10.6
			v155.4C475.8,528.4,471.1,533.2,465.2,533.2z"/>
		<rect x="310.6" y="388.6" class="st35" width="165.3" height="133.2"/>
		<rect x="310.6" y="376.5" class="st7" width="165.3" height="15.6"/>
		<g>
			<circle class="st33" cx="322" cy="366.6" r="3.2"/>
			<circle class="st33" cx="333.5" cy="366.6" r="3.2"/>
			<circle class="st33" cx="345" cy="366.6" r="3.2"/>
		</g>
	</g>
	<rect x="330.3" y="408.2" class="st37" width="128.7" height="113.6"/>
	<g>
		<path class="st11" d="M421.7,440.1c-1.6-20.2-28.2-26.9-39.1-9.6c-7.1-4-16.1,0.7-16.6,9c-7.7,0.9-13.7,7.5-13.7,15.5
			c0,8.6,7,15.7,15.7,15.7H417c8.6,0,15.7-7,15.7-15.7C432.6,448,428,442.1,421.7,440.1z"/>
	</g>
	<rect x="352.2" y="480.6" class="st38" width="81" height="6.3"/>
	<rect x="352.2" y="491.7" class="st38" width="81" height="6.3"/>
	<rect x="352.2" y="503.2" class="st38" width="81" height="6.3"/>
</g>
<g>
	<g>
		<line class="st39" x1="474.8" y1="444.9" x2="481.2" y2="444.9"/>
		<line class="st40" x1="493.8" y1="444.9" x2="537.8" y2="444.9"/>
		<polyline class="st39" points="544.1,444.9 550.6,444.9 550.6,438.4 		"/>
		<line class="st41" x1="550.6" y1="425.2" x2="550.6" y2="195.3"/>
		<line class="st39" x1="550.6" y1="188.8" x2="550.6" y2="182.3"/>
	</g>
</g>
<g>
	<g>
		<line class="st42" x1="157.5" y1="435.8" x2="157.5" y2="429.3"/>
		<line class="st43" x1="157.5" y1="416.1" x2="157.5" y2="186.2"/>
		<line class="st42" x1="157.5" y1="179.6" x2="157.5" y2="173.1"/>
	</g>
</g>
<g>
	<g>
		<line class="st42" x1="179.7" y1="133.7" x2="186.2" y2="133.7"/>
		<line class="st43" x1="199.4" y1="133.7" x2="429.3" y2="133.7"/>
		<line class="st42" x1="435.9" y1="133.7" x2="442.4" y2="133.7"/>
	</g>
</g>
<g>
	<polygon class="st12" points="128.7,55.4 121.8,72.5 130.1,72.5 136.9,55.4 	"/>
	<circle class="st12" cx="208.3" cy="64" r="5.7"/>
	<polygon class="st12" points="135.2,72.5 143.5,72.5 150.3,55.4 142,55.4 	"/>
	<polygon class="st12" points="88.5,55.4 81.7,72.5 90,72.5 96.8,55.4 	"/>
	<polygon class="st12" points="115.3,55.4 108.5,72.5 116.7,72.5 123.5,55.4 	"/>
	<polygon class="st12" points="101.9,55.4 95.1,72.5 103.3,72.5 110.2,55.4 	"/>
	<polygon class="st12" points="88.5,148 81.7,165.1 90,165.1 96.8,148 	"/>
	<circle class="st12" cx="208.3" cy="156.5" r="5.7"/>
	<polygon class="st12" points="115.3,148 108.5,165.1 116.7,165.1 123.5,148 	"/>
	<polygon class="st12" points="128.7,148 121.8,165.1 130.1,165.1 136.9,148 	"/>
	<polygon class="st12" points="135.2,165.1 143.5,165.1 150.3,148 142,148 	"/>
	<polygon class="st12" points="101.9,148 95.1,165.1 103.3,165.1 110.2,148 	"/>
	<polygon class="st12" points="88.5,194.3 81.7,211.4 90,211.4 96.8,194.3 	"/>
	<circle class="st12" cx="208.3" cy="202.8" r="5.7"/>
	<polygon class="st12" points="115.3,194.3 108.5,211.4 116.7,211.4 123.5,194.3 	"/>
	<polygon class="st12" points="128.7,194.3 121.8,211.4 130.1,211.4 136.9,194.3 	"/>
	<polygon class="st12" points="135.2,211.4 143.5,211.4 150.3,194.3 142,194.3 	"/>
	<polygon class="st12" points="101.9,194.3 95.1,211.4 103.3,211.4 110.2,194.3 	"/>
	<polygon class="st12" points="88.5,101.7 81.7,118.8 90,118.8 96.8,101.7 	"/>
	<polygon class="st12" points="135.2,118.8 143.5,118.8 150.3,101.7 142,101.7 	"/>
	<polygon class="st12" points="115.3,101.7 108.5,118.8 116.7,118.8 123.5,101.7 	"/>
	<polygon class="st12" points="128.7,101.7 121.8,118.8 130.1,118.8 136.9,101.7 	"/>
	<polygon class="st12" points="101.9,101.7 95.1,118.8 103.3,118.8 110.2,101.7 	"/>
	<circle class="st12" cx="208.3" cy="110.3" r="5.7"/>
	<polygon class="st44" points="81.7,165.1 90,165.1 96.8,148 88.5,148 	"/>
	<g>
		<polygon class="st44" points="81.7,72.5 90,72.5 96.8,55.4 88.5,55.4 		"/>
		<polygon class="st44" points="81.7,211.4 90,211.4 96.8,194.3 88.5,194.3 		"/>
		<polygon class="st44" points="81.7,118.8 90,118.8 96.8,101.7 88.5,101.7 		"/>
	</g>
	<g>
		<polygon class="st45" points="110.2,55.4 101.9,55.4 95.1,72.5 103.3,72.5 		"/>
		<polygon class="st45" points="110.2,148 101.9,148 95.1,165.1 103.3,165.1 		"/>
		<polygon class="st45" points="110.2,194.3 101.9,194.3 95.1,211.4 103.3,211.4 		"/>
		<polygon class="st45" points="110.2,101.7 101.9,101.7 95.1,118.8 103.3,118.8 		"/>
	</g>
	<g>
		<polygon class="st46" points="123.5,55.4 115.3,55.4 108.5,72.5 116.7,72.5 		"/>
		<polygon class="st46" points="123.5,148 115.3,148 108.5,165.1 116.7,165.1 		"/>
		<polygon class="st46" points="123.5,194.3 115.3,194.3 108.5,211.4 116.7,211.4 		"/>
		<polygon class="st46" points="123.5,101.7 115.3,101.7 108.5,118.8 116.7,118.8 		"/>
	</g>
	<g>
		<polygon class="st47" points="136.9,55.4 128.7,55.4 121.8,72.5 130.1,72.5 		"/>
		<polygon class="st47" points="136.9,148 128.7,148 121.8,165.1 130.1,165.1 		"/>
		<polygon class="st47" points="136.9,194.3 128.7,194.3 121.8,211.4 130.1,211.4 		"/>
		<polygon class="st47" points="136.9,101.7 128.7,101.7 121.8,118.8 130.1,118.8 		"/>
	</g>
	<g>
		<rect x="192.9" y="52" class="st48" width="24.5" height="22.5"/>
		<rect x="192.4" y="148.5" class="st48" width="26.5" height="20.5"/>
		<rect x="192.4" y="194.7" class="st48" width="26.5" height="20.5"/>
		<rect x="194.4" y="97.7" class="st48" width="22.5" height="25"/>
	</g>
	<g>
		<polygon class="st49" points="150.3,55.4 142,55.4 135.2,72.5 143.5,72.5 		"/>
		<polygon class="st49" points="150.3,148 142,148 135.2,165.1 143.5,165.1 		"/>
		<polygon class="st49" points="150.3,194.3 142,194.3 135.2,211.4 143.5,211.4 		"/>
		<polygon class="st49" points="150.3,101.7 142,101.7 135.2,118.8 143.5,118.8 		"/>
	</g>
	<rect x="71.4" y="172.5" class="st50" width="155.3" height="14.8"/>
	<rect x="71.4" y="80.6" class="st50" width="155.3" height="14.8"/>
	<rect x="71.4" y="125.1" class="st50" width="155.3" height="14.8"/>
	<path class="st51" d="M226.7,44.5H71.4v38.9h155.3L226.7,44.5L226.7,44.5z M81.7,72.5l6.8-17.1h8.2L90,72.5H81.7z M95.1,72.5
		l6.8-17.1h8.2l-6.8,17.1H95.1z M108.5,72.5l6.8-17.1h8.2l-6.8,17.1H108.5z M121.8,72.5l6.8-17.1h8.2l-6.8,17.1H121.8z M143.5,72.5
		h-8.2l6.8-17.1h8.2L143.5,72.5z M208.3,69.7c-3.1,0-5.7-2.6-5.7-5.7c0-3.1,2.6-5.7,5.7-5.7c3.2,0,5.7,2.6,5.7,5.7
		C214,67.1,211.4,69.7,208.3,69.7z"/>
	<path class="st51" d="M71.4,137.1V176h155.3v-38.9H71.4z M81.7,165.1l6.8-17.1h8.2L90,165.1H81.7z M95.1,165.1l6.8-17.1h8.2
		l-6.8,17.1H95.1z M108.5,165.1l6.8-17.1h8.2l-6.8,17.1H108.5z M121.8,165.1l6.8-17.1h8.2l-6.8,17.1H121.8z M143.5,165.1h-8.2
		L142,148h8.2L143.5,165.1z"/>
	<path class="st51" d="M71.4,183.4v38.9h155.3v-38.9h0H71.4z M81.7,211.4l6.8-17.1h8.2L90,211.4H81.7z M95.1,211.4l6.8-17.1h8.2
		l-6.8,17.1H95.1z M108.5,211.4l6.8-17.1h8.2l-6.8,17.1H108.5z M121.8,211.4l6.8-17.1h8.2l-6.8,17.1H121.8z M143.5,211.4h-8.2
		l6.8-17.1h8.2L143.5,211.4z M208.3,208.5c-3.1,0-5.7-2.6-5.7-5.7c0-3.2,2.6-5.7,5.7-5.7c3.2,0,5.7,2.6,5.7,5.7
		C214,206,211.4,208.5,208.3,208.5z"/>
	<path class="st51" d="M71.4,90.8v38.9h138.8V90.8H71.4z M81.7,118.8l6.8-17.1h8.2L90,118.8H81.7z M95.1,118.8l6.8-17.1h8.2
		l-6.8,17.1H95.1z M108.5,118.8l6.8-17.1h8.2l-6.8,17.1H108.5z M121.8,118.8l6.8-17.1h8.2l-6.8,17.1H121.8z M143.5,118.8h-8.2
		l6.8-17.1h8.2L143.5,118.8z"/>
	<circle class="st51" cx="208.2" cy="133.4" r="42.6"/>
	<circle class="st22" cx="208.2" cy="133.4" r="34.1"/>
	<g>
		<g>
			<path class="st52" d="M217.2,148.7l2.6,2.6l-3.9,3.9l3.4,3.4l1.8-1.8l0,0c-0.7-0.7-0.6-1.9,0-2.6l1.1-1.1c0.7-0.7,1.8-0.7,2.5,0
				l0,0l1.1-1.1l0.5,0.5c0.7,0.7,1.9,0.7,2.6,0c0.7-0.7,0.7-1.9,0-2.6l-25.2-25.2c3-4.1,2.9-9.6-0.5-13c-3.8-3.8-10.2-3.4-14.4,0.8
				c-4.2,4.2-4.5,10.7-0.8,14.4c3.4,3.4,8.9,3.5,13,0.4l14.9,14.9l-1.1,1.1c0.7,0.9,0.4,1.7-0.2,2.3l-1.1,1.1
				c-0.6,0.6-1.4,0.9-2.3,0.2l-1.9,1.9l3.7,3.7L217.2,148.7z M201.1,120.2c-1,1-2.3,1.4-3.6,1.1c0.2,1.3-0.2,2.6-1.1,3.6
				c-1.6,1.6-4.2,1.6-5.8,0c-1.6-1.6-1.6-4.2,0-5.8c1-1,2.3-1.4,3.6-1.1c-0.2-1.3,0.2-2.6,1.1-3.6c1.6-1.6,4.2-1.6,5.8,0
				C202.7,116,202.7,118.6,201.1,120.2z"/>
		</g>
	</g>
</g>
<g>
	<path class="st11" d="M572.5,102.8C567.2,36,479.3,14,443.4,71.2c-23.3-13.2-53,2.3-54.9,29.6c-25.5,3.1-45.3,24.9-45.3,51.3
		c0,28.5,23.1,51.7,51.7,51.7h162c28.5,0,51.7-23.1,51.7-51.7C608.5,129,593.4,109.4,572.5,102.8z"/>
</g>
<g>
	<g>
		<path class="st22" d="M432,134.4c-1.1,6.1-4.2,14.1-9.2,24c-1.4,2.8-2.6,5.3-3.7,7.4s-2.1,3.9-3.1,5.4c-1,1.4-2,2.5-3,3.3
			c-1,0.7-2.1,1.1-3.4,1.1c-0.8,0-1.6-0.2-2.1-0.6c-0.6-0.4-1.1-1.2-1.5-2.4c-0.4-1.2-0.8-2.8-1.1-4.9c-0.3-2.1-0.6-4.9-0.8-8.3
			l-7.6,11.1c-0.7,1-1.3,1.8-1.9,2.5c-0.6,0.7-1.2,1.2-1.8,1.7s-1.2,0.7-1.8,0.9c-0.6,0.2-1.3,0.3-1.9,0.3c-1,0-1.8-0.3-2.4-0.9
			s-1-1.4-1-2.5c0-1.6,0-3.4,0-5.3c0-1.9,0.1-4.1,0.2-6.5c0.1-2.4,0.2-5,0.4-7.9c0.2-2.9,0.5-6.1,0.8-9.7c-0.8,0.9-1.5,1.6-2,2
			c-0.5,0.4-1,0.6-1.3,0.6c-0.3,0-0.5-0.1-0.6-0.4c-0.1-0.2-0.2-0.6-0.2-1c0-0.7,0.2-1.7,0.6-2.9c0.4-1.2,0.9-2.4,1.7-3.7
			c0.7-1.3,1.6-2.6,2.7-3.9s2.3-2.5,3.7-3.5c0.3-0.2,0.6-0.3,0.9-0.3c0.4,0,0.8,0.1,1.2,0.4c0.4,0.3,0.7,0.7,1,1.2
			c0.3,0.5,0.5,1,0.7,1.6c0.2,0.6,0.3,1.2,0.3,1.7c0,0.5,0,1-0.1,1.4c-0.1,0.5-0.2,0.9-0.3,1.3s-0.2,0.9-0.3,1.4
			c-0.1,0.5-0.2,1.3-0.4,2.1c-0.1,0.9-0.3,2-0.5,3.5c-0.2,1.9-0.4,3.7-0.5,5.6c-0.1,1.9-0.2,3.8-0.3,5.7c-0.1,1.9-0.2,3.9-0.3,5.8
			c-0.1,2-0.2,3.9-0.3,5.9c0.5-0.6,1.1-1.4,1.7-2.4s1.3-2,2-3.1s1.4-2.2,2.1-3.3c0.7-1.1,1.3-2.1,1.8-3c0.6-0.9,1-1.6,1.3-2.1
			l0.5-0.9c0.8-2.1,1.7-4.2,2.6-6.3c0.9-2.1,1.7-4.1,2.6-6.2c0.8-2,1.7-3.5,2.6-4.6c0.9-1.1,1.9-1.6,3-1.6c0.9,0,1.6,0.2,2.1,0.5
			c0.5,0.3,0.8,0.7,0.8,1.2c0,0.8-0.2,1.7-0.6,2.8c-0.4,1.1-0.9,2.2-1.4,3.5c-0.5,1.2-1,2.5-1.5,3.8s-0.9,2.5-1.1,3.7
			c-0.1,2-0.2,3.7-0.3,5c-0.1,1.4-0.1,2.7-0.1,3.8c0,1.4,0,2.9,0,4.5c0,1.6,0.1,3.1,0.3,4.5c0.9-1.3,1.9-2.7,2.8-4.3
			c1-1.5,2-3.1,2.9-4.8c1-1.6,1.9-3.3,2.8-5c0.9-1.7,1.7-3.4,2.5-5.1c0.8-1.7,1.4-3.4,2-5c0.6-1.6,1-3.2,1.3-4.7l0.4-2.6
			c0-0.1,0-0.2,0-0.3c0-0.1,0-0.2,0-0.3c0.1-0.7,0.3-1.3,0.4-1.8c0.2-0.5,0.4-1,0.6-1.4c0.3-0.4,0.6-0.7,1-0.9
			c0.4-0.2,0.9-0.3,1.5-0.3c1,0,1.7,0.1,2.1,0.3c0.4,0.2,0.7,0.7,0.7,1.4c0,0.2,0,0.5-0.1,0.7C432.1,133.8,432,134.1,432,134.4z"/>
		<path class="st22" d="M430.8,153.2c0.4-0.6,0.8-1.1,1.3-1.4c0.5-0.3,1-0.4,1.5-0.4c0.9,0,1.6,0.3,2.2,0.8c0.6,0.6,0.9,1.3,0.9,2.1
			c0,0.2-0.1,0.4-0.1,0.6c0,0.2-0.1,0.4-0.2,0.6c-0.3,0.6-0.6,1.1-0.8,1.5c-0.2,0.4-0.4,0.8-0.6,1.1c-0.2,0.4-0.3,0.7-0.5,1
			c-0.2,0.3-0.4,0.7-0.6,1.2c-0.3,0.6-0.6,1.2-0.9,1.9s-0.7,1.4-1,2.1c-0.3,0.7-0.6,1.4-0.8,2.1c-0.2,0.7-0.3,1.3-0.3,1.9
			c0,0.6,0.2,1,0.5,1.2c0.3,0.2,0.7,0.3,1.3,0.3c0.6,0,1.3-0.1,2-0.4s1.4-0.6,2.1-1.1c0.7-0.4,1.4-0.9,2.1-1.5
			c0.7-0.6,1.3-1.1,1.9-1.7c0.6-0.6,1.2-1.1,1.7-1.6c0.5-0.5,0.9-1,1.3-1.4c0.5-0.4,0.9-0.6,1.4-0.6c0.4,0,0.7,0.2,1,0.5
			c0.3,0.4,0.4,0.8,0.4,1.4c0,0.5-0.1,1.1-0.4,1.7c-0.3,0.6-0.7,1.1-1.3,1.7c-1.2,1.2-2.3,2.3-3.5,3.4c-1.2,1.1-2.4,2-3.7,2.9
			c-1.3,0.8-2.5,1.5-3.8,2c-1.3,0.5-2.6,0.7-3.8,0.7c-1.8,0-3.3-0.5-4.3-1.4s-1.6-2.4-1.6-4.4c0-1,0.1-2.1,0.4-3.1
			c0.3-1,0.6-2,1.1-2.9c0.4-0.9,0.8-1.8,1.3-2.7c0.5-0.9,0.8-1.7,1.2-2.5c0.1-0.3,0.3-0.7,0.6-1.4c0.3-0.6,0.6-1.2,0.9-1.9
			C430,154.8,430.4,154,430.8,153.2z M434.6,145.5c0-0.5,0.1-1.1,0.3-1.6c0.2-0.6,0.5-1.1,0.9-1.5c0.4-0.5,0.9-0.8,1.4-1.1
			c0.6-0.3,1.3-0.4,2.1-0.4c1.3,0,2.2,0.3,2.8,0.8c0.5,0.5,0.8,1.2,0.8,1.9c0,0.4-0.1,0.9-0.3,1.4c-0.2,0.5-0.4,1-0.8,1.4
			c-0.3,0.4-0.8,0.8-1.3,1.1c-0.5,0.3-1.2,0.4-1.9,0.4c-1.4,0-2.4-0.2-3-0.7S434.6,146.2,434.6,145.5z"/>
		<path class="st22" d="M452.8,156c-0.8,1.6-1.6,3.2-2.4,4.8s-1.5,3-2.1,4.3c-0.3,0.5-0.5,1.2-0.8,1.9c-0.3,0.7-0.4,1.3-0.4,1.9
			c0,0.3,0.1,0.6,0.2,0.7c0.1,0.2,0.4,0.3,0.7,0.3c0.5,0,1.1-0.1,1.8-0.4c0.7-0.3,1.5-0.7,2.3-1.1c0.8-0.5,1.7-1,2.7-1.6
			c0.9-0.6,1.8-1.2,2.7-1.9c0.9-0.6,1.8-1.3,2.6-1.9c0.8-0.6,1.5-1.2,2.2-1.8c0.4-0.2,0.7-0.4,1-0.4c0.4,0,0.7,0.2,1,0.5
			c0.2,0.3,0.4,0.8,0.4,1.3c0,0.5-0.1,1.1-0.4,1.6c-0.3,0.5-0.7,1.1-1.4,1.6c-1.5,1.3-3,2.6-4.5,3.8c-1.5,1.2-3,2.3-4.5,3.2
			c-1.5,0.9-3,1.7-4.4,2.2c-1.5,0.5-2.9,0.8-4.2,0.8c-0.9,0-1.7-0.1-2.3-0.4c-0.6-0.2-1.1-0.6-1.5-1c-0.4-0.4-0.6-0.9-0.8-1.5
			c-0.2-0.6-0.2-1.2-0.2-1.8c0-1.1,0.2-2.3,0.6-3.5c0.4-1.2,0.8-2.3,1.3-3.3c0.7-1.4,1.4-2.8,2-4.2c0.7-1.4,1.3-2.7,2-4H445
			c-1.3,0-2.1-0.2-2.6-0.6c-0.5-0.4-0.7-0.9-0.7-1.4c0-0.2,0.1-0.5,0.2-0.8c0.1-0.3,0.4-0.6,0.6-0.9c0.3-0.3,0.6-0.5,1-0.7
			c0.4-0.2,0.9-0.3,1.4-0.3h3.7l7.2-14.3c0.5-0.9,1-1.5,1.7-1.9c0.7-0.4,1.4-0.6,2.1-0.6c0.7,0,1.3,0.2,1.9,0.5
			c0.6,0.4,0.9,1,0.9,1.8c0,0.4-0.1,0.9-0.3,1.3c-0.2,0.4-0.4,1-0.8,1.5c-0.2,0.4-0.5,0.8-0.7,1.4s-0.6,1.1-0.9,1.7
			c-0.3,0.6-0.7,1.2-1,1.9c-0.4,0.7-0.7,1.3-1,1.9c-0.8,1.5-1.6,3-2.5,4.6h11.1c0.5,0,1,0,1.5,0.1s0.8,0.2,1.2,0.3
			c0.3,0.2,0.6,0.4,0.8,0.7c0.2,0.3,0.3,0.7,0.3,1.2c0,0.2,0,0.5-0.1,0.7c-0.1,0.2-0.2,0.5-0.4,0.7c-0.2,0.2-0.5,0.4-0.9,0.5
			s-0.9,0.2-1.4,0.3L452.8,156z"/>
		<path class="st22" d="M504.8,161.2c-0.1,0-0.2,0-0.3,0c-0.1,0-0.2,0-0.3,0c-1.1,2.5-2.1,4.7-2.9,6.6c-0.9,1.9-1.5,3.2-2,4.1
			c-0.4,0.7-0.8,1.3-1.3,1.8c-0.5,0.5-1,1-1.5,1.3s-1.1,0.6-1.7,0.8c-0.6,0.2-1.1,0.3-1.5,0.3c-0.7,0-1.3-0.2-1.8-0.5
			c-0.5-0.3-0.7-0.9-0.7-1.5c0-0.6,0.2-1.3,0.5-2.1l4.9-10.4c-2.5,0.1-4.9,0.2-7.1,0.2c-2.3,0.1-4.5,0.1-6.6,0.2
			c-1.1,2.2-2.2,4.2-3.4,6.1c-1.2,1.9-2.5,3.6-3.9,5c-1.4,1.4-2.8,2.6-4.3,3.4c-1.5,0.8-3,1.2-4.6,1.2c-1.2,0-2.4-0.3-3.4-1
			c-0.3-0.1-0.7-0.4-1-0.8c-0.4-0.4-0.7-0.8-1-1.3c-0.3-0.5-0.6-1.1-0.8-1.7c-0.2-0.6-0.3-1.2-0.3-1.9c0-0.5,0.1-0.9,0.2-1.3
			c0.2-0.4,0.4-0.8,0.7-1.2c0.1-0.2,0.3-0.4,0.5-0.6c0.2-0.2,0.4-0.5,0.6-0.7c0.2-0.2,0.5-0.4,0.8-0.6c0.3-0.2,0.6-0.2,0.9-0.2
			c0.1,0,0.3,0,0.4,0.1c0.1,0,0.3,0.1,0.4,0.2c0.2,0.1,0.4,0.4,0.7,0.9c0.2,0.5,0.5,1,0.7,1.5s0.6,1,0.9,1.4
			c0.3,0.4,0.7,0.6,1.1,0.6c0.6,0,1.2-0.2,1.9-0.7c0.6-0.5,1.3-1.1,1.9-1.9c0.6-0.8,1.3-1.8,2-3c0.7-1.2,1.3-2.4,2-3.8
			c-0.7-0.2-1.2-0.5-1.5-1c-0.3-0.4-0.4-0.9-0.4-1.3c0-0.3,0.1-0.5,0.3-0.8c0.2-0.3,0.5-0.5,0.9-0.7c0.4-0.2,0.8-0.4,1.3-0.6
			c0.5-0.2,1-0.2,1.6-0.3c0.8-2,1.6-4.1,2.3-6.2s1.5-4.3,2.1-6.3c0.7-2.1,1.3-4,1.9-5.9c0.6-1.9,1.1-3.6,1.5-5.1
			c0.4-1.5,0.8-2.7,1.1-3.7c0.3-1,0.4-1.6,0.5-1.8c0.2-0.7,0.5-1.2,1-1.5c0.5-0.3,1.1-0.5,1.7-0.5c0.9,0,1.6,0.3,2,0.9
			c0.5,0.6,0.7,1.6,0.7,3.1c0,0.2,0,0.4,0,0.6c0,0.2,0,0.4,0,0.6c0,0.6-0.2,1.4-0.3,2.4c-0.2,1-0.4,2.2-0.7,3.5
			c-0.3,1.3-0.7,2.8-1.1,4.3c-0.4,1.6-0.9,3.2-1.4,4.9c-0.5,1.7-1.1,3.5-1.8,5.3c-0.6,1.8-1.3,3.6-2.1,5.4c0.7,0,1.5,0,2.3,0
			c0.8,0,1.8,0,2.8,0c1.1,0,2.3,0,3.6,0.1s2.9,0.1,4.6,0.1c0,0,0,0,0.1,0c0,0,0,0,0.1,0c2-4.2,3.9-8.2,5.7-11.9
			c1.8-3.7,3.4-7,4.9-9.7s2.8-5,4-6.6c1.2-1.6,2.1-2.4,2.9-2.4c0.8,0,1.4,0.2,1.8,0.6c0.4,0.4,0.6,0.9,0.6,1.5c0,0.3,0,0.6-0.1,0.9
			s-0.2,0.5-0.3,0.9c-0.6,1.4-1.3,3.2-2.2,5.3c-0.9,2.1-1.9,4.3-3,6.8c-1.1,2.4-2.2,4.9-3.3,7.5c-1.1,2.6-2.3,5.1-3.3,7.5
			c0.7,0.1,1.2,0.3,1.7,0.6c0.4,0.2,0.7,0.6,0.7,0.9c0,0.5-0.3,1-0.8,1.4C506.9,160.9,506,161.1,504.8,161.2z"/>
		<path class="st22" d="M546.9,166.8c-1,1.1-2.2,2.2-3.5,3.3c-1.3,1.1-2.7,2-4.1,2.9c-1.4,0.8-2.8,1.5-4.2,2s-2.6,0.8-3.7,0.8
			c-1.1,0-2-0.3-2.7-0.9c-0.7-0.6-1-1.7-1-3.1c0-1,0.2-2.3,0.5-3.6c-0.6,0.9-1.3,1.8-2.2,2.7c-0.9,0.9-1.9,1.7-3,2.5
			c-1.1,0.7-2.4,1.4-3.8,1.8c-1.4,0.5-2.9,0.7-4.6,0.7c-0.7,0-1.5-0.1-2.2-0.2c-0.7-0.2-1.3-0.4-1.8-0.8c-0.5-0.4-0.9-0.9-1.3-1.5
			c-0.3-0.6-0.5-1.5-0.5-2.4c0,0,0-0.4,0.1-1c0.1-0.7,0.4-1.7,0.9-3.2c0.5-1.4,1.2-3.3,2.3-5.6s2.5-5.1,4.3-8.3
			c0.5-0.9,1-1.5,1.7-1.9c0.6-0.4,1.3-0.6,2-0.6c0.3,0,0.6,0,1,0.1s0.7,0.2,1,0.4c0.3,0.2,0.5,0.4,0.7,0.6c0.2,0.3,0.3,0.6,0.3,0.9
			c0,0.2,0,0.4-0.1,0.6c-0.1,0.4-0.4,0.9-0.7,1.5c-0.4,0.6-0.8,1.3-1.3,2.1c-0.5,0.8-1,1.7-1.6,2.6s-1.1,1.9-1.5,2.9
			c-0.5,1-0.9,2-1.2,3c-0.3,1-0.5,2-0.6,3c0,0.4,0.1,0.8,0.3,1.1c0.2,0.3,0.6,0.5,1.1,0.5c1.5,0,2.9-0.4,4.2-1.2
			c1.3-0.8,2.6-1.8,3.7-3c1.1-1.2,2.2-2.5,3.1-3.9c0.9-1.4,1.7-2.7,2.3-3.8c0.4-0.8,0.8-1.6,1.1-2.5c0.3-0.9,0.7-1.7,1.1-2.5
			c0.4-0.7,0.8-1.4,1.3-1.9c0.5-0.5,1.1-0.7,1.9-0.7c0.8,0,1.5,0.3,1.9,0.8c0.5,0.5,0.7,1.1,0.7,1.9c0,0.4-0.2,1-0.5,1.7
			c-0.3,0.7-0.7,1.5-1.2,2.5c-0.5,0.9-1,1.9-1.5,2.9s-1.1,2.1-1.5,3.2c-0.5,1.1-0.9,2.1-1.2,3.2c-0.3,1-0.5,2-0.5,2.9
			c0,0.8,0.5,1.2,1.5,1.2c0.7,0,1.6-0.2,2.6-0.6c1-0.4,2.1-1,3.3-1.7c1.1-0.7,2.3-1.6,3.4-2.6c1.1-1,2.2-2.1,3-3.2L546.9,166.8z"/>
		<path class="st22" d="M562.2,169.6c-1.9,2.3-4,4-6.1,5.1c-2.2,1.1-4.5,1.6-7,1.6c-1.4,0-2.6-0.2-3.5-0.6c-1-0.4-1.7-0.9-2.3-1.6
			c-0.6-0.7-1-1.5-1.3-2.4c-0.3-0.9-0.4-1.9-0.4-2.9c0-1.2,0.1-2.4,0.4-3.6c0.3-1.2,0.7-2.4,1.2-3.6c0.3-0.7,0.6-1.4,0.8-1.9
			c0.2-0.5,0.4-0.9,0.5-1.3c0.1-0.4,0.3-0.7,0.4-0.9s0.2-0.5,0.3-0.8c0.1-0.3,0.2-0.6,0.4-1c0.2-0.4,0.4-0.9,0.6-1.4l9.9-22.1
			c0.1-0.3,0.3-0.6,0.6-0.9c0.3-0.3,0.6-0.5,0.9-0.7c0.3-0.2,0.7-0.4,1.1-0.5c0.4-0.1,0.8-0.2,1.2-0.2c1,0,1.8,0.2,2.2,0.6
			c0.4,0.4,0.6,0.9,0.6,1.5c0,0.5-0.1,0.9-0.3,1.5c-0.2,0.5-0.5,1-0.7,1.5c-1.7,3.2-3.3,6.5-4.8,9.8s-3.1,6.6-4.8,9.9
			c0.7-0.6,1.5-1.1,2.3-1.7c0.8-0.5,1.7-1,2.6-1.4s1.8-0.8,2.8-1s1.9-0.4,2.9-0.4c0.7,0,1.4,0.1,2.1,0.4s1.4,0.7,2,1.2
			c0.6,0.5,1.1,1.2,1.5,1.9c0.4,0.8,0.6,1.6,0.6,2.6c0,0.2-0.1,0.7-0.2,1.4s-0.3,1.4-0.6,2.3c-0.3,0.9-0.6,1.7-1,2.6
			s-0.8,1.7-1.2,2.4c0.2,0.2,0.4,0.4,0.6,0.5c0.2,0.1,0.5,0.1,0.9,0.1c1,0,2.1-0.1,3.1-0.4c1-0.3,2-0.6,2.9-1
			c0.9-0.4,1.8-0.8,2.5-1.2c0.8-0.4,1.4-0.8,1.9-1.1c0.3-0.3,0.6-0.4,0.9-0.4c0.4,0,0.7,0.2,1,0.5c0.3,0.3,0.4,0.8,0.4,1.3
			c0,0.5-0.1,1-0.3,1.5c-0.2,0.5-0.6,1.1-1.2,1.7c-1,0.6-2,1.2-3.1,1.7c-1,0.5-2.1,1-3.1,1.4c-1.1,0.4-2.2,0.7-3.3,1
			c-1.1,0.2-2.2,0.4-3.4,0.4c-0.7,0-1.4-0.1-2-0.3C563.2,170.3,562.6,170,562.2,169.6z M559.3,155.9c-1.3,0-2.6,0.3-3.9,0.9
			s-2.5,1.4-3.5,2.5c-1,1-1.9,2.2-2.5,3.5c-0.7,1.3-1,2.6-1,3.9c0,0.4,0,0.7,0.1,1.1c0.1,0.4,0.2,0.7,0.4,1c0.2,0.3,0.5,0.6,0.9,0.8
			c0.4,0.2,1,0.3,1.6,0.3c1.3,0,2.6-0.3,3.8-0.9c1.2-0.6,2.3-1.4,3.3-2.5s1.8-2.2,2.3-3.5c0.6-1.3,0.9-2.6,0.9-3.9
			c0-0.3,0-0.7-0.1-1.1c-0.1-0.4-0.2-0.7-0.4-1.1c-0.2-0.3-0.4-0.6-0.8-0.8C560.3,156,559.9,155.9,559.3,155.9z"/>
	</g>
</g>
<g>
	<defs>
		<rect id="SVGID_5_" y="2.7" width="640" height="717.3"/>
	</defs>
	<clipPath id="SVGID_2_">
		<use xlink:href="#SVGID_5_"  style="overflow:visible;"/>
	</clipPath>
	<g style="clip-path:url(#SVGID_2_);">
		<path class="st10" d="M8.7,627.1c27.7-72.9,78.2-120.5,130.2-114.6c51.9,5.9,90.6,63.5,101.4,140.7c3.7,26.2,4.1,54.6,0.8,84
			c-3.7,32.7-11.6,63.2-22.7,89.9c-32.7,12.5-73.3,17.6-116.4,12.7S20.5,820.9-8.6,801.5c-4.9-28.5-5.8-60-2.1-92.7
			C-7.4,679.4-0.7,651.8,8.7,627.1z"/>
		<path class="st11" d="M49.3,556.2c26-30.5,57.5-47.3,89.6-43.7c32.1,3.6,59.1,27,77.6,62.5c-21.6,23.8-54,37.3-88.4,33.4
			S65.1,584.2,49.3,556.2z"/>
		<circle class="st10" cx="139.7" cy="505.3" r="91.5"/>
	</g>
</g>
<g>
	<rect x="310.6" y="376.4" class="st7" width="165.3" height="23.2"/>
	<g>
		<path class="st22" d="M418.3,387.3c0.4,0,0.8,0.2,1,0.5c0.3,0.3,0.4,0.8,0.4,1.3s-0.1,1.1-0.3,1.7c-0.2,0.5-0.5,1-0.8,1.3
			s-0.8,0.5-1.2,0.5c-0.6,0-1-0.2-1.2-0.7h0l-0.3,0.6h-1l1.5-7h1.4l-0.3,1.3c-0.1,0.5-0.2,1-0.4,1.3h0c0.2-0.3,0.4-0.5,0.6-0.6
			C417.8,387.4,418,387.3,418.3,387.3z M417.7,388.4c-0.2,0-0.4,0.1-0.6,0.3c-0.2,0.2-0.3,0.5-0.5,0.8c-0.1,0.3-0.2,0.7-0.2,1.1
			c0,0.2,0.1,0.4,0.2,0.6s0.3,0.2,0.5,0.2c0.2,0,0.4-0.1,0.6-0.3c0.2-0.2,0.3-0.5,0.4-0.9s0.2-0.7,0.2-1.1
			C418.3,388.7,418.1,388.4,417.7,388.4z"/>
		<path class="st22" d="M420.7,387.4h1.3l0.3,2.3c0,0.4,0.1,0.8,0.1,1.3h0c0.1-0.2,0.1-0.3,0.2-0.5s0.2-0.4,0.3-0.7l1.2-2.4h1.5
			l-3.1,5.8c-0.5,1-1.3,1.5-2.2,1.5c-0.3,0-0.5,0-0.7-0.1v-1.1c0.2,0,0.4,0.1,0.5,0.1c0.3,0,0.5-0.1,0.7-0.2s0.4-0.4,0.5-0.7
			l0.1-0.2L420.7,387.4z"/>
		<path class="st22" d="M429.1,389.5h1.5l-0.1,0.7c-0.2,0.7,0.7,0.9,1.5,0.9c1.1,0,1.7-0.6,1.7-1.4c0-1.6-3.9-1-3.9-3.7
			c0-1.8,1.7-2.7,3.5-2.7c1.1,0,2.9,0.4,2.6,1.7l-0.2,1.1h-1.5l0.1-0.6c0.1-0.5-0.6-0.7-1.2-0.7c-0.9,0-1.7,0.4-1.7,1.2
			c0,1.6,3.9,1,3.9,3.7c0,1.9-1.7,2.9-3.6,2.9c-1.2,0-3.2-0.5-2.9-2.1L429.1,389.5z"/>
		<path class="st22" d="M438.3,391.2h1.1l1.3-6.4h-1.7l-0.3,1.4h-1.4l0.5-2.7h7.9l-0.5,2.7h-1.4l0.3-1.4h-1.7l-1.3,6.4h1.1l-0.2,1.2
			h-3.8L438.3,391.2z"/>
		<path class="st22" d="M444.3,391.2h0.8l4.2-7.7h1.9l1.2,7.7h0.8l-0.2,1.2h-3.3l0.2-1.2h0.9l-0.2-1.7h-2.8l-0.9,1.7h0.9l-0.3,1.2
			H444L444.3,391.2z M450.3,388.2l-0.3-2.5c-0.1-0.4,0-0.8,0-0.8h0c0,0-0.1,0.3-0.3,0.8l-1.4,2.5H450.3z"/>
		<path class="st22" d="M454.1,391.2h1.1l1.3-6.5h-1.1l0.2-1.3h3.8l-0.2,1.3h-1.1l-1.3,6.5h1.1l-0.2,1.2h-3.8L454.1,391.2z"/>
		<path class="st22" d="M459.4,391.2h1.1l1.3-6.5h-1.1l0.2-1.3h3.7c0.8,0,1.4,0.1,2,0.3c1.4,0.5,2.1,1.6,2.1,3.3
			c0,2.1-1.2,4.2-3.1,5c-0.7,0.3-1.4,0.4-2.2,0.4h-4.2L459.4,391.2z M463.4,391.1c0.7,0,1.2-0.1,1.7-0.4c1.2-0.6,2-2,2-3.6
			c0-1.1-0.4-1.8-1.2-2.2c-0.4-0.2-0.8-0.2-1.4-0.2h-1.2l-1.2,6.3H463.4z"/>
	</g>
	<g>
		<g>
			<path class="st22" d="M331.1,382.8c-0.3,1.5-1,3.5-2.3,5.9c-0.3,0.7-0.6,1.3-0.9,1.8s-0.5,1-0.8,1.3s-0.5,0.6-0.7,0.8
				c-0.2,0.2-0.5,0.3-0.8,0.3c-0.2,0-0.4-0.1-0.5-0.2c-0.1-0.1-0.3-0.3-0.4-0.6c-0.1-0.3-0.2-0.7-0.3-1.2c-0.1-0.5-0.1-1.2-0.2-2
				l-1.9,2.7c-0.2,0.2-0.3,0.5-0.5,0.6s-0.3,0.3-0.4,0.4c-0.1,0.1-0.3,0.2-0.4,0.2c-0.2,0-0.3,0.1-0.5,0.1c-0.2,0-0.4-0.1-0.6-0.2
				s-0.2-0.3-0.2-0.6c0-0.4,0-0.8,0-1.3c0-0.5,0-1,0-1.6c0-0.6,0.1-1.2,0.1-1.9c0-0.7,0.1-1.5,0.2-2.4c-0.2,0.2-0.4,0.4-0.5,0.5
				c-0.1,0.1-0.2,0.2-0.3,0.2c-0.1,0-0.1,0-0.2-0.1s0-0.1,0-0.2c0-0.2,0-0.4,0.1-0.7c0.1-0.3,0.2-0.6,0.4-0.9c0.2-0.3,0.4-0.6,0.7-1
				c0.3-0.3,0.6-0.6,0.9-0.9c0.1,0,0.1-0.1,0.2-0.1c0.1,0,0.2,0,0.3,0.1s0.2,0.2,0.2,0.3c0.1,0.1,0.1,0.2,0.2,0.4
				c0,0.1,0.1,0.3,0.1,0.4c0,0.1,0,0.2,0,0.3c0,0.1-0.1,0.2-0.1,0.3c0,0.1-0.1,0.2-0.1,0.3c0,0.1-0.1,0.3-0.1,0.5
				c0,0.2-0.1,0.5-0.1,0.9c-0.1,0.5-0.1,0.9-0.1,1.4c0,0.5-0.1,0.9-0.1,1.4c0,0.5,0,0.9-0.1,1.4s0,1-0.1,1.5
				c0.1-0.2,0.3-0.3,0.4-0.6c0.2-0.2,0.3-0.5,0.5-0.8c0.2-0.3,0.3-0.5,0.5-0.8c0.2-0.3,0.3-0.5,0.5-0.7c0.1-0.2,0.2-0.4,0.3-0.5
				l0.1-0.2c0.2-0.5,0.4-1,0.6-1.5c0.2-0.5,0.4-1,0.6-1.5c0.2-0.5,0.4-0.9,0.6-1.1c0.2-0.3,0.5-0.4,0.7-0.4c0.2,0,0.4,0,0.5,0.1
				s0.2,0.2,0.2,0.3c0,0.2,0,0.4-0.1,0.7c-0.1,0.3-0.2,0.5-0.3,0.8c-0.1,0.3-0.3,0.6-0.4,0.9c-0.1,0.3-0.2,0.6-0.3,0.9
				c0,0.5,0,0.9-0.1,1.2s0,0.7,0,0.9c0,0.4,0,0.7,0,1.1c0,0.4,0,0.8,0.1,1.1c0.2-0.3,0.5-0.7,0.7-1c0.2-0.4,0.5-0.8,0.7-1.2
				c0.2-0.4,0.5-0.8,0.7-1.2s0.4-0.8,0.6-1.3c0.2-0.4,0.4-0.8,0.5-1.2s0.2-0.8,0.3-1.2l0.1-0.6c0,0,0,0,0-0.1s0,0,0-0.1
				c0-0.2,0.1-0.3,0.1-0.5c0-0.1,0.1-0.2,0.2-0.3s0.1-0.2,0.2-0.2c0.1,0,0.2-0.1,0.4-0.1c0.2,0,0.4,0,0.5,0.1c0.1,0,0.2,0.2,0.2,0.3
				c0,0.1,0,0.1,0,0.2S331.1,382.7,331.1,382.8z"/>
			<path class="st22" d="M330.8,387.4c0.1-0.2,0.2-0.3,0.3-0.3c0.1-0.1,0.2-0.1,0.4-0.1c0.2,0,0.4,0.1,0.5,0.2
				c0.2,0.1,0.2,0.3,0.2,0.5c0,0.1,0,0.1,0,0.2s0,0.1-0.1,0.2c-0.1,0.1-0.1,0.3-0.2,0.4c-0.1,0.1-0.1,0.2-0.1,0.3
				c0,0.1-0.1,0.2-0.1,0.3c0,0.1-0.1,0.2-0.1,0.3c-0.1,0.1-0.1,0.3-0.2,0.5c-0.1,0.2-0.2,0.3-0.2,0.5c-0.1,0.2-0.1,0.3-0.2,0.5
				s-0.1,0.3-0.1,0.5c0,0.2,0,0.2,0.1,0.3c0.1,0,0.2,0.1,0.3,0.1c0.2,0,0.3,0,0.5-0.1c0.2-0.1,0.3-0.2,0.5-0.3
				c0.2-0.1,0.3-0.2,0.5-0.4c0.2-0.1,0.3-0.3,0.5-0.4c0.1-0.1,0.3-0.3,0.4-0.4c0.1-0.1,0.2-0.2,0.3-0.3c0.1-0.1,0.2-0.2,0.3-0.2
				c0.1,0,0.2,0,0.2,0.1c0.1,0.1,0.1,0.2,0.1,0.3c0,0.1,0,0.3-0.1,0.4c-0.1,0.1-0.2,0.3-0.3,0.4c-0.3,0.3-0.6,0.6-0.9,0.8
				c-0.3,0.3-0.6,0.5-0.9,0.7c-0.3,0.2-0.6,0.4-0.9,0.5c-0.3,0.1-0.6,0.2-0.9,0.2c-0.5,0-0.8-0.1-1.1-0.3s-0.4-0.6-0.4-1.1
				c0-0.3,0-0.5,0.1-0.8s0.2-0.5,0.3-0.7c0.1-0.2,0.2-0.5,0.3-0.7c0.1-0.2,0.2-0.4,0.3-0.6c0-0.1,0.1-0.2,0.1-0.3
				c0.1-0.1,0.1-0.3,0.2-0.5C330.6,387.8,330.7,387.6,330.8,387.4z M331.7,385.5c0-0.1,0-0.3,0.1-0.4c0-0.1,0.1-0.3,0.2-0.4
				c0.1-0.1,0.2-0.2,0.4-0.3c0.1-0.1,0.3-0.1,0.5-0.1c0.3,0,0.5,0.1,0.7,0.2c0.1,0.1,0.2,0.3,0.2,0.5c0,0.1,0,0.2-0.1,0.4
				c0,0.1-0.1,0.2-0.2,0.4s-0.2,0.2-0.3,0.3c-0.1,0.1-0.3,0.1-0.5,0.1c-0.3,0-0.6-0.1-0.7-0.2S331.7,385.7,331.7,385.5z"/>
			<path class="st22" d="M336.2,388.1c-0.2,0.4-0.4,0.8-0.6,1.2s-0.4,0.7-0.5,1.1c-0.1,0.1-0.1,0.3-0.2,0.5
				c-0.1,0.2-0.1,0.3-0.1,0.5c0,0.1,0,0.1,0.1,0.2c0,0,0.1,0.1,0.2,0.1c0.1,0,0.3,0,0.4-0.1c0.2-0.1,0.4-0.2,0.6-0.3
				c0.2-0.1,0.4-0.2,0.7-0.4s0.5-0.3,0.7-0.5c0.2-0.2,0.4-0.3,0.6-0.5c0.2-0.2,0.4-0.3,0.5-0.4c0.1-0.1,0.2-0.1,0.3-0.1
				c0.1,0,0.2,0,0.2,0.1c0.1,0.1,0.1,0.2,0.1,0.3s0,0.3-0.1,0.4c-0.1,0.1-0.2,0.3-0.3,0.4c-0.4,0.3-0.7,0.6-1.1,0.9
				c-0.4,0.3-0.7,0.6-1.1,0.8c-0.4,0.2-0.7,0.4-1.1,0.5c-0.4,0.1-0.7,0.2-1,0.2c-0.2,0-0.4,0-0.6-0.1s-0.3-0.1-0.4-0.2
				c-0.1-0.1-0.2-0.2-0.2-0.4c0-0.1-0.1-0.3-0.1-0.4c0-0.3,0-0.6,0.1-0.9c0.1-0.3,0.2-0.6,0.3-0.8c0.2-0.3,0.3-0.7,0.5-1
				c0.2-0.3,0.3-0.7,0.5-1h-0.4c-0.3,0-0.5,0-0.6-0.2s-0.2-0.2-0.2-0.3c0-0.1,0-0.1,0.1-0.2c0-0.1,0.1-0.2,0.2-0.2
				c0.1-0.1,0.2-0.1,0.3-0.2c0.1-0.1,0.2-0.1,0.3-0.1h0.9l1.8-3.5c0.1-0.2,0.2-0.4,0.4-0.5s0.3-0.1,0.5-0.1c0.2,0,0.3,0,0.5,0.1
				s0.2,0.2,0.2,0.4c0,0.1,0,0.2-0.1,0.3s-0.1,0.2-0.2,0.4c-0.1,0.1-0.1,0.2-0.2,0.3c-0.1,0.1-0.1,0.3-0.2,0.4
				c-0.1,0.1-0.2,0.3-0.3,0.5c-0.1,0.2-0.2,0.3-0.3,0.5c-0.2,0.4-0.4,0.7-0.6,1.1h2.7c0.1,0,0.3,0,0.4,0s0.2,0,0.3,0.1
				c0.1,0,0.1,0.1,0.2,0.2c0,0.1,0.1,0.2,0.1,0.3c0,0.1,0,0.1,0,0.2s-0.1,0.1-0.1,0.2s-0.1,0.1-0.2,0.1s-0.2,0.1-0.4,0.1
				L336.2,388.1z"/>
			<path class="st22" d="M348.9,389.3C348.9,389.3,348.9,389.3,348.9,389.3c-0.1,0-0.1,0-0.1,0c-0.3,0.6-0.5,1.1-0.7,1.6
				c-0.2,0.5-0.4,0.8-0.5,1c-0.1,0.2-0.2,0.3-0.3,0.5c-0.1,0.1-0.2,0.2-0.4,0.3c-0.1,0.1-0.3,0.2-0.4,0.2c-0.1,0-0.3,0.1-0.4,0.1
				c-0.2,0-0.3,0-0.4-0.1c-0.1-0.1-0.2-0.2-0.2-0.4c0-0.1,0-0.3,0.1-0.5l1.2-2.5c-0.6,0-1.2,0-1.7,0.1c-0.6,0-1.1,0-1.6,0
				c-0.3,0.5-0.5,1-0.8,1.5c-0.3,0.5-0.6,0.9-1,1.2c-0.3,0.4-0.7,0.6-1,0.8s-0.7,0.3-1.1,0.3c-0.3,0-0.6-0.1-0.8-0.2
				c-0.1,0-0.2-0.1-0.3-0.2s-0.2-0.2-0.3-0.3c-0.1-0.1-0.1-0.3-0.2-0.4c-0.1-0.2-0.1-0.3-0.1-0.5c0-0.1,0-0.2,0.1-0.3
				c0-0.1,0.1-0.2,0.2-0.3c0,0,0.1-0.1,0.1-0.2s0.1-0.1,0.2-0.2c0.1-0.1,0.1-0.1,0.2-0.1c0.1,0,0.1-0.1,0.2-0.1c0,0,0.1,0,0.1,0
				c0,0,0.1,0,0.1,0c0.1,0,0.1,0.1,0.2,0.2c0.1,0.1,0.1,0.2,0.2,0.4s0.1,0.2,0.2,0.3c0.1,0.1,0.2,0.2,0.3,0.2c0.2,0,0.3-0.1,0.5-0.2
				c0.2-0.1,0.3-0.3,0.5-0.5s0.3-0.4,0.5-0.7c0.2-0.3,0.3-0.6,0.5-0.9c-0.2-0.1-0.3-0.1-0.4-0.2c-0.1-0.1-0.1-0.2-0.1-0.3
				c0-0.1,0-0.1,0.1-0.2c0.1-0.1,0.1-0.1,0.2-0.2c0.1-0.1,0.2-0.1,0.3-0.1s0.3-0.1,0.4-0.1c0.2-0.5,0.4-1,0.6-1.5
				c0.2-0.5,0.4-1,0.5-1.6c0.2-0.5,0.3-1,0.5-1.5c0.1-0.5,0.3-0.9,0.4-1.2c0.1-0.4,0.2-0.7,0.3-0.9s0.1-0.4,0.1-0.5
				c0-0.2,0.1-0.3,0.3-0.4s0.3-0.1,0.4-0.1c0.2,0,0.4,0.1,0.5,0.2c0.1,0.1,0.2,0.4,0.2,0.8c0,0,0,0.1,0,0.1c0,0,0,0.1,0,0.2
				c0,0.1,0,0.3-0.1,0.6c0,0.2-0.1,0.5-0.2,0.9c-0.1,0.3-0.2,0.7-0.3,1.1c-0.1,0.4-0.2,0.8-0.4,1.2c-0.1,0.4-0.3,0.9-0.4,1.3
				c-0.2,0.4-0.3,0.9-0.5,1.3c0.2,0,0.4,0,0.6,0c0.2,0,0.4,0,0.7,0c0.3,0,0.6,0,0.9,0c0.3,0,0.7,0,1.1,0c0,0,0,0,0,0c0,0,0,0,0,0
				c0.5-1,1-2,1.4-2.9c0.4-0.9,0.8-1.7,1.2-2.4s0.7-1.2,1-1.6c0.3-0.4,0.5-0.6,0.7-0.6c0.2,0,0.3,0,0.4,0.1s0.1,0.2,0.1,0.4
				c0,0.1,0,0.2,0,0.2c0,0.1,0,0.1-0.1,0.2c-0.1,0.4-0.3,0.8-0.6,1.3c-0.2,0.5-0.5,1.1-0.7,1.7c-0.3,0.6-0.5,1.2-0.8,1.8
				c-0.3,0.6-0.6,1.3-0.8,1.8c0.2,0,0.3,0.1,0.4,0.1c0.1,0.1,0.2,0.1,0.2,0.2c0,0.1-0.1,0.2-0.2,0.3S349.2,389.3,348.9,389.3z"/>
			<path class="st22" d="M359.2,390.7c-0.2,0.3-0.5,0.5-0.9,0.8c-0.3,0.3-0.7,0.5-1,0.7c-0.3,0.2-0.7,0.4-1,0.5
				c-0.3,0.1-0.6,0.2-0.9,0.2s-0.5-0.1-0.7-0.2c-0.2-0.2-0.3-0.4-0.3-0.8c0-0.3,0-0.6,0.1-0.9c-0.1,0.2-0.3,0.4-0.5,0.7
				c-0.2,0.2-0.5,0.4-0.7,0.6s-0.6,0.3-0.9,0.4c-0.3,0.1-0.7,0.2-1.1,0.2c-0.2,0-0.4,0-0.5-0.1c-0.2,0-0.3-0.1-0.4-0.2
				s-0.2-0.2-0.3-0.4c-0.1-0.2-0.1-0.4-0.1-0.6c0,0,0-0.1,0-0.3c0-0.2,0.1-0.4,0.2-0.8s0.3-0.8,0.6-1.4c0.3-0.6,0.6-1.2,1.1-2
				c0.1-0.2,0.3-0.4,0.4-0.5c0.2-0.1,0.3-0.1,0.5-0.1c0.1,0,0.2,0,0.2,0s0.2,0,0.2,0.1c0.1,0,0.1,0.1,0.2,0.2c0,0.1,0.1,0.1,0.1,0.2
				c0,0.1,0,0.1,0,0.2c0,0.1-0.1,0.2-0.2,0.4s-0.2,0.3-0.3,0.5c-0.1,0.2-0.3,0.4-0.4,0.6c-0.1,0.2-0.3,0.5-0.4,0.7
				c-0.1,0.2-0.2,0.5-0.3,0.7s-0.1,0.5-0.1,0.7c0,0.1,0,0.2,0.1,0.3c0.1,0.1,0.1,0.1,0.3,0.1c0.4,0,0.7-0.1,1-0.3
				c0.3-0.2,0.6-0.4,0.9-0.7s0.5-0.6,0.8-1c0.2-0.3,0.4-0.7,0.6-0.9c0.1-0.2,0.2-0.4,0.3-0.6c0.1-0.2,0.2-0.4,0.3-0.6
				s0.2-0.3,0.3-0.5c0.1-0.1,0.3-0.2,0.5-0.2c0.2,0,0.4,0.1,0.5,0.2c0.1,0.1,0.2,0.3,0.2,0.5c0,0.1,0,0.2-0.1,0.4
				c-0.1,0.2-0.2,0.4-0.3,0.6c-0.1,0.2-0.2,0.5-0.4,0.7c-0.1,0.3-0.3,0.5-0.4,0.8c-0.1,0.3-0.2,0.5-0.3,0.8
				c-0.1,0.3-0.1,0.5-0.1,0.7c0,0.2,0.1,0.3,0.4,0.3c0.2,0,0.4,0,0.6-0.2c0.3-0.1,0.5-0.2,0.8-0.4c0.3-0.2,0.6-0.4,0.8-0.6
				c0.3-0.2,0.5-0.5,0.7-0.8L359.2,390.7z"/>
			<path class="st22" d="M363,391.4c-0.5,0.6-1,1-1.5,1.2c-0.5,0.3-1.1,0.4-1.7,0.4c-0.3,0-0.6,0-0.9-0.1c-0.2-0.1-0.4-0.2-0.6-0.4
				c-0.1-0.2-0.2-0.4-0.3-0.6c-0.1-0.2-0.1-0.5-0.1-0.7c0-0.3,0-0.6,0.1-0.9c0.1-0.3,0.2-0.6,0.3-0.9c0.1-0.2,0.1-0.3,0.2-0.5
				c0.1-0.1,0.1-0.2,0.1-0.3c0-0.1,0.1-0.2,0.1-0.2c0-0.1,0.1-0.1,0.1-0.2c0-0.1,0.1-0.2,0.1-0.2c0-0.1,0.1-0.2,0.2-0.4l2.4-5.4
				c0-0.1,0.1-0.1,0.1-0.2c0.1-0.1,0.1-0.1,0.2-0.2s0.2-0.1,0.3-0.1c0.1,0,0.2,0,0.3,0c0.3,0,0.4,0,0.5,0.2c0.1,0.1,0.2,0.2,0.2,0.4
				c0,0.1,0,0.2-0.1,0.4c-0.1,0.1-0.1,0.3-0.2,0.4c-0.4,0.8-0.8,1.6-1.2,2.4s-0.8,1.6-1.2,2.4c0.2-0.1,0.4-0.3,0.6-0.4
				s0.4-0.2,0.6-0.4c0.2-0.1,0.4-0.2,0.7-0.3c0.2-0.1,0.5-0.1,0.7-0.1c0.2,0,0.3,0,0.5,0.1c0.2,0.1,0.3,0.2,0.5,0.3
				c0.1,0.1,0.3,0.3,0.4,0.5s0.1,0.4,0.1,0.6c0,0.1,0,0.2-0.1,0.3s-0.1,0.4-0.1,0.6c-0.1,0.2-0.1,0.4-0.2,0.6s-0.2,0.4-0.3,0.6
				c0,0.1,0.1,0.1,0.2,0.1c0.1,0,0.1,0,0.2,0c0.3,0,0.5,0,0.8-0.1c0.3-0.1,0.5-0.1,0.7-0.2c0.2-0.1,0.4-0.2,0.6-0.3
				c0.2-0.1,0.3-0.2,0.5-0.3c0.1-0.1,0.1-0.1,0.2-0.1c0.1,0,0.2,0,0.2,0.1c0.1,0.1,0.1,0.2,0.1,0.3c0,0.1,0,0.3-0.1,0.4
				s-0.1,0.3-0.3,0.4c-0.2,0.2-0.5,0.3-0.8,0.4c-0.3,0.1-0.5,0.2-0.8,0.3c-0.3,0.1-0.5,0.2-0.8,0.2s-0.5,0.1-0.8,0.1
				c-0.2,0-0.3,0-0.5-0.1C363.2,391.6,363.1,391.5,363,391.4z M362.3,388c-0.3,0-0.6,0.1-1,0.2c-0.3,0.2-0.6,0.4-0.9,0.6
				c-0.3,0.2-0.5,0.5-0.6,0.8c-0.2,0.3-0.2,0.6-0.2,1c0,0.1,0,0.2,0,0.3s0.1,0.2,0.1,0.3c0.1,0.1,0.1,0.1,0.2,0.2s0.2,0.1,0.4,0.1
				c0.3,0,0.6-0.1,0.9-0.2s0.6-0.4,0.8-0.6c0.2-0.2,0.4-0.5,0.6-0.8s0.2-0.6,0.2-0.9c0-0.1,0-0.2,0-0.3c0-0.1,0-0.2-0.1-0.3
				c0-0.1-0.1-0.1-0.2-0.2C362.5,388.1,362.4,388,362.3,388z"/>
		</g>
	</g>
</g>
</svg>
