<?xml version="1.0" encoding="utf-8"?>
<!-- Generator: Adobe Illustrator 19.1.0, SVG Export Plug-In . SVG Version: 6.00 Build 0)  -->
<svg version="1.1" id="Layer_1" xmlns="http://www.w3.org/2000/svg" xmlns:xlink="http://www.w3.org/1999/xlink" x="0px" y="0px"
	 viewBox="0 0 1280 720" style="enable-background:new 0 0 1280 720;" xml:space="preserve">
<style type="text/css">
	.st0{fill:#F8FCF2;}
	.st1{fill:none;stroke:#25937E;stroke-width:8;stroke-miterlimit:10;}
	.st2{fill:#FC8738;}
	.st3{fill:none;stroke:#FC8738;stroke-width:8;stroke-miterlimit:10;stroke-dasharray:12.242;}
	.st4{fill:#D2F7E1;}
	.st5{fill:#F2D4B3;}
	.st6{fill:#79DBC8;}
	.st7{fill:#32AD95;}
	.st8{fill:#919191;}
	.st9{fill:#272938;}
	.st10{fill:#B59DCB;}
	.st11{fill:#424143;}
	.st12{fill:none;}
	.st13{opacity:0.21;clip-path:url(#SVGID_2_);fill:#081110;}
	.st14{fill:#E5E6E7;}
	.st15{fill:#705F9B;}
	.st16{fill:#A19C9B;}
	.st17{fill:#D9CFE5;}
	.st18{opacity:0.21;clip-path:url(#SVGID_4_);fill:#081110;}
	.st19{fill:#95C6C2;}
	.st20{fill:none;stroke:#80B7B2;stroke-width:4.7716;stroke-miterlimit:10;}
	.st21{fill:none;stroke:#80B7B2;stroke-width:4.073;stroke-miterlimit:10;}
	.st22{fill:#FFFFFF;}
	.st23{fill:#5D5D5D;}
	.st24{fill:#BC783B;}
	.st25{fill:#CC8E5A;}
	.st26{fill:none;stroke:#65BBD6;stroke-width:8;stroke-miterlimit:10;}
	.st27{fill:#65BBD6;}
	.st28{fill:#848484;}
	.st29{fill:none;stroke:#3F414F;stroke-width:17.6432;stroke-linecap:round;stroke-miterlimit:10;}
	.st30{fill:#F7F8F9;}
	.st31{fill:#D3D3D3;}
	.st32{fill:#E6E7E8;}
	.st33{fill:#A29D9C;}
	.st34{fill:#59595C;}
	.st35{fill:#3ACCB3;}
	.st36{opacity:0.24;}
	.st37{opacity:0.38;fill:#FFFFFF;}
	.st38{opacity:0.41;}
	.st39{fill:none;stroke:#FC8738;stroke-width:8;stroke-miterlimit:10;}
	.st40{fill:none;stroke:#FC8738;stroke-width:8;stroke-miterlimit:10;stroke-dasharray:12.5689,12.5689;}
	.st41{fill:none;stroke:#FC8738;stroke-width:8;stroke-miterlimit:10;stroke-dasharray:13.1382,13.1382;}
	.st42{fill:none;stroke:#2B9E90;stroke-width:8;stroke-miterlimit:10;}
	.st43{fill:none;stroke:#2B9E90;stroke-width:8;stroke-miterlimit:10;stroke-dasharray:13.1382,13.1382;}
	.st44{fill:#7BC7D9;}
	.st45{fill:#89C8DB;}
	.st46{fill:#A1D6E5;}
	.st47{fill:#B7E3F2;}
	.st48{fill:#A3CC39;}
	.st49{fill:#D8EDF7;}
	.st50{fill:#869190;}
	.st51{fill:#5C6060;}
	.st52{fill:#F88538;}
	.st53{clip-path:url(#SVGID_6_);}
	.st54{fill:#D3F2F4;}
	.st55{fill:#E5B5D8;}
	.st56{fill:#C185B3;}
	.st57{fill:none;stroke:#848484;stroke-width:4.5128;stroke-miterlimit:10;}
	.st58{fill:none;stroke:#848484;stroke-width:4.1729;stroke-miterlimit:10;}
	.st59{fill:#F5F5F6;}
	.st60{fill:none;stroke:#C7EFEF;stroke-width:16.0374;stroke-linecap:round;stroke-miterlimit:10;}
	.st61{fill:none;stroke:#C7EFEF;stroke-width:8.0187;stroke-linecap:round;stroke-miterlimit:10;}
	.st62{fill:none;stroke:#C7EFEF;stroke-width:9.1642;stroke-linecap:round;stroke-miterlimit:10;}
	.st63{fill:none;stroke:#C7EFEF;stroke-width:13.7464;stroke-linecap:round;stroke-miterlimit:10;}
	.st64{fill:none;stroke:#C7EFEF;stroke-width:5.7276;stroke-linecap:round;stroke-miterlimit:10;}
	.st65{fill:none;stroke:#C7EFEF;stroke-width:10.3098;stroke-linecap:round;stroke-miterlimit:10;}
	.st66{fill:#8E8B8B;}
	.st67{fill:#AAAAAA;}
	.st68{fill:#C1A6DD;}
	.st69{fill:#282828;}
	.st70{fill:#B56193;}
	.st71{fill:#F7F4F0;}
	.st72{fill:#8EBC71;}
	.st73{opacity:0.4;fill:#B2E293;}
	.st74{fill:#C66F34;}
	.st75{fill:#DB8952;}
	.st76{fill:#FFE7DE;}
	.st77{fill:#374C29;}
	.st78{opacity:0.65;fill:#B2E293;}
	.st79{fill:#B2E293;}
	.st80{fill:#7A637F;}
	.st81{clip-path:url(#SVGID_8_);}
	.st82{fill:#A5E5DF;}
	.st83{opacity:0.37;clip-path:url(#SVGID_10_);}
	.st84{fill:#231F20;}
</style>
<rect class="st4" width="1280" height="720"/>
<rect x="77.9" y="280.8" class="st30" width="424.8" height="275.7"/>
<g>
	<path class="st31" d="M357.7,503.8H109.8c-5.9,0-10.6-4.8-10.6-10.6v-185c0-5.9,4.8-10.6,10.6-10.6h247.8c5.9,0,10.6,4.8,10.6,10.6
		v185C368.3,499,363.5,503.8,357.7,503.8z"/>
	<rect x="99.2" y="329.5" class="st32" width="269.1" height="162.9"/>
	<rect x="99.2" y="317.4" class="st32" width="269.1" height="15.6"/>
	<g>
		<circle class="st33" cx="110.6" cy="307.4" r="3.2"/>
		<circle class="st33" cx="122.1" cy="307.4" r="3.2"/>
		<circle class="st33" cx="133.6" cy="307.4" r="3.2"/>
	</g>
</g>
<path class="st11" d="M373.1,660.7H211.3c-1.4,0-2.6-1.2-2.6-2.6v-38c0-1.4,1.2-2.6,2.6-2.6h161.8c1.4,0,2.6,1.2,2.6,2.6v38
	C375.7,659.6,374.5,660.7,373.1,660.7z"/>
<g>
	<path class="st34" d="M260.7,556.4V644h62.2v-87.5H260.7z M300.4,595.1c0,4.8-3.9,8.6-8.6,8.6s-8.6-3.9-8.6-8.6V564h17.2V595.1z"/>
	<path class="st11" d="M498.9,565.9H84.6c-7.3,0-13.2-5.9-13.2-13.2v-267c0-7.3,5.9-13.2,13.2-13.2h414.3c7.3,0,13.2,5.9,13.2,13.2
		v267C512.1,559.9,506.2,565.9,498.9,565.9z M88.2,549h407V289.3h-407V549z"/>
	<rect x="220.7" y="632.5" class="st11" width="142.1" height="21.5"/>
</g>
<g>
	<path class="st35" d="M460.7,350h-89.9c-8.4,0-15.1-6.8-15.1-15.1v-15.1c0-8.4,6.8-15.1,15.1-15.1h89.9c8.4,0,15.1,6.8,15.1,15.1
		v15.1C475.8,343.2,469.1,350,460.7,350z"/>
</g>
<rect x="369.1" y="315.7" class="st36" width="93.2" height="5"/>
<rect x="369.6" y="325" class="st36" width="93.8" height="5.1"/>
<rect x="368.9" y="335.1" class="st36" width="73.2" height="5.1"/>
<g>
	<g>
		<path class="st31" d="M465.2,535.9h-144c-5.9,0-10.6-4.8-10.6-10.6V369.9c0-5.9,4.8-10.6,10.6-10.6h144c5.9,0,10.6,4.8,10.6,10.6
			v155.4C475.8,531.2,471.1,535.9,465.2,535.9z"/>
		<rect x="310.6" y="391.3" class="st35" width="165.3" height="133.2"/>
		<rect x="310.6" y="379.2" class="st7" width="165.3" height="15.6"/>
		<g>
			<circle class="st33" cx="322" cy="369.3" r="3.2"/>
			<circle class="st33" cx="333.5" cy="369.3" r="3.2"/>
			<circle class="st33" cx="345" cy="369.3" r="3.2"/>
		</g>
	</g>
	<rect x="330.3" y="410.9" class="st37" width="128.7" height="113.6"/>
	<g>
		<path class="st11" d="M421.7,442.8c-1.6-20.2-28.2-26.9-39.1-9.6c-7.1-4-16.1,0.7-16.6,9c-7.7,0.9-13.7,7.5-13.7,15.5
			c0,8.6,7,15.7,15.7,15.7H417c8.6,0,15.7-7,15.7-15.7C432.6,450.7,428,444.8,421.7,442.8z"/>
	</g>
	<rect x="352.2" y="483.4" class="st38" width="81" height="6.3"/>
	<rect x="352.2" y="494.5" class="st38" width="81" height="6.3"/>
	<rect x="352.2" y="505.9" class="st38" width="81" height="6.3"/>
</g>
<g>
	<g>
		<line class="st39" x1="474.8" y1="447.6" x2="481.2" y2="447.6"/>
		<line class="st40" x1="493.8" y1="447.6" x2="537.8" y2="447.6"/>
		<polyline class="st39" points="544.1,447.6 550.6,447.6 550.6,441.1 		"/>
		<line class="st41" x1="550.6" y1="428" x2="550.6" y2="198"/>
		<line class="st39" x1="550.6" y1="191.5" x2="550.6" y2="185"/>
	</g>
</g>
<g>
	<g>
		<path class="st11" d="M572.5,105.5c-5.3-66.8-93.2-88.7-129.1-31.6c-23.3-13.2-53,2.3-54.9,29.6c-25.5,3.1-45.3,24.9-45.3,51.3
			c0,28.5,23.1,51.7,51.7,51.7h162c28.5,0,51.7-23.1,51.7-51.7C608.5,131.7,593.4,112.1,572.5,105.5z"/>
	</g>
	<g>
		<g>
			<path class="st22" d="M432,137.1c-1.1,6.1-4.2,14.1-9.2,24c-1.4,2.8-2.6,5.3-3.7,7.4s-2.1,3.9-3.1,5.4c-1,1.4-2,2.5-3,3.3
				c-1,0.7-2.1,1.1-3.4,1.1c-0.8,0-1.6-0.2-2.1-0.6c-0.6-0.4-1.1-1.2-1.5-2.4c-0.4-1.2-0.8-2.8-1.1-4.9c-0.3-2.1-0.6-4.9-0.8-8.3
				l-7.6,11.1c-0.7,1-1.3,1.8-1.9,2.5c-0.6,0.7-1.2,1.2-1.8,1.7s-1.2,0.7-1.8,0.9c-0.6,0.2-1.3,0.3-1.9,0.3c-1,0-1.8-0.3-2.4-0.9
				s-1-1.4-1-2.5c0-1.6,0-3.4,0-5.3c0-1.9,0.1-4.1,0.2-6.5c0.1-2.4,0.2-5,0.4-7.9c0.2-2.9,0.5-6.1,0.8-9.7c-0.8,0.9-1.5,1.6-2,2
				c-0.5,0.4-1,0.6-1.3,0.6c-0.3,0-0.5-0.1-0.6-0.4c-0.1-0.2-0.2-0.6-0.2-1c0-0.7,0.2-1.7,0.6-2.9c0.4-1.2,0.9-2.4,1.7-3.7
				c0.7-1.3,1.6-2.6,2.7-3.9s2.3-2.5,3.7-3.5c0.3-0.2,0.6-0.3,0.9-0.3c0.4,0,0.8,0.1,1.2,0.4c0.4,0.3,0.7,0.7,1,1.2
				c0.3,0.5,0.5,1,0.7,1.6c0.2,0.6,0.3,1.2,0.3,1.7c0,0.5,0,1-0.1,1.4c-0.1,0.5-0.2,0.9-0.3,1.3s-0.2,0.9-0.3,1.4
				c-0.1,0.5-0.2,1.3-0.4,2.1c-0.1,0.9-0.3,2-0.5,3.5c-0.2,1.9-0.4,3.7-0.5,5.6c-0.1,1.9-0.2,3.8-0.3,5.7c-0.1,1.9-0.2,3.9-0.3,5.8
				c-0.1,2-0.2,3.9-0.3,5.9c0.5-0.6,1.1-1.4,1.7-2.4s1.3-2,2-3.1s1.4-2.2,2.1-3.3c0.7-1.1,1.3-2.1,1.8-3c0.6-0.9,1-1.6,1.3-2.1
				l0.5-0.9c0.8-2.1,1.7-4.2,2.6-6.3c0.9-2.1,1.7-4.1,2.6-6.2c0.8-2,1.7-3.5,2.6-4.6c0.9-1.1,1.9-1.6,3-1.6c0.9,0,1.6,0.2,2.1,0.5
				c0.5,0.3,0.8,0.7,0.8,1.2c0,0.8-0.2,1.7-0.6,2.8c-0.4,1.1-0.9,2.2-1.4,3.5c-0.5,1.2-1,2.5-1.5,3.8s-0.9,2.5-1.1,3.7
				c-0.1,2-0.2,3.7-0.3,5c-0.1,1.4-0.1,2.7-0.1,3.8c0,1.4,0,2.9,0,4.5c0,1.6,0.1,3.1,0.3,4.5c0.9-1.3,1.9-2.7,2.8-4.3
				c1-1.5,2-3.1,2.9-4.8c1-1.6,1.9-3.3,2.8-5c0.9-1.7,1.7-3.4,2.5-5.1c0.8-1.7,1.4-3.4,2-5c0.6-1.6,1-3.2,1.3-4.7l0.4-2.6
				c0-0.1,0-0.2,0-0.3c0-0.1,0-0.2,0-0.3c0.1-0.7,0.3-1.3,0.4-1.8c0.2-0.5,0.4-1,0.6-1.4c0.3-0.4,0.6-0.7,1-0.9
				c0.4-0.2,0.9-0.3,1.5-0.3c1,0,1.7,0.1,2.1,0.3c0.4,0.2,0.7,0.7,0.7,1.4c0,0.2,0,0.5-0.1,0.7C432.1,136.5,432,136.8,432,137.1z"/>
			<path class="st22" d="M430.8,155.9c0.4-0.6,0.8-1.1,1.3-1.4c0.5-0.3,1-0.4,1.5-0.4c0.9,0,1.6,0.3,2.2,0.8
				c0.6,0.6,0.9,1.3,0.9,2.1c0,0.2-0.1,0.4-0.1,0.6c0,0.2-0.1,0.4-0.2,0.6c-0.3,0.6-0.6,1.1-0.8,1.5c-0.2,0.4-0.4,0.8-0.6,1.1
				c-0.2,0.4-0.3,0.7-0.5,1c-0.2,0.3-0.4,0.7-0.6,1.2c-0.3,0.6-0.6,1.2-0.9,1.9s-0.7,1.4-1,2.1c-0.3,0.7-0.6,1.4-0.8,2.1
				c-0.2,0.7-0.3,1.3-0.3,1.9c0,0.6,0.2,1,0.5,1.2c0.3,0.2,0.7,0.3,1.3,0.3c0.6,0,1.3-0.1,2-0.4s1.4-0.6,2.1-1.1
				c0.7-0.4,1.4-0.9,2.1-1.5c0.7-0.6,1.3-1.1,1.9-1.7c0.6-0.6,1.2-1.1,1.7-1.6c0.5-0.5,0.9-1,1.3-1.4c0.5-0.4,0.9-0.6,1.4-0.6
				c0.4,0,0.7,0.2,1,0.5c0.3,0.4,0.4,0.8,0.4,1.4c0,0.5-0.1,1.1-0.4,1.7c-0.3,0.6-0.7,1.1-1.3,1.7c-1.2,1.2-2.3,2.3-3.5,3.4
				c-1.2,1.1-2.4,2-3.7,2.9c-1.3,0.8-2.5,1.5-3.8,2c-1.3,0.5-2.6,0.7-3.8,0.7c-1.8,0-3.3-0.5-4.3-1.4s-1.6-2.4-1.6-4.4
				c0-1,0.1-2.1,0.4-3.1c0.3-1,0.6-2,1.1-2.9c0.4-0.9,0.8-1.8,1.3-2.7c0.5-0.9,0.8-1.7,1.2-2.5c0.1-0.3,0.3-0.7,0.6-1.4
				c0.3-0.6,0.6-1.2,0.9-1.9C430,157.5,430.4,156.7,430.8,155.9z M434.6,148.2c0-0.5,0.1-1.1,0.3-1.6c0.2-0.6,0.5-1.1,0.9-1.5
				c0.4-0.5,0.9-0.8,1.4-1.1c0.6-0.3,1.3-0.4,2.1-0.4c1.3,0,2.2,0.3,2.8,0.8c0.5,0.5,0.8,1.2,0.8,1.9c0,0.4-0.1,0.9-0.3,1.4
				c-0.2,0.5-0.4,1-0.8,1.4c-0.3,0.4-0.8,0.8-1.3,1.1c-0.5,0.3-1.2,0.4-1.9,0.4c-1.4,0-2.4-0.2-3-0.7S434.6,149,434.6,148.2z"/>
			<path class="st22" d="M452.8,158.8c-0.8,1.6-1.6,3.2-2.4,4.8s-1.5,3-2.1,4.3c-0.3,0.5-0.5,1.2-0.8,1.9c-0.3,0.7-0.4,1.3-0.4,1.9
				c0,0.3,0.1,0.6,0.2,0.7c0.1,0.2,0.4,0.3,0.7,0.3c0.5,0,1.1-0.1,1.8-0.4c0.7-0.3,1.5-0.7,2.3-1.1c0.8-0.5,1.7-1,2.7-1.6
				c0.9-0.6,1.8-1.2,2.7-1.9c0.9-0.6,1.8-1.3,2.6-1.9c0.8-0.6,1.5-1.2,2.2-1.8c0.4-0.2,0.7-0.4,1-0.4c0.4,0,0.7,0.2,1,0.5
				c0.2,0.3,0.4,0.8,0.4,1.3c0,0.5-0.1,1.1-0.4,1.6c-0.3,0.5-0.7,1.1-1.4,1.6c-1.5,1.3-3,2.6-4.5,3.8c-1.5,1.2-3,2.3-4.5,3.2
				c-1.5,0.9-3,1.7-4.4,2.2c-1.5,0.5-2.9,0.8-4.2,0.8c-0.9,0-1.7-0.1-2.3-0.4c-0.6-0.2-1.1-0.6-1.5-1c-0.4-0.4-0.6-0.9-0.8-1.5
				c-0.2-0.6-0.2-1.2-0.2-1.8c0-1.1,0.2-2.3,0.6-3.5c0.4-1.2,0.8-2.3,1.3-3.3c0.7-1.4,1.4-2.8,2-4.2c0.7-1.4,1.3-2.7,2-4H445
				c-1.3,0-2.1-0.2-2.6-0.6c-0.5-0.4-0.7-0.9-0.7-1.4c0-0.2,0.1-0.5,0.2-0.8c0.1-0.3,0.4-0.6,0.6-0.9c0.3-0.3,0.6-0.5,1-0.7
				c0.4-0.2,0.9-0.3,1.4-0.3h3.7l7.2-14.3c0.5-0.9,1-1.5,1.7-1.9c0.7-0.4,1.4-0.6,2.1-0.6c0.7,0,1.3,0.2,1.9,0.5
				c0.6,0.4,0.9,1,0.9,1.8c0,0.4-0.1,0.9-0.3,1.3c-0.2,0.4-0.4,1-0.8,1.5c-0.2,0.4-0.5,0.8-0.7,1.4s-0.6,1.1-0.9,1.7
				c-0.3,0.6-0.7,1.2-1,1.9c-0.4,0.7-0.7,1.3-1,1.9c-0.8,1.5-1.6,3-2.5,4.6h11.1c0.5,0,1,0,1.5,0.1s0.8,0.2,1.2,0.3
				c0.3,0.2,0.6,0.4,0.8,0.7c0.2,0.3,0.3,0.7,0.3,1.2c0,0.2,0,0.5-0.1,0.7c-0.1,0.2-0.2,0.5-0.4,0.7c-0.2,0.2-0.5,0.4-0.9,0.5
				s-0.9,0.2-1.4,0.3L452.8,158.8z"/>
			<path class="st22" d="M504.8,163.9c-0.1,0-0.2,0-0.3,0c-0.1,0-0.2,0-0.3,0c-1.1,2.5-2.1,4.7-2.9,6.6c-0.9,1.9-1.5,3.2-2,4.1
				c-0.4,0.7-0.8,1.3-1.3,1.8c-0.5,0.5-1,1-1.5,1.3s-1.1,0.6-1.7,0.8c-0.6,0.2-1.1,0.3-1.5,0.3c-0.7,0-1.3-0.2-1.8-0.5
				c-0.5-0.3-0.7-0.9-0.7-1.5c0-0.6,0.2-1.3,0.5-2.1l4.9-10.4c-2.5,0.1-4.9,0.2-7.1,0.2c-2.3,0.1-4.5,0.1-6.6,0.2
				c-1.1,2.2-2.2,4.2-3.4,6.1c-1.2,1.9-2.5,3.6-3.9,5c-1.4,1.4-2.8,2.6-4.3,3.4c-1.5,0.8-3,1.2-4.6,1.2c-1.2,0-2.4-0.3-3.4-1
				c-0.3-0.1-0.7-0.4-1-0.8c-0.4-0.4-0.7-0.8-1-1.3c-0.3-0.5-0.6-1.1-0.8-1.7c-0.2-0.6-0.3-1.2-0.3-1.9c0-0.5,0.1-0.9,0.2-1.3
				c0.2-0.4,0.4-0.8,0.7-1.2c0.1-0.2,0.3-0.4,0.5-0.6c0.2-0.2,0.4-0.5,0.6-0.7c0.2-0.2,0.5-0.4,0.8-0.6c0.3-0.2,0.6-0.2,0.9-0.2
				c0.1,0,0.3,0,0.4,0.1c0.1,0,0.3,0.1,0.4,0.2c0.2,0.1,0.4,0.4,0.7,0.9c0.2,0.5,0.5,1,0.7,1.5s0.6,1,0.9,1.4
				c0.3,0.4,0.7,0.6,1.1,0.6c0.6,0,1.2-0.2,1.9-0.7c0.6-0.5,1.3-1.1,1.9-1.9c0.6-0.8,1.3-1.8,2-3c0.7-1.2,1.3-2.4,2-3.8
				c-0.7-0.2-1.2-0.5-1.5-1c-0.3-0.4-0.4-0.9-0.4-1.3c0-0.3,0.1-0.5,0.3-0.8c0.2-0.3,0.5-0.5,0.9-0.7c0.4-0.2,0.8-0.4,1.3-0.6
				c0.5-0.2,1-0.2,1.6-0.3c0.8-2,1.6-4.1,2.3-6.2s1.5-4.3,2.1-6.3c0.7-2.1,1.3-4,1.9-5.9c0.6-1.9,1.1-3.6,1.5-5.1
				c0.4-1.5,0.8-2.7,1.1-3.7c0.3-1,0.4-1.6,0.5-1.8c0.2-0.7,0.5-1.2,1-1.5c0.5-0.3,1.1-0.5,1.7-0.5c0.9,0,1.6,0.3,2,0.9
				c0.5,0.6,0.7,1.6,0.7,3.1c0,0.2,0,0.4,0,0.6c0,0.2,0,0.4,0,0.6c0,0.6-0.2,1.4-0.3,2.4c-0.2,1-0.4,2.2-0.7,3.5
				c-0.3,1.3-0.7,2.8-1.1,4.3c-0.4,1.6-0.9,3.2-1.4,4.9c-0.5,1.7-1.1,3.5-1.8,5.3c-0.6,1.8-1.3,3.6-2.1,5.4c0.7,0,1.5,0,2.3,0
				c0.8,0,1.8,0,2.8,0c1.1,0,2.3,0,3.6,0.1s2.9,0.1,4.6,0.1c0,0,0,0,0.1,0c0,0,0,0,0.1,0c2-4.2,3.9-8.2,5.7-11.9
				c1.8-3.7,3.4-7,4.9-9.7s2.8-5,4-6.6c1.2-1.6,2.1-2.4,2.9-2.4c0.8,0,1.4,0.2,1.8,0.6c0.4,0.4,0.6,0.9,0.6,1.5c0,0.3,0,0.6-0.1,0.9
				s-0.2,0.5-0.3,0.9c-0.6,1.4-1.3,3.2-2.2,5.3c-0.9,2.1-1.9,4.3-3,6.8c-1.1,2.4-2.2,4.9-3.3,7.5c-1.1,2.6-2.3,5.1-3.3,7.5
				c0.7,0.1,1.2,0.3,1.7,0.6c0.4,0.2,0.7,0.6,0.7,0.9c0,0.5-0.3,1-0.8,1.4C506.9,163.6,506,163.8,504.8,163.9z"/>
			<path class="st22" d="M546.9,169.6c-1,1.1-2.2,2.2-3.5,3.3c-1.3,1.1-2.7,2-4.1,2.9c-1.4,0.8-2.8,1.5-4.2,2s-2.6,0.8-3.7,0.8
				c-1.1,0-2-0.3-2.7-0.9c-0.7-0.6-1-1.7-1-3.1c0-1,0.2-2.3,0.5-3.6c-0.6,0.9-1.3,1.8-2.2,2.7c-0.9,0.9-1.9,1.7-3,2.5
				c-1.1,0.7-2.4,1.4-3.8,1.8c-1.4,0.5-2.9,0.7-4.6,0.7c-0.7,0-1.5-0.1-2.2-0.2c-0.7-0.2-1.3-0.4-1.8-0.8c-0.5-0.4-0.9-0.9-1.3-1.5
				c-0.3-0.6-0.5-1.5-0.5-2.4c0,0,0-0.4,0.1-1c0.1-0.7,0.4-1.7,0.9-3.2c0.5-1.4,1.2-3.3,2.3-5.6s2.5-5.1,4.3-8.3
				c0.5-0.9,1-1.5,1.7-1.9c0.6-0.4,1.3-0.6,2-0.6c0.3,0,0.6,0,1,0.1s0.7,0.2,1,0.4c0.3,0.2,0.5,0.4,0.7,0.6c0.2,0.3,0.3,0.6,0.3,0.9
				c0,0.2,0,0.4-0.1,0.6c-0.1,0.4-0.4,0.9-0.7,1.5c-0.4,0.6-0.8,1.3-1.3,2.1c-0.5,0.8-1,1.7-1.6,2.6s-1.1,1.9-1.5,2.9
				c-0.5,1-0.9,2-1.2,3c-0.3,1-0.5,2-0.6,3c0,0.4,0.1,0.8,0.3,1.1c0.2,0.3,0.6,0.5,1.1,0.5c1.5,0,2.9-0.4,4.2-1.2
				c1.3-0.8,2.6-1.8,3.7-3c1.1-1.2,2.2-2.5,3.1-3.9c0.9-1.4,1.7-2.7,2.3-3.8c0.4-0.8,0.8-1.6,1.1-2.5c0.3-0.9,0.7-1.7,1.1-2.5
				c0.4-0.7,0.8-1.4,1.3-1.9c0.5-0.5,1.1-0.7,1.9-0.7c0.8,0,1.5,0.3,1.9,0.8c0.5,0.5,0.7,1.1,0.7,1.9c0,0.4-0.2,1-0.5,1.7
				c-0.3,0.7-0.7,1.5-1.2,2.5c-0.5,0.9-1,1.9-1.5,2.9s-1.1,2.1-1.5,3.2c-0.5,1.1-0.9,2.1-1.2,3.2c-0.3,1-0.5,2-0.5,2.9
				c0,0.8,0.5,1.2,1.5,1.2c0.7,0,1.6-0.2,2.6-0.6c1-0.4,2.1-1,3.3-1.7c1.1-0.7,2.3-1.6,3.4-2.6c1.1-1,2.2-2.1,3-3.2L546.9,169.6z"/>
			<path class="st22" d="M562.2,172.3c-1.9,2.3-4,4-6.1,5.1c-2.2,1.1-4.5,1.6-7,1.6c-1.4,0-2.6-0.2-3.5-0.6c-1-0.4-1.7-0.9-2.3-1.6
				c-0.6-0.7-1-1.5-1.3-2.4c-0.3-0.9-0.4-1.9-0.4-2.9c0-1.2,0.1-2.4,0.4-3.6c0.3-1.2,0.7-2.4,1.2-3.6c0.3-0.7,0.6-1.4,0.8-1.9
				c0.2-0.5,0.4-0.9,0.5-1.3c0.1-0.4,0.3-0.7,0.4-0.9s0.2-0.5,0.3-0.8c0.1-0.3,0.2-0.6,0.4-1c0.2-0.4,0.4-0.9,0.6-1.4l9.9-22.1
				c0.1-0.3,0.3-0.6,0.6-0.9c0.3-0.3,0.6-0.5,0.9-0.7c0.3-0.2,0.7-0.4,1.1-0.5c0.4-0.1,0.8-0.2,1.2-0.2c1,0,1.8,0.2,2.2,0.6
				c0.4,0.4,0.6,0.9,0.6,1.5c0,0.5-0.1,0.9-0.3,1.5c-0.2,0.5-0.5,1-0.7,1.5c-1.7,3.2-3.3,6.5-4.8,9.8s-3.1,6.6-4.8,9.9
				c0.7-0.6,1.5-1.1,2.3-1.7c0.8-0.5,1.7-1,2.6-1.4s1.8-0.8,2.8-1s1.9-0.4,2.9-0.4c0.7,0,1.4,0.1,2.1,0.4s1.4,0.7,2,1.2
				c0.6,0.5,1.1,1.2,1.5,1.9c0.4,0.8,0.6,1.6,0.6,2.6c0,0.2-0.1,0.7-0.2,1.4s-0.3,1.4-0.6,2.3c-0.3,0.9-0.6,1.7-1,2.6
				s-0.8,1.7-1.2,2.4c0.2,0.2,0.4,0.4,0.6,0.5c0.2,0.1,0.5,0.1,0.9,0.1c1,0,2.1-0.1,3.1-0.4c1-0.3,2-0.6,2.9-1
				c0.9-0.4,1.8-0.8,2.5-1.2c0.8-0.4,1.4-0.8,1.9-1.1c0.3-0.3,0.6-0.4,0.9-0.4c0.4,0,0.7,0.2,1,0.5c0.3,0.3,0.4,0.8,0.4,1.3
				c0,0.5-0.1,1-0.3,1.5c-0.2,0.5-0.6,1.1-1.2,1.7c-1,0.6-2,1.2-3.1,1.7c-1,0.5-2.1,1-3.1,1.4c-1.1,0.4-2.2,0.7-3.3,1
				c-1.1,0.2-2.2,0.4-3.4,0.4c-0.7,0-1.4-0.1-2-0.3C563.2,173.1,562.6,172.7,562.2,172.3z M559.3,158.6c-1.3,0-2.6,0.3-3.9,0.9
				s-2.5,1.4-3.5,2.5c-1,1-1.9,2.2-2.5,3.5c-0.7,1.3-1,2.6-1,3.9c0,0.4,0,0.7,0.1,1.1c0.1,0.4,0.2,0.7,0.4,1
				c0.2,0.3,0.5,0.6,0.9,0.8c0.4,0.2,1,0.3,1.6,0.3c1.3,0,2.6-0.3,3.8-0.9c1.2-0.6,2.3-1.4,3.3-2.5s1.8-2.2,2.3-3.5
				c0.6-1.3,0.9-2.6,0.9-3.9c0-0.3,0-0.7-0.1-1.1c-0.1-0.4-0.2-0.7-0.4-1.1c-0.2-0.3-0.4-0.6-0.8-0.8
				C560.3,158.7,559.9,158.6,559.3,158.6z"/>
		</g>
	</g>
</g>
<g>
	<rect x="310.6" y="379.5" class="st7" width="165.3" height="23.2"/>
	<g>
		<path class="st22" d="M418.3,390.4c0.4,0,0.8,0.2,1,0.5c0.3,0.3,0.4,0.8,0.4,1.3s-0.1,1.1-0.3,1.7c-0.2,0.5-0.5,1-0.8,1.3
			s-0.8,0.5-1.2,0.5c-0.6,0-1-0.2-1.2-0.7h0l-0.3,0.6h-1l1.5-7h1.4l-0.3,1.3c-0.1,0.5-0.2,1-0.4,1.3h0c0.2-0.3,0.4-0.5,0.6-0.6
			C417.8,390.4,418,390.4,418.3,390.4z M417.7,391.5c-0.2,0-0.4,0.1-0.6,0.3c-0.2,0.2-0.3,0.5-0.5,0.8c-0.1,0.3-0.2,0.7-0.2,1.1
			c0,0.2,0.1,0.4,0.2,0.6s0.3,0.2,0.5,0.2c0.2,0,0.4-0.1,0.6-0.3c0.2-0.2,0.3-0.5,0.4-0.9s0.2-0.7,0.2-1.1
			C418.3,391.7,418.1,391.5,417.7,391.5z"/>
		<path class="st22" d="M420.7,390.5h1.3l0.3,2.3c0,0.4,0.1,0.8,0.1,1.3h0c0.1-0.2,0.1-0.3,0.2-0.5s0.2-0.4,0.3-0.7l1.2-2.4h1.5
			l-3.1,5.8c-0.5,1-1.3,1.5-2.2,1.5c-0.3,0-0.5,0-0.7-0.1v-1.1c0.2,0,0.4,0.1,0.5,0.1c0.3,0,0.5-0.1,0.7-0.2s0.4-0.4,0.5-0.7
			l0.1-0.2L420.7,390.5z"/>
		<path class="st22" d="M429.1,392.6h1.5l-0.1,0.7c-0.2,0.7,0.7,0.9,1.5,0.9c1.1,0,1.7-0.6,1.7-1.4c0-1.6-3.9-1-3.9-3.7
			c0-1.8,1.7-2.7,3.5-2.7c1.1,0,2.9,0.4,2.6,1.7l-0.2,1.1h-1.5l0.1-0.6c0.1-0.5-0.6-0.7-1.2-0.7c-0.9,0-1.7,0.4-1.7,1.2
			c0,1.6,3.9,1,3.9,3.7c0,1.9-1.7,2.9-3.6,2.9c-1.2,0-3.2-0.5-2.9-2.1L429.1,392.6z"/>
		<path class="st22" d="M438.3,394.3h1.1l1.3-6.4h-1.7l-0.3,1.4h-1.4l0.5-2.7h7.9l-0.5,2.7h-1.4l0.3-1.4h-1.7l-1.3,6.4h1.1l-0.2,1.2
			h-3.8L438.3,394.3z"/>
		<path class="st22" d="M444.3,394.3h0.8l4.2-7.7h1.9l1.2,7.7h0.8l-0.2,1.2h-3.3l0.2-1.2h0.9l-0.2-1.7h-2.8l-0.9,1.7h0.9l-0.3,1.2
			H444L444.3,394.3z M450.3,391.3l-0.3-2.5c-0.1-0.4,0-0.8,0-0.8h0c0,0-0.1,0.3-0.3,0.8l-1.4,2.5H450.3z"/>
		<path class="st22" d="M454.1,394.3h1.1l1.3-6.5h-1.1l0.2-1.3h3.8l-0.2,1.3h-1.1l-1.3,6.5h1.1l-0.2,1.2h-3.8L454.1,394.3z"/>
		<path class="st22" d="M459.4,394.3h1.1l1.3-6.5h-1.1l0.2-1.3h3.7c0.8,0,1.4,0.1,2,0.3c1.4,0.5,2.1,1.6,2.1,3.3
			c0,2.1-1.2,4.2-3.1,5c-0.7,0.3-1.4,0.4-2.2,0.4h-4.2L459.4,394.3z M463.4,394.2c0.7,0,1.2-0.1,1.7-0.4c1.2-0.6,2-2,2-3.6
			c0-1.1-0.4-1.8-1.2-2.2c-0.4-0.2-0.8-0.2-1.4-0.2h-1.2l-1.2,6.3H463.4z"/>
	</g>
	<g>
		<g>
			<path class="st22" d="M331.1,385.9c-0.3,1.5-1,3.5-2.3,5.9c-0.3,0.7-0.6,1.3-0.9,1.8s-0.5,1-0.8,1.3s-0.5,0.6-0.7,0.8
				c-0.2,0.2-0.5,0.3-0.8,0.3c-0.2,0-0.4-0.1-0.5-0.2c-0.1-0.1-0.3-0.3-0.4-0.6c-0.1-0.3-0.2-0.7-0.3-1.2c-0.1-0.5-0.1-1.2-0.2-2
				l-1.9,2.7c-0.2,0.2-0.3,0.5-0.5,0.6s-0.3,0.3-0.4,0.4c-0.1,0.1-0.3,0.2-0.4,0.2c-0.2,0-0.3,0.1-0.5,0.1c-0.2,0-0.4-0.1-0.6-0.2
				s-0.2-0.3-0.2-0.6c0-0.4,0-0.8,0-1.3c0-0.5,0-1,0-1.6c0-0.6,0.1-1.2,0.1-1.9c0-0.7,0.1-1.5,0.2-2.4c-0.2,0.2-0.4,0.4-0.5,0.5
				c-0.1,0.1-0.2,0.2-0.3,0.2c-0.1,0-0.1,0-0.2-0.1s0-0.1,0-0.2c0-0.2,0-0.4,0.1-0.7c0.1-0.3,0.2-0.6,0.4-0.9c0.2-0.3,0.4-0.6,0.7-1
				c0.3-0.3,0.6-0.6,0.9-0.9c0.1,0,0.1-0.1,0.2-0.1c0.1,0,0.2,0,0.3,0.1s0.2,0.2,0.2,0.3c0.1,0.1,0.1,0.2,0.2,0.4
				c0,0.1,0.1,0.3,0.1,0.4c0,0.1,0,0.2,0,0.3c0,0.1-0.1,0.2-0.1,0.3c0,0.1-0.1,0.2-0.1,0.3c0,0.1-0.1,0.3-0.1,0.5
				c0,0.2-0.1,0.5-0.1,0.9c-0.1,0.5-0.1,0.9-0.1,1.4c0,0.5-0.1,0.9-0.1,1.4c0,0.5,0,0.9-0.1,1.4s0,1-0.1,1.5
				c0.1-0.2,0.3-0.3,0.4-0.6c0.2-0.2,0.3-0.5,0.5-0.8c0.2-0.3,0.3-0.5,0.5-0.8c0.2-0.3,0.3-0.5,0.5-0.7c0.1-0.2,0.2-0.4,0.3-0.5
				l0.1-0.2c0.2-0.5,0.4-1,0.6-1.5c0.2-0.5,0.4-1,0.6-1.5c0.2-0.5,0.4-0.9,0.6-1.1c0.2-0.3,0.5-0.4,0.7-0.4c0.2,0,0.4,0,0.5,0.1
				s0.2,0.2,0.2,0.3c0,0.2,0,0.4-0.1,0.7c-0.1,0.3-0.2,0.5-0.3,0.8c-0.1,0.3-0.3,0.6-0.4,0.9c-0.1,0.3-0.2,0.6-0.3,0.9
				c0,0.5,0,0.9-0.1,1.2s0,0.7,0,0.9c0,0.4,0,0.7,0,1.1c0,0.4,0,0.8,0.1,1.1c0.2-0.3,0.5-0.7,0.7-1c0.2-0.4,0.5-0.8,0.7-1.2
				c0.2-0.4,0.5-0.8,0.7-1.2s0.4-0.8,0.6-1.3c0.2-0.4,0.4-0.8,0.5-1.2s0.2-0.8,0.3-1.2l0.1-0.6c0,0,0,0,0-0.1s0,0,0-0.1
				c0-0.2,0.1-0.3,0.1-0.5c0-0.1,0.1-0.2,0.2-0.3s0.1-0.2,0.2-0.2c0.1,0,0.2-0.1,0.4-0.1c0.2,0,0.4,0,0.5,0.1c0.1,0,0.2,0.2,0.2,0.3
				c0,0.1,0,0.1,0,0.2S331.1,385.8,331.1,385.9z"/>
			<path class="st22" d="M330.8,390.5c0.1-0.2,0.2-0.3,0.3-0.3c0.1-0.1,0.2-0.1,0.4-0.1c0.2,0,0.4,0.1,0.5,0.2
				c0.2,0.1,0.2,0.3,0.2,0.5c0,0.1,0,0.1,0,0.2s0,0.1-0.1,0.2c-0.1,0.1-0.1,0.3-0.2,0.4c-0.1,0.1-0.1,0.2-0.1,0.3
				c0,0.1-0.1,0.2-0.1,0.3c0,0.1-0.1,0.2-0.1,0.3c-0.1,0.1-0.1,0.3-0.2,0.5c-0.1,0.2-0.2,0.3-0.2,0.5c-0.1,0.2-0.1,0.3-0.2,0.5
				s-0.1,0.3-0.1,0.5c0,0.2,0,0.2,0.1,0.3c0.1,0,0.2,0.1,0.3,0.1c0.2,0,0.3,0,0.5-0.1c0.2-0.1,0.3-0.2,0.5-0.3
				c0.2-0.1,0.3-0.2,0.5-0.4c0.2-0.1,0.3-0.3,0.5-0.4c0.1-0.1,0.3-0.3,0.4-0.4c0.1-0.1,0.2-0.2,0.3-0.3c0.1-0.1,0.2-0.2,0.3-0.2
				c0.1,0,0.2,0,0.2,0.1c0.1,0.1,0.1,0.2,0.1,0.3c0,0.1,0,0.3-0.1,0.4c-0.1,0.1-0.2,0.3-0.3,0.4c-0.3,0.3-0.6,0.6-0.9,0.8
				c-0.3,0.3-0.6,0.5-0.9,0.7c-0.3,0.2-0.6,0.4-0.9,0.5c-0.3,0.1-0.6,0.2-0.9,0.2c-0.5,0-0.8-0.1-1.1-0.3s-0.4-0.6-0.4-1.1
				c0-0.3,0-0.5,0.1-0.8s0.2-0.5,0.3-0.7c0.1-0.2,0.2-0.5,0.3-0.7c0.1-0.2,0.2-0.4,0.3-0.6c0-0.1,0.1-0.2,0.1-0.3
				c0.1-0.1,0.1-0.3,0.2-0.5C330.6,390.9,330.7,390.7,330.8,390.5z M331.7,388.6c0-0.1,0-0.3,0.1-0.4c0-0.1,0.1-0.3,0.2-0.4
				c0.1-0.1,0.2-0.2,0.4-0.3c0.1-0.1,0.3-0.1,0.5-0.1c0.3,0,0.5,0.1,0.7,0.2c0.1,0.1,0.2,0.3,0.2,0.5c0,0.1,0,0.2-0.1,0.4
				c0,0.1-0.1,0.2-0.2,0.4s-0.2,0.2-0.3,0.3c-0.1,0.1-0.3,0.1-0.5,0.1c-0.3,0-0.6-0.1-0.7-0.2S331.7,388.8,331.7,388.6z"/>
			<path class="st22" d="M336.2,391.2c-0.2,0.4-0.4,0.8-0.6,1.2s-0.4,0.7-0.5,1.1c-0.1,0.1-0.1,0.3-0.2,0.5
				c-0.1,0.2-0.1,0.3-0.1,0.5c0,0.1,0,0.1,0.1,0.2c0,0,0.1,0.1,0.2,0.1c0.1,0,0.3,0,0.4-0.1c0.2-0.1,0.4-0.2,0.6-0.3
				c0.2-0.1,0.4-0.2,0.7-0.4s0.5-0.3,0.7-0.5c0.2-0.2,0.4-0.3,0.6-0.5c0.2-0.2,0.4-0.3,0.5-0.4c0.1-0.1,0.2-0.1,0.3-0.1
				c0.1,0,0.2,0,0.2,0.1c0.1,0.1,0.1,0.2,0.1,0.3s0,0.3-0.1,0.4c-0.1,0.1-0.2,0.3-0.3,0.4c-0.4,0.3-0.7,0.6-1.1,0.9
				c-0.4,0.3-0.7,0.6-1.1,0.8c-0.4,0.2-0.7,0.4-1.1,0.5c-0.4,0.1-0.7,0.2-1,0.2c-0.2,0-0.4,0-0.6-0.1s-0.3-0.1-0.4-0.2
				c-0.1-0.1-0.2-0.2-0.2-0.4c0-0.1-0.1-0.3-0.1-0.4c0-0.3,0-0.6,0.1-0.9c0.1-0.3,0.2-0.6,0.3-0.8c0.2-0.3,0.3-0.7,0.5-1
				c0.2-0.3,0.3-0.7,0.5-1h-0.4c-0.3,0-0.5,0-0.6-0.2s-0.2-0.2-0.2-0.3c0-0.1,0-0.1,0.1-0.2c0-0.1,0.1-0.2,0.2-0.2
				c0.1-0.1,0.2-0.1,0.3-0.2c0.1-0.1,0.2-0.1,0.3-0.1h0.9l1.8-3.5c0.1-0.2,0.2-0.4,0.4-0.5s0.3-0.1,0.5-0.1c0.2,0,0.3,0,0.5,0.1
				s0.2,0.2,0.2,0.4c0,0.1,0,0.2-0.1,0.3s-0.1,0.2-0.2,0.4c-0.1,0.1-0.1,0.2-0.2,0.3c-0.1,0.1-0.1,0.3-0.2,0.4
				c-0.1,0.1-0.2,0.3-0.3,0.5c-0.1,0.2-0.2,0.3-0.3,0.5c-0.2,0.4-0.4,0.7-0.6,1.1h2.7c0.1,0,0.3,0,0.4,0s0.2,0,0.3,0.1
				c0.1,0,0.1,0.1,0.2,0.2c0,0.1,0.1,0.2,0.1,0.3c0,0.1,0,0.1,0,0.2s-0.1,0.1-0.1,0.2s-0.1,0.1-0.2,0.1s-0.2,0.1-0.4,0.1
				L336.2,391.2z"/>
			<path class="st22" d="M348.9,392.4C348.9,392.4,348.9,392.4,348.9,392.4c-0.1,0-0.1,0-0.1,0c-0.3,0.6-0.5,1.1-0.7,1.6
				c-0.2,0.5-0.4,0.8-0.5,1c-0.1,0.2-0.2,0.3-0.3,0.5c-0.1,0.1-0.2,0.2-0.4,0.3c-0.1,0.1-0.3,0.2-0.4,0.2c-0.1,0-0.3,0.1-0.4,0.1
				c-0.2,0-0.3,0-0.4-0.1c-0.1-0.1-0.2-0.2-0.2-0.4c0-0.1,0-0.3,0.1-0.5l1.2-2.5c-0.6,0-1.2,0-1.7,0.1c-0.6,0-1.1,0-1.6,0
				c-0.3,0.5-0.5,1-0.8,1.5c-0.3,0.5-0.6,0.9-1,1.2c-0.3,0.4-0.7,0.6-1,0.8s-0.7,0.3-1.1,0.3c-0.3,0-0.6-0.1-0.8-0.2
				c-0.1,0-0.2-0.1-0.3-0.2s-0.2-0.2-0.3-0.3c-0.1-0.1-0.1-0.3-0.2-0.4c-0.1-0.2-0.1-0.3-0.1-0.5c0-0.1,0-0.2,0.1-0.3
				c0-0.1,0.1-0.2,0.2-0.3c0,0,0.1-0.1,0.1-0.2s0.1-0.1,0.2-0.2c0.1-0.1,0.1-0.1,0.2-0.1c0.1,0,0.1-0.1,0.2-0.1c0,0,0.1,0,0.1,0
				c0,0,0.1,0,0.1,0c0.1,0,0.1,0.1,0.2,0.2c0.1,0.1,0.1,0.2,0.2,0.4s0.1,0.2,0.2,0.3c0.1,0.1,0.2,0.2,0.3,0.2c0.2,0,0.3-0.1,0.5-0.2
				c0.2-0.1,0.3-0.3,0.5-0.5s0.3-0.4,0.5-0.7c0.2-0.3,0.3-0.6,0.5-0.9c-0.2-0.1-0.3-0.1-0.4-0.2c-0.1-0.1-0.1-0.2-0.1-0.3
				c0-0.1,0-0.1,0.1-0.2c0.1-0.1,0.1-0.1,0.2-0.2c0.1-0.1,0.2-0.1,0.3-0.1s0.3-0.1,0.4-0.1c0.2-0.5,0.4-1,0.6-1.5
				c0.2-0.5,0.4-1,0.5-1.6c0.2-0.5,0.3-1,0.5-1.5c0.1-0.5,0.3-0.9,0.4-1.2c0.1-0.4,0.2-0.7,0.3-0.9s0.1-0.4,0.1-0.5
				c0-0.2,0.1-0.3,0.3-0.4s0.3-0.1,0.4-0.1c0.2,0,0.4,0.1,0.5,0.2c0.1,0.1,0.2,0.4,0.2,0.8c0,0,0,0.1,0,0.1c0,0,0,0.1,0,0.2
				c0,0.1,0,0.3-0.1,0.6c0,0.2-0.1,0.5-0.2,0.9c-0.1,0.3-0.2,0.7-0.3,1.1c-0.1,0.4-0.2,0.8-0.4,1.2c-0.1,0.4-0.3,0.9-0.4,1.3
				c-0.2,0.4-0.3,0.9-0.5,1.3c0.2,0,0.4,0,0.6,0c0.2,0,0.4,0,0.7,0c0.3,0,0.6,0,0.9,0c0.3,0,0.7,0,1.1,0c0,0,0,0,0,0c0,0,0,0,0,0
				c0.5-1,1-2,1.4-2.9c0.4-0.9,0.8-1.7,1.2-2.4s0.7-1.2,1-1.6c0.3-0.4,0.5-0.6,0.7-0.6c0.2,0,0.3,0,0.4,0.1s0.1,0.2,0.1,0.4
				c0,0.1,0,0.2,0,0.2c0,0.1,0,0.1-0.1,0.2c-0.1,0.4-0.3,0.8-0.6,1.3c-0.2,0.5-0.5,1.1-0.7,1.7c-0.3,0.6-0.5,1.2-0.8,1.8
				c-0.3,0.6-0.6,1.3-0.8,1.8c0.2,0,0.3,0.1,0.4,0.1c0.1,0.1,0.2,0.1,0.2,0.2c0,0.1-0.1,0.2-0.2,0.3S349.2,392.4,348.9,392.4z"/>
			<path class="st22" d="M359.2,393.8c-0.2,0.3-0.5,0.5-0.9,0.8c-0.3,0.3-0.7,0.5-1,0.7c-0.3,0.2-0.7,0.4-1,0.5
				c-0.3,0.1-0.6,0.2-0.9,0.2s-0.5-0.1-0.7-0.2c-0.2-0.2-0.3-0.4-0.3-0.8c0-0.3,0-0.6,0.1-0.9c-0.1,0.2-0.3,0.4-0.5,0.7
				c-0.2,0.2-0.5,0.4-0.7,0.6s-0.6,0.3-0.9,0.4c-0.3,0.1-0.7,0.2-1.1,0.2c-0.2,0-0.4,0-0.5-0.1c-0.2,0-0.3-0.1-0.4-0.2
				s-0.2-0.2-0.3-0.4c-0.1-0.2-0.1-0.4-0.1-0.6c0,0,0-0.1,0-0.3c0-0.2,0.1-0.4,0.2-0.8s0.3-0.8,0.6-1.4c0.3-0.6,0.6-1.2,1.1-2
				c0.1-0.2,0.3-0.4,0.4-0.5c0.2-0.1,0.3-0.1,0.5-0.1c0.1,0,0.2,0,0.2,0s0.2,0,0.2,0.1c0.1,0,0.1,0.1,0.2,0.2c0,0.1,0.1,0.1,0.1,0.2
				c0,0.1,0,0.1,0,0.2c0,0.1-0.1,0.2-0.2,0.4s-0.2,0.3-0.3,0.5c-0.1,0.2-0.3,0.4-0.4,0.6c-0.1,0.2-0.3,0.5-0.4,0.7
				c-0.1,0.2-0.2,0.5-0.3,0.7s-0.1,0.5-0.1,0.7c0,0.1,0,0.2,0.1,0.3c0.1,0.1,0.1,0.1,0.3,0.1c0.4,0,0.7-0.1,1-0.3
				c0.3-0.2,0.6-0.4,0.9-0.7s0.5-0.6,0.8-1c0.2-0.3,0.4-0.7,0.6-0.9c0.1-0.2,0.2-0.4,0.3-0.6c0.1-0.2,0.2-0.4,0.3-0.6
				s0.2-0.3,0.3-0.5c0.1-0.1,0.3-0.2,0.5-0.2c0.2,0,0.4,0.1,0.5,0.2c0.1,0.1,0.2,0.3,0.2,0.5c0,0.1,0,0.2-0.1,0.4
				c-0.1,0.2-0.2,0.4-0.3,0.6c-0.1,0.2-0.2,0.5-0.4,0.7c-0.1,0.3-0.3,0.5-0.4,0.8c-0.1,0.3-0.2,0.5-0.3,0.8
				c-0.1,0.3-0.1,0.5-0.1,0.7c0,0.2,0.1,0.3,0.4,0.3c0.2,0,0.4,0,0.6-0.2c0.3-0.1,0.5-0.2,0.8-0.4c0.3-0.2,0.6-0.4,0.8-0.6
				c0.3-0.2,0.5-0.5,0.7-0.8L359.2,393.8z"/>
			<path class="st22" d="M363,394.5c-0.5,0.6-1,1-1.5,1.2c-0.5,0.3-1.1,0.4-1.7,0.4c-0.3,0-0.6,0-0.9-0.1c-0.2-0.1-0.4-0.2-0.6-0.4
				c-0.1-0.2-0.2-0.4-0.3-0.6c-0.1-0.2-0.1-0.5-0.1-0.7c0-0.3,0-0.6,0.1-0.9c0.1-0.3,0.2-0.6,0.3-0.9c0.1-0.2,0.1-0.3,0.2-0.5
				c0.1-0.1,0.1-0.2,0.1-0.3c0-0.1,0.1-0.2,0.1-0.2c0-0.1,0.1-0.1,0.1-0.2c0-0.1,0.1-0.2,0.1-0.2c0-0.1,0.1-0.2,0.2-0.4l2.4-5.4
				c0-0.1,0.1-0.1,0.1-0.2c0.1-0.1,0.1-0.1,0.2-0.2s0.2-0.1,0.3-0.1c0.1,0,0.2,0,0.3,0c0.3,0,0.4,0,0.5,0.2c0.1,0.1,0.2,0.2,0.2,0.4
				c0,0.1,0,0.2-0.1,0.4c-0.1,0.1-0.1,0.3-0.2,0.4c-0.4,0.8-0.8,1.6-1.2,2.4s-0.8,1.6-1.2,2.4c0.2-0.1,0.4-0.3,0.6-0.4
				s0.4-0.2,0.6-0.4c0.2-0.1,0.4-0.2,0.7-0.3c0.2-0.1,0.5-0.1,0.7-0.1c0.2,0,0.3,0,0.5,0.1c0.2,0.1,0.3,0.2,0.5,0.3
				c0.1,0.1,0.3,0.3,0.4,0.5s0.1,0.4,0.1,0.6c0,0.1,0,0.2-0.1,0.3s-0.1,0.4-0.1,0.6c-0.1,0.2-0.1,0.4-0.2,0.6s-0.2,0.4-0.3,0.6
				c0,0.1,0.1,0.1,0.2,0.1c0.1,0,0.1,0,0.2,0c0.3,0,0.5,0,0.8-0.1c0.3-0.1,0.5-0.1,0.7-0.2c0.2-0.1,0.4-0.2,0.6-0.3
				c0.2-0.1,0.3-0.2,0.5-0.3c0.1-0.1,0.1-0.1,0.2-0.1c0.1,0,0.2,0,0.2,0.1c0.1,0.1,0.1,0.2,0.1,0.3c0,0.1,0,0.3-0.1,0.4
				s-0.1,0.3-0.3,0.4c-0.2,0.2-0.5,0.3-0.8,0.4c-0.3,0.1-0.5,0.2-0.8,0.3c-0.3,0.1-0.5,0.2-0.8,0.2s-0.5,0.1-0.8,0.1
				c-0.2,0-0.3,0-0.5-0.1C363.2,394.7,363.1,394.6,363,394.5z M362.3,391.1c-0.3,0-0.6,0.1-1,0.2c-0.3,0.2-0.6,0.4-0.9,0.6
				c-0.3,0.2-0.5,0.5-0.6,0.8c-0.2,0.3-0.2,0.6-0.2,1c0,0.1,0,0.2,0,0.3s0.1,0.2,0.1,0.3c0.1,0.1,0.1,0.1,0.2,0.2s0.2,0.1,0.4,0.1
				c0.3,0,0.6-0.1,0.9-0.2s0.6-0.4,0.8-0.6c0.2-0.2,0.4-0.5,0.6-0.8s0.2-0.6,0.2-0.9c0-0.1,0-0.2,0-0.3c0-0.1,0-0.2-0.1-0.3
				c0-0.1-0.1-0.1-0.2-0.2C362.5,391.1,362.4,391.1,362.3,391.1z"/>
		</g>
	</g>
</g>
</svg>
